<?xml version="1.0" encoding="utf-8"?>
<!-- Generator: Adobe Illustrator 21.0.0, SVG Export Plug-In . SVG Version: 6.00 Build 0)  -->
<svg version="1.1" id="Layer_1" xmlns="http://www.w3.org/2000/svg" xmlns:xlink="http://www.w3.org/1999/xlink" x="0px" y="0px"
	 viewBox="0 0 370.7 135.3" style="enable-background:new 0 0 370.7 135.3;" xml:space="preserve">
<style type="text/css">
	.st0{fill:#FFFFFF;}
</style>
<g>
</g>
<g>
	<g>
		<path class="st0" d="M183.5,24.3C183.5,24.3,183.5,24.3,183.5,24.3L183.5,24.3C183.5,24.3,183.5,24.3,183.5,24.3z"/>
	</g>
	<g>
		<path class="st0" d="M167.7,32.8c-0.2-0.3-0.5-0.5-0.8-0.8l-0.2-0.2l-0.2-0.2l-0.4-0.3c-0.3-0.2-0.6-0.5-1-0.7
			c-0.3-0.2-0.7-0.4-1-0.6c-0.3-0.1-0.6-0.3-0.9-0.4c-0.1,0-0.1,0.1-0.2,0.1c0.4,0.1,0.7,0.3,1.1,0.4c0.4,0.2,0.7,0.4,1,0.5
			c0.3,0.2,0.7,0.4,1,0.7l0.4,0.3l0.2,0.2l0.2,0.2C167.2,32.3,167.4,32.6,167.7,32.8c0.2,0.2,0.4,0.5,0.7,0.8
			C168.1,33.3,167.9,33.1,167.7,32.8z"/>
	</g>
	<g>
		<path class="st0" d="M3.7,92.5c-0.6,0-1.1,0.3-1.5,0.8c-0.4,0.5-0.7,1.3-0.7,2.4c0,1.5,1,2.9,2.9,4.3h-2C0.8,98.5,0,97.1,0,95.7
			c0-2.4,0.7-4.2,2.3-5.5C3.8,89,5.7,88.4,8,88.4v1.2c-0.7,0-1.6,0.2-2.8,0.5S2.9,91,2,92c0.6-0.4,1.1-0.6,1.6-0.6
			c0.9,0,1.6,0.5,2.3,1.5c0.5-1,1.3-1.5,2.3-1.5c0.7,0,1.4,0.2,1.9,0.6c0.5,0.4,1,0.9,1.2,1.6c0.3,0.7,0.4,1.4,0.4,2.2
			c0,1.4-0.8,2.8-2.3,4.3h-2c1.9-1.4,2.8-2.8,2.8-4.3c0-1.1-0.2-1.9-0.7-2.4c-0.4-0.5-1-0.8-1.5-0.8c-1,0-1.5,0.7-1.5,2v2H5.1v-2
			C5.1,93.2,4.6,92.5,3.7,92.5z"/>
		<path class="st0" d="M21.1,98.9c0,1.3-0.1,2.2-0.4,2.7c-0.3,0.5-0.7,1-1.3,1.3c-0.6,0.3-1.2,0.5-1.9,0.5c-0.7,0-1.3-0.2-1.9-0.5
			c-0.6-0.3-1-0.8-1.3-1.3c-0.3-0.5-0.4-1.2-0.4-1.9c0-0.5,0.2-1.1,0.7-1.9h1.4c-0.5,0.8-0.7,1.6-0.7,2.4c0,0.6,0.2,1.1,0.7,1.5
			c0.5,0.4,0.9,0.6,1.4,0.6c0.5,0,0.9-0.1,1.3-0.4c0.4-0.3,0.6-0.6,0.7-1c0.1-0.4,0.1-1,0.1-2v-4.6c0-0.5-0.2-0.9-0.7-1.3
			c-0.4-0.3-0.9-0.5-1.3-0.5c-0.6,0-1,0.2-1.4,0.5c-0.4,0.4-0.5,0.8-0.5,1.2c0,0.5,0.1,1,0.4,1.3L15,96.2c-0.4-0.7-0.6-1.3-0.6-1.9
			c0-0.8,0.3-1.5,1-2.1c0.7-0.6,1.4-0.9,2.4-0.9c1,0,1.8,0.3,2.4,0.9c0.6,0.6,0.9,1.3,0.9,2V98.9z"/>
		<path class="st0" d="M31.8,99.2c0,1.2-0.4,2.2-1.2,3s-1.8,1.2-3,1.2c-1.2,0-2.2-0.4-3-1.3c-0.8-0.8-1.2-1.8-1.2-3
			c0-0.9,0.4-1.8,1.2-2.7c0.8-0.9,1.8-1.3,3-1.3c0.4,0,0.7,0,0.9,0.1c0.3-0.4,0.4-0.9,0.4-1.4c0-0.4-0.1-0.8-0.4-1
			c-0.3-0.3-0.6-0.4-1-0.4c-0.6,0-1,0.1-1.3,0.3c-0.3,0.2-0.4,0.5-0.4,0.8c0,0.3,0,0.5,0.1,0.6l-1.3,0.2c-0.1-0.2-0.2-0.5-0.2-0.8
			c0-0.7,0.3-1.2,0.9-1.6s1.3-0.6,2.2-0.6c0.7,0,1.3,0.2,1.9,0.7s0.9,1,0.9,1.8c0,0.9-0.2,1.6-0.6,2C31.1,96.6,31.8,97.8,31.8,99.2z
			 M30.3,99.2c0-0.6-0.2-1.2-0.7-1.8s-1.2-0.9-2-1c-0.7,0-1.4,0.3-1.9,0.9c-0.5,0.6-0.8,1.2-0.8,1.9c0,1,0.3,1.8,0.9,2.3
			c0.6,0.5,1.2,0.8,1.9,0.8c0.7,0,1.3-0.3,1.9-0.8S30.3,100.1,30.3,99.2z"/>
		<path class="st0" d="M38.3,100c1-1.7,1.6-3.2,1.6-4.5c0-0.9-0.2-1.6-0.7-2.2s-1-0.8-1.5-0.8c-0.6,0-1.1,0.3-1.5,0.8
			s-0.7,1.3-0.7,2.2c0,1.3,0.5,2.8,1.6,4.5h-1.6c-1-1.9-1.5-3.4-1.5-4.5c0-0.6,0.1-1.3,0.4-2c0.3-0.7,0.7-1.2,1.2-1.6
			c0.5-0.4,1.2-0.6,2-0.6s1.4,0.2,2,0.6c0.5,0.4,1,0.9,1.2,1.6c0.3,0.7,0.4,1.3,0.4,2c0,1.1-0.5,2.6-1.5,4.5H38.3z"/>
		<path class="st0" d="M47.4,92.5c-0.6,0-1.1,0.3-1.5,0.8c-0.4,0.5-0.7,1.3-0.7,2.4c0,1.5,0.9,2.9,2.8,4.3h-2
			c-1.6-1.5-2.3-2.9-2.3-4.3c0-0.8,0.1-1.5,0.4-2.2c0.3-0.7,0.7-1.2,1.2-1.6c0.5-0.4,1.2-0.6,1.9-0.6c0.9,0,1.7,0.4,2.3,1.2
			c0.5-0.8,1.3-1.2,2.3-1.2c0.7,0,1.4,0.2,1.9,0.6c0.5,0.4,1,0.9,1.2,1.6c0.3,0.7,0.4,1.4,0.4,2.2c0,1.4-0.8,2.8-2.3,4.3h-1.9
			c1.8-1.4,2.8-2.8,2.8-4.3c0-1.1-0.2-1.9-0.7-2.4c-0.4-0.5-1-0.8-1.5-0.8c-1,0-1.5,0.7-1.5,2v2h-1.5v-2
			C48.8,93.2,48.4,92.5,47.4,92.5z"/>
		<path class="st0" d="M61.8,100.2c-0.6,0-1.3-0.2-1.9-0.5s-1-0.8-1.3-1.5c-0.3-0.6-0.5-1.4-0.5-2.2v-0.2V91c0-0.9,0.3-1.5,0.8-1.9
			s1.3-0.6,2.4-0.6h3.3v1.2h-3.6c-0.6,0-0.9,0.1-1.1,0.3c-0.2,0.2-0.3,0.5-0.3,1.1v2.1c0.7-0.8,1.5-1.1,2.3-1.1c0.8,0,1.4,0.2,2,0.5
			c0.5,0.3,1,0.8,1.2,1.5c0.3,0.6,0.4,1.3,0.4,2.1c0,0.8-0.2,1.5-0.5,2.2c-0.3,0.6-0.8,1.1-1.3,1.5C63,100,62.4,100.2,61.8,100.2z
			 M61.8,99c0.6,0,1.1-0.2,1.5-0.7c0.5-0.5,0.7-1.2,0.7-2.2c0-1-0.2-1.7-0.7-2.2c-0.4-0.5-1-0.7-1.5-0.7s-1.1,0.2-1.6,0.7
			c-0.5,0.5-0.7,1.2-0.7,2.2c0,1,0.2,1.8,0.7,2.2C60.7,98.8,61.2,99,61.8,99z"/>
		<path class="st0" d="M74.7,101.6c-0.3,0.5-0.7,1-1.3,1.3c-0.6,0.3-1.2,0.5-2,0.5c-0.8,0-1.4-0.2-2-0.5c-0.6-0.3-1-0.8-1.3-1.3
			c-0.3-0.5-0.4-1.2-0.4-1.9c0-0.5,0.2-1.1,0.7-1.9H70c-0.5,0.8-0.8,1.6-0.8,2.4c0,0.6,0.2,1.1,0.7,1.5s1,0.6,1.5,0.6
			c0.5,0,1-0.1,1.4-0.4c0.4-0.3,0.6-0.6,0.7-1c0.1-0.4,0.1-1,0.1-2v-5.4c0-0.3-0.1-0.5-0.3-0.7c-0.2-0.2-0.5-0.3-0.7-0.3
			s-0.5,0.1-0.7,0.2c-0.2,0.2-0.3,0.4-0.3,0.6v2.3h-1.4v-2.3c0-0.2-0.1-0.4-0.2-0.6c-0.2-0.1-0.3-0.2-0.5-0.2h-0.8
			c-0.5,0-1-0.1-1.4-0.4l0.4-1c0.3,0.2,0.6,0.3,0.9,0.3h0.8c0.7,0,1.2,0.3,1.5,0.8c0.4-0.6,1-0.9,1.6-0.9c0.6,0,1.2,0.2,1.7,0.6
			s0.7,0.9,0.7,1.4v5.4C75.1,100.2,75,101.1,74.7,101.6z"/>
		<path class="st0" d="M78.6,100.5c0.6-0.1,1.3-0.2,2-0.2c-2-1.3-3-2.9-3-4.9c0-0.7,0.1-1.4,0.4-2c0.3-0.6,0.7-1.1,1.2-1.5
			c0.5-0.4,1.2-0.6,1.8-0.6c0.9,0,1.7,0.4,2.2,1.2c0.5-0.9,1.2-1.3,2.1-1.3c0.9,0,1.6,0.4,2.1,1.3c0.4-0.8,1.2-1.2,2.2-1.2
			c0.7,0,1.3,0.2,1.8,0.6c0.5,0.4,1,0.9,1.2,1.4c0.3,0.6,0.4,1.3,0.4,2c0,1.2-0.6,2.4-1.8,3.8h-2.1c1.6-1.2,2.4-2.5,2.4-3.8
			c0-1-0.2-1.8-0.7-2.2c-0.4-0.5-0.9-0.7-1.4-0.7c-1,0-1.5,0.7-1.5,2v2.2h-1.5v-2.2c0-1.4-0.5-2.1-1.4-2.1c-0.9,0-1.4,0.7-1.4,2.1
			v2.2h-1.5v-2.2c0-1.4-0.5-2-1.4-2c-0.5,0-0.9,0.2-1.4,0.7c-0.4,0.5-0.7,1.2-0.7,2.2c0,1.9,1.2,3.4,3.7,4.6c2,0.1,3.7,0.5,4.9,1.1
			c1.2,0.7,1.9,1.4,2,2.1h-1.9c0-0.6-0.5-1-1.5-1.4c-0.9-0.4-2-0.6-3.1-0.6c-1.5,0-3,0.2-4.6,0.5V100.5z"/>
		<path class="st0" d="M99.9,100c1-1.7,1.6-3.2,1.6-4.5c0-0.9-0.2-1.6-0.7-2.2s-1-0.8-1.5-0.8c-0.6,0-1.1,0.3-1.5,0.8
			S97,94.5,97,95.5c0,1.3,0.5,2.8,1.6,4.5H97c-1-1.9-1.5-3.4-1.5-4.5c0-0.6,0.1-1.3,0.4-2c0.3-0.7,0.7-1.2,1.2-1.6
			c0.5-0.4,1.2-0.6,2-0.6s1.4,0.2,2,0.6c0.5,0.4,1,0.9,1.2,1.6c0.3,0.7,0.4,1.3,0.4,2c0,1.1-0.5,2.6-1.5,4.5H99.9z"/>
		<path class="st0" d="M118.8,99.2c0,1.2-0.4,2.2-1.2,3s-1.8,1.2-3,1.2c-1.2,0-2.2-0.4-3-1.3c-0.8-0.8-1.2-1.8-1.2-3
			c0-0.9,0.4-1.8,1.2-2.7c0.8-0.9,1.8-1.3,3-1.3c0.4,0,0.7,0,0.9,0.1c0.3-0.4,0.4-0.9,0.4-1.4c0-0.4-0.1-0.8-0.4-1
			c-0.3-0.3-0.6-0.4-1-0.4c-0.6,0-1,0.1-1.3,0.3c-0.3,0.2-0.4,0.5-0.4,0.8c0,0.3,0,0.5,0.1,0.6l-1.3,0.2c-0.1-0.2-0.2-0.5-0.2-0.8
			c0-0.7,0.3-1.2,0.9-1.6s1.3-0.6,2.2-0.6c0.7,0,1.3,0.2,1.9,0.7s0.9,1,0.9,1.8c0,0.9-0.2,1.6-0.6,2
			C118.1,96.6,118.8,97.8,118.8,99.2z M117.4,99.2c0-0.6-0.2-1.2-0.7-1.8s-1.2-0.9-2-1c-0.7,0-1.4,0.3-1.9,0.9
			c-0.5,0.6-0.8,1.2-0.8,1.9c0,1,0.3,1.8,0.9,2.3c0.6,0.5,1.2,0.8,1.9,0.8c0.7,0,1.3-0.3,1.9-0.8S117.4,100.1,117.4,99.2z"/>
		<path class="st0" d="M128.4,96.5c0,0.9-0.3,1.7-1,2.5c-0.7,0.8-1.6,1.1-2.7,1.1c-1,0-1.9-0.4-2.6-1.1s-1-1.7-1-2.7
			c0-0.8,0.3-1.6,0.8-2.4l1.3,0.6c-0.4,0.8-0.6,1.4-0.6,1.8c0,1,0.2,1.7,0.7,2.1c0.5,0.4,1,0.6,1.5,0.6c0.5,0,1-0.2,1.4-0.5
			s0.7-1,0.8-2c0-1.3-0.6-2.3-1.8-3.1c-1.2-0.8-1.8-1.8-1.8-2.9h1.4c0,0.9,0.6,1.7,1.8,2.6C127.8,93.9,128.4,95.1,128.4,96.5z"/>
		<path class="st0" d="M134.7,100.2c-0.6,0-1.3-0.2-1.9-0.5s-1-0.8-1.3-1.5c-0.3-0.6-0.5-1.4-0.5-2.2v-0.2V91c0-0.9,0.3-1.5,0.8-1.9
			s1.3-0.6,2.4-0.6h3.3v1.2h-3.6c-0.6,0-0.9,0.1-1.1,0.3c-0.2,0.2-0.3,0.5-0.3,1.1v2.1c0.7-0.8,1.5-1.1,2.3-1.1c0.8,0,1.4,0.2,2,0.5
			c0.5,0.3,1,0.8,1.2,1.5c0.3,0.6,0.4,1.3,0.4,2.1c0,0.8-0.2,1.5-0.5,2.2c-0.3,0.6-0.8,1.1-1.3,1.5C136,100,135.3,100.2,134.7,100.2
			z M134.7,99c0.6,0,1.1-0.2,1.5-0.7c0.5-0.5,0.7-1.2,0.7-2.2c0-1-0.2-1.7-0.7-2.2c-0.4-0.5-1-0.7-1.5-0.7s-1.1,0.2-1.6,0.7
			c-0.5,0.5-0.7,1.2-0.7,2.2c0,1,0.2,1.8,0.7,2.2C133.6,98.8,134.1,99,134.7,99z"/>
		<path class="st0" d="M147.8,94.3c0,1.1-0.5,2-1.6,2.6c1.2,0.7,1.8,1.7,1.8,2.9c0,0.8-0.1,1.4-0.4,1.9c-0.3,0.5-0.7,0.9-1.3,1.2
			c-0.6,0.3-1.2,0.5-2,0.5c-0.8,0-1.4-0.2-2-0.5c-0.6-0.3-1-0.8-1.3-1.3c-0.3-0.5-0.4-1.2-0.4-1.9c0-0.5,0.2-1.1,0.5-1.9h1.6
			c-0.5,0.8-0.7,1.6-0.7,2.4c0,0.6,0.2,1.1,0.7,1.5s1,0.6,1.5,0.6c0.5,0,1.1-0.2,1.5-0.6c0.5-0.4,0.7-0.8,0.7-1.4v-0.6
			c0-0.7-0.2-1.2-0.5-1.6c-0.4-0.4-0.8-0.6-1.5-0.6H144v-1.2h0.5c0.6,0,1-0.2,1.4-0.6c0.3-0.4,0.5-0.9,0.5-1.4
			c0-0.5-0.2-0.9-0.5-1.3c-0.4-0.3-0.8-0.5-1.3-0.5c-0.6,0-1.1,0.2-1.4,0.6s-0.5,0.8-0.5,1.2c0,0.4,0.1,0.7,0.2,1l-1.4,0.5
			c-0.2-0.5-0.3-1-0.3-1.5c0-0.8,0.3-1.5,1-2s1.5-0.8,2.4-0.8c1,0,1.8,0.3,2.4,0.9C147.4,92.8,147.8,93.5,147.8,94.3z"/>
		<path class="st0" d="M154.7,100c1-1.7,1.6-3.2,1.6-4.5c0-0.9-0.2-1.6-0.7-2.2s-1-0.8-1.5-0.8c-0.6,0-1.1,0.3-1.5,0.8
			s-0.7,1.3-0.7,2.2c0,1.3,0.5,2.8,1.6,4.5h-1.6c-1-1.9-1.5-3.4-1.5-4.5c0-0.6,0.1-1.3,0.4-2c0.3-0.7,0.7-1.2,1.2-1.6
			c0.5-0.4,1.2-0.6,2-0.6s1.4,0.2,2,0.6c0.5,0.4,1,0.9,1.2,1.6c0.3,0.7,0.4,1.3,0.4,2c0,1.1-0.5,2.6-1.5,4.5H154.7z"/>
		<path class="st0" d="M168.1,100c1.5-1.5,2.3-3,2.3-4.5c0-0.9-0.2-1.6-0.7-2.2s-1-0.8-1.5-0.8c-0.6,0-1.1,0.2-1.4,0.7
			c0.4,0.8,0.6,1.7,0.6,2.6c0,0.9-0.2,1.6-0.5,2.3s-0.8,1.2-1.3,1.6s-1.2,0.6-1.8,0.6c-0.6,0-1.3-0.2-1.8-0.6s-1-0.9-1.3-1.6
			s-0.5-1.5-0.5-2.3c0-0.8,0.1-1.5,0.4-2.2c0.3-0.7,0.7-1.2,1.2-1.6c0.5-0.4,1.2-0.6,2-0.6c0.9,0,1.6,0.2,2.2,0.7
			c0.6-0.5,1.4-0.7,2.3-0.7c0.8,0,1.4,0.2,2,0.6c0.5,0.4,1,0.9,1.2,1.6c0.3,0.7,0.4,1.3,0.4,2c0,1.6-0.6,3.1-1.8,4.5H168.1z
			 M163.8,99c0.6,0,1.1-0.3,1.5-0.8c0.5-0.5,0.7-1.4,0.7-2.5c0-1.1-0.2-1.9-0.7-2.4s-1-0.8-1.5-0.8c-0.6,0-1.1,0.3-1.5,0.8
			s-0.7,1.3-0.7,2.4c0,1.1,0.2,2,0.7,2.5C162.7,98.7,163.2,99,163.8,99z"/>
		<path class="st0" d="M181.6,96.5c0,0.9-0.3,1.7-1,2.5s-1.6,1.1-2.7,1.1c-1,0-1.9-0.4-2.6-1.1s-1-1.7-1-2.7c0-0.8,0.3-1.6,0.8-2.4
			l1.3,0.6c-0.4,0.8-0.6,1.4-0.6,1.8c0,1,0.2,1.7,0.7,2.1c0.5,0.4,1,0.6,1.5,0.6c0.5,0,1-0.2,1.4-0.5s0.7-1,0.8-2
			c0-1.3-0.6-2.3-1.8-3.1c-1.2-0.8-1.8-1.8-1.8-2.9h1.4c0,0.9,0.6,1.7,1.8,2.6C181,93.9,181.6,95.1,181.6,96.5z"/>
		<path class="st0" d="M187.7,92.5c-0.6,0-1.1,0.3-1.5,0.8c-0.4,0.5-0.7,1.3-0.7,2.4c0,1.5,1,2.9,2.9,4.3h-2
			c-1.6-1.5-2.3-2.9-2.3-4.3c0-2.4,0.7-4.2,2.3-5.5c1.5-1.3,3.4-1.9,5.7-1.9v1.2c-0.7,0-1.6,0.2-2.8,0.5c-1.2,0.3-2.2,1-3.1,1.9
			c0.6-0.4,1.1-0.6,1.6-0.6c0.9,0,1.6,0.5,2.3,1.5c0.5-1,1.3-1.5,2.3-1.5c0.7,0,1.4,0.2,1.9,0.6c0.5,0.4,1,0.9,1.2,1.6
			c0.3,0.7,0.4,1.4,0.4,2.2c0,1.4-0.8,2.8-2.3,4.3h-2c1.9-1.4,2.8-2.8,2.8-4.3c0-1.1-0.2-1.9-0.7-2.4c-0.4-0.5-1-0.8-1.5-0.8
			c-1,0-1.5,0.7-1.5,2v2h-1.5v-2C189.1,93.2,188.6,92.5,187.7,92.5z"/>
		<path class="st0" d="M205.1,98.9c0,1.3-0.1,2.2-0.4,2.7c-0.3,0.5-0.7,1-1.3,1.3c-0.6,0.3-1.2,0.5-1.9,0.5c-0.7,0-1.3-0.2-1.9-0.5
			c-0.6-0.3-1-0.8-1.3-1.3c-0.3-0.5-0.4-1.2-0.4-1.9c0-0.5,0.2-1.1,0.7-1.9h1.4c-0.5,0.8-0.7,1.6-0.7,2.4c0,0.6,0.2,1.1,0.7,1.5
			s0.9,0.6,1.4,0.6c0.5,0,0.9-0.1,1.3-0.4c0.4-0.3,0.6-0.6,0.7-1c0.1-0.4,0.1-1,0.1-2v-4.6c0-0.5-0.2-0.9-0.7-1.3
			c-0.4-0.3-0.9-0.5-1.3-0.5c-0.6,0-1,0.2-1.4,0.5s-0.5,0.8-0.5,1.2c0,0.5,0.1,1,0.4,1.3l-1.2,0.6c-0.4-0.7-0.6-1.3-0.6-1.9
			c0-0.8,0.3-1.5,1-2.1c0.7-0.6,1.4-0.9,2.4-0.9c1,0,1.8,0.3,2.4,0.9c0.6,0.6,0.9,1.3,0.9,2V98.9z"/>
		<path class="st0" d="M211.2,100.2c-0.6,0-1.3-0.2-1.9-0.5c-0.6-0.3-1-0.8-1.3-1.5c-0.3-0.6-0.5-1.4-0.5-2.2c0-0.8,0.1-1.4,0.4-2.1
			s0.7-1.1,1.2-1.4s1-0.5,1.6-0.6l0.1-0.8c0.1-0.5-0.2-0.9-0.8-1.2s-0.9-0.8-0.9-1.6h1.5c0,0.4,0.2,0.8,0.8,1s0.8,0.8,0.7,1.6
			l-0.2,1c0.5,0.1,1,0.3,1.4,0.5c0.5,0.3,0.8,0.7,1.1,1.4s0.4,1.3,0.4,2.1c0,0.8-0.2,1.5-0.5,2.2c-0.3,0.6-0.8,1.1-1.3,1.5
			S211.9,100.2,211.2,100.2z M211.2,99c0.6,0,1.1-0.2,1.5-0.7c0.5-0.5,0.7-1.2,0.7-2.2c0-1-0.2-1.7-0.7-2.2c-0.4-0.5-1-0.7-1.5-0.7
			s-1.1,0.2-1.5,0.7c-0.4,0.5-0.7,1.2-0.7,2.2c0,1,0.2,1.8,0.7,2.2C210.2,98.8,210.7,99,211.2,99z"/>
		<path class="st0" d="M221.6,100c1-1.7,1.6-3.2,1.6-4.5c0-0.9-0.2-1.6-0.7-2.2c-0.4-0.5-1-0.8-1.5-0.8c-0.6,0-1.1,0.3-1.5,0.8
			s-0.7,1.3-0.7,2.2c0,1.3,0.5,2.8,1.6,4.5h-1.6c-1-1.9-1.5-3.4-1.5-4.5c0-0.6,0.1-1.3,0.4-2c0.3-0.7,0.7-1.2,1.2-1.6s1.2-0.6,2-0.6
			c0.8,0,1.4,0.2,2,0.6s1,0.9,1.2,1.6s0.4,1.3,0.4,2c0,1.1-0.5,2.6-1.5,4.5H221.6z"/>
		<path class="st0" d="M232.7,91c0,1.2,0.3,2,0.9,2.5c0.6,0.5,0.9,1.2,0.9,2.2c0,0.9-0.2,1.6-0.5,2.3c-0.3,0.7-0.8,1.2-1.3,1.6
			c-0.6,0.4-1.2,0.6-1.8,0.6c-0.6,0-1.3-0.2-1.8-0.6s-1-0.9-1.3-1.6c-0.3-0.7-0.5-1.5-0.5-2.3v-7.3h1.4v7.3c0,1.1,0.2,2,0.7,2.5
			c0.5,0.5,1,0.8,1.6,0.8c0.6,0,1.1-0.3,1.5-0.8c0.5-0.5,0.7-1.4,0.7-2.5c0-0.8-0.3-1.4-0.9-2c-0.6-0.6-0.9-1.5-0.9-2.7H232.7z"/>
		<path class="st0" d="M247.9,91c0,1.2,0.3,2,0.9,2.5c0.6,0.5,0.9,1.2,0.9,2.2c0,0.9-0.2,1.6-0.5,2.3c-0.3,0.7-0.8,1.2-1.3,1.6
			c-0.6,0.4-1.2,0.6-1.8,0.6c-0.6,0-1.3-0.2-1.8-0.6s-1-0.9-1.3-1.6c-0.3-0.7-0.5-1.5-0.5-2.3v-7.3h1.4v7.3c0,1.1,0.2,2,0.7,2.5
			c0.5,0.5,1,0.8,1.6,0.8c0.6,0,1.1-0.3,1.5-0.8c0.5-0.5,0.7-1.4,0.7-2.5c0-0.8-0.3-1.4-0.9-2c-0.6-0.6-0.9-1.5-0.9-2.7H247.9z"/>
		<path class="st0" d="M259.5,96.5c0,0.9-0.3,1.7-1,2.5s-1.6,1.1-2.7,1.1c-1,0-1.9-0.4-2.6-1.1s-1-1.7-1-2.7c0-0.8,0.3-1.6,0.8-2.4
			l1.3,0.6c-0.4,0.8-0.6,1.4-0.6,1.8c0,1,0.2,1.7,0.7,2.1c0.5,0.4,1,0.6,1.5,0.6c0.5,0,1-0.2,1.4-0.5s0.7-1,0.8-2
			c0-1.3-0.6-2.3-1.8-3.1c-1.2-0.8-1.8-1.8-1.8-2.9h1.4c0,0.9,0.6,1.7,1.8,2.6C258.9,93.9,259.5,95.1,259.5,96.5z"/>
		<path class="st0" d="M265.6,100.2c-0.6,0-1.3-0.2-1.9-0.5c-0.6-0.3-1-0.8-1.3-1.5c-0.3-0.6-0.5-1.4-0.5-2.2c0-0.8,0.2-1.6,0.6-2.5
			c-0.4-0.3-0.7-0.7-1-1s-0.3-0.9-0.3-1.4c0-0.4,0.1-0.9,0.3-1.3c0.2-0.4,0.5-0.8,0.9-1c0.4-0.2,0.9-0.4,1.5-0.4
			c0.6,0,1,0.1,1.4,0.4c0.4,0.2,0.7,0.6,0.9,1s0.3,0.9,0.3,1.3c0,0.3-0.1,0.7-0.2,1c0.4,0.1,0.8,0.2,1.2,0.4c0.5,0.3,1,0.8,1.2,1.5
			s0.4,1.3,0.4,2.1c0,0.8-0.2,1.5-0.5,2.2c-0.3,0.6-0.8,1.1-1.3,1.5C266.9,100,266.3,100.2,265.6,100.2z M265.4,91.2
			c0-0.5-0.2-1-0.5-1.3c-0.3-0.3-0.6-0.4-0.9-0.4c-0.4,0-0.7,0.1-1,0.4s-0.4,0.7-0.4,1.3c0,0.6,0.3,1.1,0.8,1.4
			c0.5-0.4,1-0.6,1.7-0.6C265.3,91.7,265.4,91.4,265.4,91.2z M265.6,99c0.6,0,1.1-0.2,1.5-0.7c0.5-0.5,0.7-1.2,0.7-2.2
			c0-1-0.2-1.7-0.7-2.2c-0.4-0.5-1-0.7-1.5-0.7s-1.1,0.2-1.5,0.7c-0.4,0.5-0.7,1.2-0.7,2.2c0,1,0.2,1.8,0.7,2.2
			C264.6,98.8,265.1,99,265.6,99z"/>
		<path class="st0" d="M275.3,92.5c-0.6,0-1.1,0.3-1.5,0.8c-0.4,0.5-0.7,1.3-0.7,2.4c0,1.5,0.9,2.9,2.8,4.3h-2
			c-1.6-1.5-2.3-2.9-2.3-4.3c0-0.8,0.1-1.5,0.4-2.2s0.7-1.2,1.2-1.6s1.2-0.6,1.9-0.6c0.9,0,1.7,0.4,2.3,1.2c0.5-0.8,1.3-1.2,2.3-1.2
			c0.7,0,1.4,0.2,1.9,0.6s1,0.9,1.2,1.6s0.4,1.4,0.4,2.2c0,1.4-0.8,2.8-2.3,4.3h-1.9c1.8-1.4,2.8-2.8,2.8-4.3c0-1.1-0.2-1.9-0.7-2.4
			c-0.4-0.5-1-0.8-1.5-0.8c-1,0-1.5,0.7-1.5,2v2h-1.5v-2C276.8,93.2,276.3,92.5,275.3,92.5z"/>
		<path class="st0" d="M294,99.2c0,1.2-0.4,2.2-1.2,3c-0.8,0.8-1.8,1.2-3,1.2c-1.2,0-2.2-0.4-3-1.3s-1.2-1.8-1.2-3
			c0-0.9,0.4-1.8,1.2-2.7c0.8-0.9,1.8-1.3,3-1.3c0.4,0,0.7,0,0.9,0.1c0.3-0.4,0.4-0.9,0.4-1.4c0-0.4-0.1-0.8-0.4-1s-0.6-0.4-1-0.4
			c-0.6,0-1,0.1-1.3,0.3c-0.3,0.2-0.4,0.5-0.4,0.8c0,0.3,0,0.5,0.1,0.6l-1.3,0.2c-0.1-0.2-0.2-0.5-0.2-0.8c0-0.7,0.3-1.2,0.9-1.6
			s1.3-0.6,2.2-0.6c0.7,0,1.3,0.2,1.9,0.7c0.6,0.4,0.9,1,0.9,1.8c0,0.9-0.2,1.6-0.6,2C293.3,96.6,294,97.8,294,99.2z M292.6,99.2
			c0-0.6-0.2-1.2-0.7-1.8s-1.2-0.9-2-1c-0.7,0-1.4,0.3-1.9,0.9c-0.5,0.6-0.8,1.2-0.8,1.9c0,1,0.3,1.8,0.9,2.3
			c0.6,0.5,1.2,0.8,1.9,0.8c0.7,0,1.3-0.3,1.9-0.8S292.6,100.1,292.6,99.2z"/>
		<path class="st0" d="M303.6,96.5c0,0.9-0.3,1.7-1,2.5s-1.6,1.1-2.7,1.1c-1,0-1.9-0.4-2.6-1.1s-1-1.7-1-2.7c0-0.8,0.3-1.6,0.8-2.4
			l1.3,0.6c-0.4,0.8-0.6,1.4-0.6,1.8c0,1,0.2,1.7,0.7,2.1c0.5,0.4,1,0.6,1.5,0.6c0.5,0,1-0.2,1.4-0.5s0.7-1,0.8-2
			c0-1.3-0.6-2.3-1.8-3.1c-1.2-0.8-1.8-1.8-1.8-2.9h1.4c0,0.9,0.6,1.7,1.8,2.6C303,93.9,303.6,95.1,303.6,96.5z"/>
		<path class="st0" d="M306.5,100.5c0.5-0.1,1-0.1,1.6-0.1c-1.5-1.6-2.3-3.1-2.3-4.7c0-0.8,0.1-1.5,0.4-2.2c0.3-0.7,0.7-1.2,1.2-1.6
			c0.5-0.4,1.2-0.6,2-0.6c0.8,0,1.6,0.2,2.3,0.7c0.7-0.5,1.5-0.7,2.2-0.7c0.8,0,1.4,0.2,2,0.6c0.5,0.4,1,0.9,1.2,1.6
			s0.4,1.4,0.4,2.2c0,0.9-0.2,1.6-0.5,2.3c-0.3,0.7-0.8,1.2-1.3,1.6c-0.6,0.4-1.2,0.6-1.8,0.6s-1.3-0.2-1.8-0.6
			c-0.6-0.4-1-0.9-1.3-1.6c-0.3-0.7-0.5-1.5-0.5-2.3c0-0.8,0.1-1.5,0.4-2.2L311,93c-0.6-0.3-1.1-0.5-1.5-0.5c-0.6,0-1.1,0.3-1.5,0.8
			c-0.4,0.6-0.7,1.3-0.7,2.4c0,1.5,0.8,3,2.5,4.5c1.6,0.3,2.7,0.7,3.5,1.3c0.8,0.6,1.2,1.2,1.4,1.7h-1.9c0-0.4-0.3-0.8-0.9-1.2
			c-0.6-0.4-1.4-0.6-2.4-0.6c-1,0-2,0.1-3,0.4V100.5z M314,99c0.6,0,1.1-0.3,1.5-0.8c0.5-0.5,0.7-1.4,0.7-2.5c0-1.1-0.2-1.9-0.7-2.4
			c-0.4-0.5-1-0.8-1.5-0.8s-1.1,0.3-1.5,0.8c-0.4,0.5-0.7,1.3-0.7,2.4c0,1.1,0.2,2,0.7,2.5C312.9,98.7,313.4,99,314,99z"/>
		<path class="st0" d="M323.8,92.5c-0.6,0-1.1,0.3-1.5,0.8c-0.4,0.5-0.7,1.3-0.7,2.4c0,1.5,0.9,2.9,2.8,4.3h-2
			c-1.6-1.5-2.3-2.9-2.3-4.3c0-0.8,0.1-1.5,0.4-2.2s0.7-1.2,1.2-1.6s1.2-0.6,1.9-0.6c0.9,0,1.7,0.4,2.3,1.2c0.5-0.8,1.3-1.2,2.3-1.2
			c0.7,0,1.4,0.2,1.9,0.6s1,0.9,1.2,1.6s0.4,1.4,0.4,2.2c0,1.4-0.8,2.8-2.3,4.3h-1.9c1.8-1.4,2.8-2.8,2.8-4.3c0-1.1-0.2-1.9-0.7-2.4
			c-0.4-0.5-1-0.8-1.5-0.8c-1,0-1.5,0.7-1.5,2v2h-1.5v-2C325.3,93.2,324.8,92.5,323.8,92.5z"/>
		<path class="st0" d="M341.3,98.9c0,1.3-0.1,2.2-0.4,2.7c-0.3,0.5-0.7,1-1.3,1.3c-0.6,0.3-1.2,0.5-1.9,0.5c-0.7,0-1.3-0.2-1.9-0.5
			c-0.6-0.3-1-0.8-1.3-1.3c-0.3-0.5-0.4-1.2-0.4-1.9c0-0.5,0.2-1.1,0.7-1.9h1.4c-0.5,0.8-0.7,1.6-0.7,2.4c0,0.6,0.2,1.1,0.7,1.5
			s0.9,0.6,1.4,0.6c0.5,0,0.9-0.1,1.3-0.4c0.4-0.3,0.6-0.6,0.7-1c0.1-0.4,0.1-1,0.1-2v-4.6c0-0.5-0.2-0.9-0.7-1.3
			c-0.4-0.3-0.9-0.5-1.3-0.5c-0.6,0-1,0.2-1.4,0.5s-0.5,0.8-0.5,1.2c0,0.5,0.1,1,0.4,1.3l-1.2,0.6c-0.4-0.7-0.6-1.3-0.6-1.9
			c0-0.8,0.3-1.5,1-2.1c0.7-0.6,1.4-0.9,2.4-0.9c1,0,1.8,0.3,2.4,0.9c0.6,0.6,0.9,1.3,0.9,2V98.9z"/>
		<path class="st0" d="M347.4,100.2c-0.6,0-1.3-0.2-1.9-0.5c-0.6-0.3-1-0.8-1.3-1.5c-0.3-0.6-0.5-1.4-0.5-2.2c0-0.8,0.1-1.4,0.4-2.1
			s0.7-1.1,1.2-1.4s1-0.5,1.6-0.6l0.1-0.8c0.1-0.5-0.2-0.9-0.8-1.2s-0.9-0.8-0.9-1.6h1.5c0,0.4,0.2,0.8,0.8,1s0.8,0.8,0.7,1.6
			l-0.2,1c0.5,0.1,1,0.3,1.4,0.5c0.5,0.3,0.8,0.7,1.1,1.4s0.4,1.3,0.4,2.1c0,0.8-0.2,1.5-0.5,2.2c-0.3,0.6-0.8,1.1-1.3,1.5
			S348,100.2,347.4,100.2z M347.4,99c0.6,0,1.1-0.2,1.5-0.7c0.5-0.5,0.7-1.2,0.7-2.2c0-1-0.2-1.7-0.7-2.2c-0.4-0.5-1-0.7-1.5-0.7
			s-1.1,0.2-1.5,0.7c-0.4,0.5-0.7,1.2-0.7,2.2c0,1,0.2,1.8,0.7,2.2C346.3,98.8,346.8,99,347.4,99z"/>
		<path class="st0" d="M357.7,100c1-1.7,1.6-3.2,1.6-4.5c0-0.9-0.2-1.6-0.7-2.2c-0.4-0.5-1-0.8-1.5-0.8c-0.6,0-1.1,0.3-1.5,0.8
			s-0.7,1.3-0.7,2.2c0,1.3,0.5,2.8,1.6,4.5h-1.6c-1-1.9-1.5-3.4-1.5-4.5c0-0.6,0.1-1.3,0.4-2s0.7-1.2,1.2-1.6s1.2-0.6,2-0.6
			c0.8,0,1.4,0.2,2,0.6s1,0.9,1.2,1.6s0.4,1.3,0.4,2c0,1.1-0.5,2.6-1.5,4.5H357.7z"/>
		<path class="st0" d="M368.8,91c0,1.2,0.3,2,0.9,2.5c0.6,0.5,0.9,1.2,0.9,2.2c0,0.9-0.2,1.6-0.5,2.3c-0.3,0.7-0.8,1.2-1.3,1.6
			c-0.6,0.4-1.2,0.6-1.8,0.6c-0.6,0-1.3-0.2-1.8-0.6s-1-0.9-1.3-1.6c-0.3-0.7-0.5-1.5-0.5-2.3v-7.3h1.4v7.3c0,1.1,0.2,2,0.7,2.5
			c0.5,0.5,1,0.8,1.6,0.8c0.6,0,1.1-0.3,1.5-0.8c0.5-0.5,0.7-1.4,0.7-2.5c0-0.8-0.3-1.4-0.9-2c-0.6-0.6-0.9-1.5-0.9-2.7H368.8z"/>
		<path class="st0" d="M60.7,129.9c0,0.8-0.1,1.5-0.4,2.2c-0.2,0.7-0.6,1.2-1,1.7s-0.9,0.9-1.5,1.1c-0.6,0.3-1.3,0.4-2,0.4
			c-0.7,0-1.4-0.1-2-0.3c-0.6-0.2-1.1-0.6-1.5-1c-0.4-0.5-0.8-1-1-1.7s-0.4-1.5-0.4-2.5v-12.7h1.7v12.7c0,0.8,0.1,1.4,0.2,1.9
			c0.2,0.5,0.4,0.9,0.7,1.3c0.3,0.3,0.6,0.6,1,0.7c0.4,0.1,0.8,0.2,1.3,0.2c0.5,0,1-0.1,1.4-0.3s0.7-0.5,1-0.8
			c0.3-0.4,0.5-0.8,0.6-1.3c0.1-0.5,0.2-1.1,0.2-1.7v-0.7c0-0.4-0.1-0.8-0.2-1.2c-0.1-0.4-0.3-0.7-0.5-1.1s-0.4-0.7-0.7-1
			c-0.2-0.3-0.5-0.6-0.7-0.9c-0.2-0.3-0.4-0.6-0.5-0.9s-0.2-0.6-0.2-0.9c0-0.3,0-0.7,0.1-1c0.1-0.3,0.2-0.6,0.5-1l1.7,0.5
			c-0.1,0.2-0.2,0.3-0.3,0.4c-0.1,0.1-0.2,0.2-0.2,0.3c-0.1,0.1-0.1,0.2-0.1,0.3c0,0.1,0,0.3,0,0.4c0,0.3,0.1,0.6,0.2,0.9
			c0.1,0.3,0.3,0.6,0.6,0.8c0.2,0.3,0.5,0.6,0.7,0.8c0.3,0.3,0.5,0.6,0.7,0.9c0.2,0.3,0.4,0.7,0.6,1c0.1,0.4,0.2,0.8,0.2,1.2V129.9z
			"/>
		<path class="st0" d="M75.2,130.1c0,3.5-1.6,5.3-4.9,5.3c-0.8,0-1.5-0.1-2.1-0.4c-0.6-0.3-1.1-0.6-1.5-1.1c-0.4-0.5-0.7-1-0.9-1.6
			s-0.3-1.3-0.3-2v-0.8c0-0.5,0.1-1,0.4-1.5s0.5-1,0.9-1.5l1.1,0.6c-0.1,0.2-0.2,0.4-0.3,0.7c-0.1,0.2-0.2,0.5-0.2,0.7
			s-0.1,0.4-0.1,0.6c0,0.2,0,0.4,0,0.5v0.9c0,0.6,0.1,1.1,0.2,1.5c0.1,0.4,0.3,0.8,0.5,1.1c0.2,0.3,0.6,0.5,1,0.7s0.9,0.2,1.5,0.2
			c0.6,0,1-0.1,1.4-0.2s0.7-0.4,1-0.7c0.3-0.3,0.5-0.7,0.6-1.2c0.1-0.5,0.2-1.1,0.2-1.8v-1.3c0-0.6-0.1-1.1-0.2-1.6
			c-0.2-0.5-0.3-0.9-0.6-1.3c-0.2-0.4-0.5-0.8-0.8-1.1c-0.3-0.4-0.6-0.7-1-1.1c-0.3-0.3-0.6-0.7-1-1.1s-0.6-0.7-0.8-1.1
			c-0.2-0.4-0.4-0.8-0.6-1.3c-0.2-0.5-0.2-1-0.2-1.5v-1.4h1.5v1.4c0,0.6,0.1,1.2,0.4,1.7c0.3,0.5,0.6,1,1,1.5c0.4,0.5,0.8,1,1.3,1.4
			s0.9,1,1.3,1.5c0.4,0.5,0.7,1.1,1,1.8c0.3,0.6,0.4,1.4,0.4,2.2V130.1z"/>
		<path class="st0" d="M90,129.9c0,0.8-0.1,1.5-0.4,2.2c-0.2,0.7-0.6,1.2-1,1.7s-0.9,0.9-1.5,1.1c-0.6,0.3-1.3,0.4-2,0.4
			c-0.7,0-1.4-0.1-2-0.3c-0.6-0.2-1.1-0.6-1.5-1c-0.4-0.5-0.8-1-1-1.7s-0.4-1.5-0.4-2.5v-12.7h1.7v12.7c0,0.8,0.1,1.4,0.2,1.9
			c0.2,0.5,0.4,0.9,0.7,1.3c0.3,0.3,0.6,0.6,1,0.7c0.4,0.1,0.8,0.2,1.3,0.2c0.5,0,1-0.1,1.4-0.3s0.7-0.5,1-0.8
			c0.3-0.4,0.5-0.8,0.6-1.3c0.1-0.5,0.2-1.1,0.2-1.7v-0.7c0-0.4-0.1-0.8-0.2-1.2c-0.1-0.4-0.3-0.7-0.5-1.1s-0.4-0.7-0.7-1
			c-0.2-0.3-0.5-0.6-0.7-0.9c-0.2-0.3-0.4-0.6-0.5-0.9s-0.2-0.6-0.2-0.9c0-0.3,0-0.7,0.1-1c0.1-0.3,0.2-0.6,0.5-1l1.7,0.5
			c-0.1,0.2-0.2,0.3-0.3,0.4c-0.1,0.1-0.2,0.2-0.2,0.3c-0.1,0.1-0.1,0.2-0.1,0.3c0,0.1,0,0.3,0,0.4c0,0.3,0.1,0.6,0.2,0.9
			c0.1,0.3,0.3,0.6,0.6,0.8c0.2,0.3,0.5,0.6,0.7,0.8c0.3,0.3,0.5,0.6,0.7,0.9c0.2,0.3,0.4,0.7,0.6,1c0.1,0.4,0.2,0.8,0.2,1.2V129.9z
			"/>
		<path class="st0" d="M107.7,129c0,0.6-0.1,1.2-0.3,1.7c-0.2,0.6-0.4,1.1-0.7,1.5s-0.7,0.9-1.1,1.3c-0.4,0.4-0.9,0.7-1.4,1
			s-1,0.5-1.5,0.6s-1.1,0.2-1.6,0.2c-0.8,0-1.6-0.2-2.4-0.5c-0.8-0.3-1.5-0.8-2.1-1.3c-0.6-0.6-1.1-1.2-1.5-2
			c-0.4-0.8-0.6-1.6-0.6-2.6v-3.5c0-1,0.2-1.8,0.5-2.6s0.8-1.5,1.4-2.1c0.6-0.6,1.2-1.1,1.9-1.5c0.7-0.4,1.5-0.6,2.2-0.7l-0.8-1.5
			h2.4l-0.6,1.5c0.8,0.1,1.5,0.3,2.2,0.6c0.7,0.4,1.4,0.8,1.9,1.4c0.6,0.6,1,1.3,1.4,2.1s0.5,1.7,0.5,2.7V129z M106,125.5
			c0-0.9-0.1-1.7-0.3-2.3s-0.5-1.2-0.9-1.7c-0.4-0.5-0.8-0.8-1.4-1c-0.5-0.2-1.1-0.4-1.8-0.4l0.4,7.8h-1.8l0.4-7.8
			c-0.6,0.1-1.2,0.2-1.7,0.5c-0.5,0.2-1,0.6-1.4,1c-0.4,0.4-0.7,1-0.9,1.7c-0.2,0.7-0.3,1.4-0.3,2.3v3.5c0,0.6,0.1,1.2,0.3,1.8
			s0.6,1.1,1,1.6c0.4,0.5,0.9,0.8,1.5,1.1s1.3,0.4,2,0.4c0.7,0,1.4-0.1,2-0.4c0.6-0.3,1.1-0.6,1.5-1.1c0.4-0.5,0.8-1,1-1.6
			c0.2-0.6,0.4-1.2,0.4-1.9V125.5z"/>
		<path class="st0" d="M121.9,128.1c0,0.8-0.1,1.6-0.2,2.4c-0.1,0.8-0.3,1.5-0.6,2.2s-0.6,1.2-1.1,1.7c-0.5,0.5-1,0.8-1.7,1
			l-0.1-1.4c0.3,0,0.6-0.1,0.8-0.4s0.5-0.6,0.7-1.1c0.2-0.5,0.3-1.1,0.5-1.8c0.1-0.7,0.2-1.5,0.2-2.4v-4.4c0-0.8,0-1.5-0.1-2.2
			c-0.1-0.6-0.3-1.2-0.5-1.6c-0.2-0.4-0.6-0.8-1-1c-0.4-0.2-0.9-0.4-1.5-0.4c-0.7,0-1.2,0.1-1.7,0.4c-0.4,0.2-0.8,0.6-1,1
			c-0.2,0.5-0.4,1-0.5,1.7c-0.1,0.7-0.1,1.4-0.1,2.2v4.3c0,0.9,0,1.7,0.1,2.4c0.1,0.7,0.2,1.3,0.3,1.8s0.3,0.9,0.5,1.1
			c0.2,0.3,0.4,0.4,0.7,0.4l0,1.4c-0.5-0.1-0.9-0.3-1.2-0.5s-0.6-0.6-0.9-0.9c-0.2-0.4-0.4-0.8-0.6-1.2c-0.2-0.5-0.3-0.9-0.4-1.4
			c-0.1-0.5-0.1-1-0.2-1.5c0-0.5-0.1-1-0.1-1.5v-4.3c0-0.5,0-1.1,0.1-1.6s0.2-1.1,0.3-1.6c0.1-0.5,0.3-1,0.6-1.4
			c0.2-0.4,0.5-0.8,0.9-1.2s0.8-0.6,1.3-0.8s1.1-0.3,1.8-0.3c0.7,0,1.3,0.1,1.8,0.2c0.5,0.2,0.9,0.4,1.3,0.7
			c0.4,0.3,0.7,0.6,0.9,1.1c0.2,0.4,0.4,0.9,0.5,1.4c0.1,0.5,0.2,1,0.3,1.6c0.1,0.6,0.1,1.1,0.1,1.7L121.9,128.1z"/>
		<path class="st0" d="M136.8,130c0,0.8-0.1,1.5-0.4,2.2c-0.2,0.7-0.6,1.2-1,1.7c-0.4,0.5-0.9,0.8-1.5,1.1s-1.3,0.4-2,0.4
			c-0.7,0-1.3-0.1-1.9-0.4c-0.6-0.2-1.1-0.6-1.5-1c-0.4-0.4-0.8-0.9-1-1.4c-0.2-0.5-0.4-1.1-0.4-1.6v-1c0-0.3,0-0.5,0.1-0.8
			c0.1-0.3,0.1-0.5,0.2-0.8s0.2-0.5,0.3-0.7s0.2-0.4,0.3-0.5l1.3,0.9c-0.1,0.2-0.3,0.4-0.3,0.5c-0.1,0.2-0.1,0.3-0.2,0.5
			c0,0.2-0.1,0.3-0.1,0.5c0,0.2,0,0.4,0,0.6v0.4c0,0.4,0.1,0.9,0.2,1.3c0.2,0.4,0.4,0.8,0.7,1.1c0.3,0.3,0.6,0.6,1,0.7
			c0.4,0.2,0.8,0.3,1.3,0.3c0.6,0,1.1-0.1,1.5-0.3c0.4-0.2,0.7-0.4,1-0.8c0.3-0.3,0.5-0.8,0.6-1.3c0.1-0.5,0.2-1.1,0.2-1.7v-1.4
			c0-0.4-0.1-0.7-0.2-1.1c-0.1-0.3-0.3-0.7-0.5-0.9c-0.2-0.3-0.5-0.5-0.8-0.7c-0.3-0.2-0.6-0.3-1-0.3h-1.8v-1.4h1.8
			c0.3,0,0.6-0.1,0.9-0.2c0.2-0.1,0.4-0.3,0.6-0.5c0.2-0.2,0.3-0.4,0.3-0.7s0.1-0.5,0.1-0.8v-0.4c0-0.3-0.2-0.6-0.5-0.8
			c-0.3-0.2-0.7-0.3-1.1-0.5c-0.5-0.1-1-0.3-1.5-0.4c-0.5-0.1-1-0.3-1.5-0.5c-0.5-0.2-0.8-0.5-1.1-0.9s-0.5-0.8-0.5-1.4h1.7
			c0,0.3,0.1,0.6,0.3,0.8s0.4,0.4,0.7,0.5c0.3,0.1,0.6,0.3,1,0.4c0.4,0.1,0.7,0.2,1.1,0.3c0.4,0.1,0.8,0.2,1.1,0.3
			c0.4,0.1,0.7,0.3,1,0.4c0.3,0.2,0.5,0.4,0.7,0.7c0.2,0.3,0.3,0.6,0.3,1v0.5c0,0.2,0,0.4-0.1,0.7c-0.1,0.2-0.2,0.5-0.3,0.7
			c-0.2,0.3-0.4,0.5-0.6,0.8c-0.3,0.2-0.6,0.5-1,0.7c0.5,0.3,0.9,0.5,1.3,0.8c0.3,0.3,0.6,0.6,0.8,1s0.4,0.6,0.5,1
			c0.1,0.3,0.1,0.6,0.1,0.8V130z"/>
		<path class="st0" d="M151.2,131.2c0,0.7-0.1,1.3-0.4,1.9c-0.3,0.5-0.6,0.9-1.1,1.3c-0.4,0.3-1,0.6-1.6,0.7
			c-0.6,0.2-1.2,0.2-1.8,0.2c-0.7,0-1.4-0.1-2-0.3c-0.6-0.2-1.1-0.5-1.5-0.9s-0.8-0.8-1-1.4s-0.4-1.1-0.4-1.7c0-0.6,0.1-1.1,0.2-1.5
			c0.1-0.4,0.3-0.8,0.5-1.2s0.4-0.7,0.7-0.9s0.6-0.5,0.9-0.8l1,1c-0.3,0.3-0.6,0.5-0.8,0.7c-0.2,0.2-0.4,0.4-0.5,0.7
			s-0.2,0.5-0.3,0.8c-0.1,0.3-0.1,0.7-0.1,1.2c0,0.9,0.3,1.6,0.8,2.1c0.5,0.5,1.3,0.8,2.4,0.8c0.5,0,0.9-0.1,1.3-0.2s0.7-0.3,1-0.5
			c0.3-0.2,0.5-0.5,0.6-0.9c0.2-0.3,0.2-0.7,0.2-1.1v-10.1c0-0.4-0.1-0.7-0.2-1c-0.1-0.3-0.3-0.6-0.6-0.8c-0.2-0.2-0.5-0.4-0.9-0.5
			s-0.7-0.2-1.2-0.2c-0.4,0-0.8,0.1-1.2,0.2c-0.4,0.1-0.7,0.3-0.9,0.5c-0.3,0.2-0.5,0.5-0.6,0.8s-0.2,0.7-0.2,1.1
			c0,0.3,0,0.5,0.1,0.8s0.2,0.6,0.5,1l-1.2,0.9c-0.6-0.8-0.9-1.7-0.9-2.7c0-0.6,0.1-1.1,0.3-1.6c0.2-0.5,0.5-0.9,0.9-1.3
			s0.8-0.6,1.4-0.8c0.5-0.2,1.1-0.3,1.8-0.3c0.6,0,1.2,0.1,1.8,0.3c0.6,0.2,1,0.4,1.5,0.8s0.7,0.7,1,1.2c0.2,0.5,0.4,1.1,0.4,1.7
			V131.2z"/>
		<path class="st0" d="M166.3,130.4c0,0.7-0.1,1.4-0.3,2c-0.2,0.6-0.5,1.1-0.9,1.5s-0.9,0.8-1.5,1c-0.6,0.2-1.3,0.3-2.1,0.3
			c-0.7,0-1.4-0.1-2-0.3c-0.6-0.2-1.1-0.6-1.5-1s-0.8-0.9-1-1.5s-0.4-1.3-0.4-2v-9.9c0-0.5,0.1-1,0.2-1.4c0.2-0.4,0.4-0.7,0.6-1
			c0.3-0.3,0.6-0.5,0.9-0.6c0.3-0.1,0.7-0.2,1.1-0.2c0.3,0,0.7,0,1,0.1c0.3,0.1,0.6,0.1,1,0.2c0.3,0.1,0.6,0.1,0.9,0.2
			s0.6,0.1,0.9,0.1c0.2,0,0.5,0,0.7-0.1c0.2,0,0.4-0.1,0.6-0.2s0.4-0.2,0.7-0.2c0.2-0.1,0.5-0.2,0.8-0.3v1.2c-0.5,0.3-1,0.5-1.5,0.7
			c-0.5,0.1-0.9,0.2-1.4,0.2c-0.3,0-0.6,0-0.9-0.1s-0.5-0.1-0.8-0.2s-0.5-0.1-0.8-0.2c-0.3,0-0.5-0.1-0.8-0.1c-0.3,0-0.6,0-0.8,0.1
			c-0.2,0.1-0.4,0.2-0.5,0.4c-0.1,0.2-0.2,0.4-0.3,0.6c-0.1,0.2-0.1,0.5-0.1,0.7v4c0.2-0.4,0.5-0.7,0.8-1c0.3-0.3,0.6-0.5,0.9-0.6
			s0.6-0.3,0.9-0.3s0.6-0.1,0.8-0.1c0.8,0,1.5,0.1,2.1,0.4s1.1,0.6,1.5,1.1c0.4,0.5,0.7,1,0.9,1.6c0.2,0.6,0.3,1.2,0.3,1.8V130.4z
			 M164.6,127.6c0-0.5-0.1-1-0.2-1.4c-0.1-0.4-0.3-0.8-0.6-1.1s-0.6-0.6-1-0.7c-0.4-0.2-0.9-0.3-1.4-0.3c-0.2,0-0.4,0-0.6,0
			c-0.2,0-0.5,0.1-0.7,0.1s-0.5,0.2-0.7,0.3s-0.4,0.4-0.6,0.6s-0.3,0.6-0.4,1s-0.2,0.9-0.2,1.5v2.8c0,0.5,0.1,0.9,0.2,1.3
			s0.3,0.8,0.6,1.1c0.3,0.3,0.6,0.6,1,0.7c0.4,0.2,0.9,0.3,1.4,0.3c1.1,0,1.9-0.3,2.4-0.9c0.5-0.6,0.8-1.5,0.8-2.7V127.6z"/>
		<path class="st0" d="M183.3,135.3h-2.1c-1.2,0-2.2-0.1-3.2-0.4s-1.8-0.7-2.5-1.1c-0.7-0.5-1.4-1.1-2-1.7c-0.6-0.7-1-1.4-1.4-2.1
			c-0.4-0.8-0.6-1.6-0.8-2.4c-0.2-0.9-0.3-1.7-0.3-2.6v-1.4c0-0.4,0-0.8,0-1.3c0-0.5,0.1-0.9,0.2-1.4c0.1-0.5,0.2-0.9,0.4-1.4
			c0.2-0.4,0.4-0.8,0.8-1.2c0.3-0.3,0.7-0.6,1.2-0.8c0.5-0.2,1-0.3,1.7-0.3c0.5,0,0.8,0,1.2,0.1s0.6,0.3,0.9,0.5s0.5,0.5,0.7,0.9
			c0.2,0.4,0.4,0.8,0.6,1.4c0.2-0.6,0.4-1,0.6-1.4c0.2-0.4,0.5-0.7,0.8-0.9c0.3-0.2,0.6-0.4,1-0.5c0.4-0.1,0.8-0.1,1.2-0.1
			c0.6,0,1.1,0.1,1.6,0.2c0.5,0.2,0.8,0.4,1.2,0.6s0.6,0.6,0.8,1c0.2,0.4,0.4,0.8,0.5,1.2c0.1,0.4,0.2,0.9,0.3,1.3s0.1,0.9,0.1,1.3
			v2c0,0.7-0.1,1.3-0.3,2c-0.2,0.7-0.4,1.3-0.8,1.8c-0.4,0.5-0.8,1-1.4,1.3c-0.6,0.3-1.3,0.5-2,0.5c-0.8,0-1.4-0.1-2-0.4
			c-0.6-0.3-1-0.7-1.4-1.2c-0.4-0.5-0.7-1.1-0.9-1.8s-0.3-1.5-0.3-2.3v-1.9c0-0.6,0-1.1-0.1-1.7c-0.1-0.5-0.2-1-0.4-1.4
			s-0.5-0.7-0.8-0.9c-0.3-0.2-0.7-0.3-1.2-0.3c-0.4,0-0.8,0.1-1.1,0.2c-0.3,0.2-0.5,0.4-0.7,0.6c-0.2,0.3-0.4,0.6-0.5,0.9
			s-0.2,0.7-0.2,1.1c-0.1,0.4-0.1,0.7-0.1,1.1c0,0.4,0,0.7,0,0.9v1.4c0,1.3,0.2,2.5,0.6,3.6c0.4,1.1,0.9,2,1.6,2.8
			c0.7,0.8,1.6,1.4,2.6,1.9c1.1,0.4,2.3,0.7,3.6,0.7h2.1V135.3z M185.3,122.8c0-0.3,0-0.7,0-1s-0.1-0.7-0.1-1
			c-0.1-0.3-0.1-0.6-0.3-0.9c-0.1-0.3-0.3-0.5-0.5-0.7s-0.5-0.4-0.8-0.5c-0.3-0.1-0.7-0.2-1.1-0.2c-0.6,0-1.1,0.1-1.5,0.3
			c-0.4,0.2-0.7,0.5-0.9,0.8s-0.3,0.8-0.4,1.3c-0.1,0.5-0.1,1.1-0.1,1.8v2c0,1.5,0.2,2.5,0.7,3.2c0.5,0.7,1.2,1,2.2,1
			c0.4,0,0.8-0.1,1.1-0.2c0.3-0.1,0.6-0.3,0.8-0.5s0.4-0.5,0.5-0.8c0.1-0.3,0.2-0.6,0.3-0.9c0.1-0.3,0.1-0.6,0.1-1s0-0.6,0-0.9
			V122.8z"/>
		<path class="st0" d="M201.5,128.1c0,0.8-0.1,1.6-0.2,2.4c-0.1,0.8-0.3,1.5-0.6,2.2c-0.3,0.7-0.6,1.2-1.1,1.7s-1,0.8-1.7,1
			l-0.1-1.4c0.3,0,0.6-0.1,0.8-0.4c0.3-0.3,0.5-0.6,0.7-1.1c0.2-0.5,0.3-1.1,0.5-1.8c0.1-0.7,0.2-1.5,0.2-2.4v-4.4
			c0-0.8,0-1.5-0.1-2.2c-0.1-0.6-0.3-1.2-0.5-1.6c-0.2-0.4-0.6-0.8-1-1c-0.4-0.2-0.9-0.4-1.5-0.4c-0.7,0-1.2,0.1-1.7,0.4
			c-0.4,0.2-0.8,0.6-1,1c-0.2,0.5-0.4,1-0.5,1.7c-0.1,0.7-0.1,1.4-0.1,2.2v4.3c0,0.9,0,1.7,0.1,2.4c0.1,0.7,0.2,1.3,0.3,1.8
			s0.3,0.9,0.5,1.1c0.2,0.3,0.4,0.4,0.7,0.4l0,1.4c-0.5-0.1-0.9-0.3-1.2-0.5s-0.6-0.6-0.9-0.9c-0.2-0.4-0.4-0.8-0.6-1.2
			c-0.2-0.5-0.3-0.9-0.4-1.4c-0.1-0.5-0.1-1-0.2-1.5c0-0.5-0.1-1-0.1-1.5v-4.3c0-0.5,0-1.1,0.1-1.6s0.2-1.1,0.3-1.6
			c0.1-0.5,0.3-1,0.6-1.4c0.2-0.4,0.5-0.8,0.9-1.2c0.4-0.3,0.8-0.6,1.3-0.8c0.5-0.2,1.1-0.3,1.8-0.3c0.7,0,1.3,0.1,1.8,0.2
			c0.5,0.2,0.9,0.4,1.3,0.7c0.4,0.3,0.7,0.6,0.9,1.1c0.2,0.4,0.4,0.9,0.5,1.4c0.1,0.5,0.2,1,0.3,1.6s0.1,1.1,0.1,1.7L201.5,128.1z"
			/>
		<path class="st0" d="M222.4,124.2c0-0.8,0-1.6-0.1-2.2c0-0.7-0.2-1.3-0.4-1.8c-0.2-0.5-0.5-0.9-0.9-1.2c-0.4-0.3-0.9-0.4-1.6-0.4
			c-2,0-3,1.2-3,3.5v7.3h-1.7v-7.3c0-1.2-0.2-2.1-0.7-2.7c-0.5-0.6-1.2-0.8-2.3-0.8c-0.6,0-1.2,0.1-1.5,0.4
			c-0.4,0.3-0.7,0.7-0.9,1.2c-0.2,0.5-0.3,1.1-0.4,1.8c-0.1,0.7-0.1,1.5-0.1,2.3v3.1c0,0.5,0,1,0.1,1.6c0.1,0.5,0.1,1,0.2,1.5
			c0.1,0.5,0.2,0.9,0.4,1.3c0.2,0.4,0.4,0.8,0.6,1.1c0.2,0.3,0.5,0.6,0.8,0.7c0.3,0.2,0.7,0.3,1.1,0.3v1.4c-0.6,0-1.2-0.1-1.7-0.3
			c-0.5-0.2-0.9-0.5-1.3-0.9c-0.4-0.4-0.7-0.8-0.9-1.3c-0.2-0.5-0.4-1.1-0.6-1.6c-0.1-0.6-0.2-1.2-0.3-1.8s-0.1-1.2-0.1-1.8v-3.2
			c0-0.6,0-1.2,0.1-1.8c0-0.6,0.1-1.1,0.2-1.7c0.1-0.5,0.3-1,0.5-1.5c0.2-0.5,0.5-0.9,0.8-1.2s0.8-0.6,1.3-0.8
			c0.5-0.2,1.1-0.3,1.8-0.3c0.5,0,0.9,0.1,1.3,0.2c0.4,0.1,0.7,0.3,1,0.5c0.3,0.2,0.6,0.5,0.8,0.8c0.2,0.3,0.4,0.7,0.6,1.1
			c0.2-0.4,0.3-0.8,0.6-1.1c0.2-0.3,0.5-0.6,0.8-0.8c0.3-0.2,0.7-0.4,1.1-0.5c0.4-0.1,0.9-0.2,1.4-0.2c0.7,0,1.2,0.1,1.7,0.3
			c0.5,0.2,0.9,0.4,1.2,0.8c0.3,0.3,0.6,0.7,0.8,1.2c0.2,0.4,0.4,0.9,0.5,1.5c0.1,0.5,0.2,1.1,0.3,1.6c0,0.6,0.1,1.1,0.1,1.7l0,3.4
			c0,0.6,0,1.1-0.1,1.8s-0.2,1.2-0.3,1.8c-0.2,0.6-0.4,1.1-0.6,1.6c-0.2,0.5-0.5,1-0.9,1.4c-0.4,0.4-0.8,0.7-1.3,0.9
			c-0.5,0.2-1,0.3-1.6,0.3v-1.4c0.5,0,1-0.2,1.4-0.6c0.4-0.4,0.7-0.9,1-1.5s0.5-1.3,0.6-2.1c0.1-0.8,0.2-1.6,0.2-2.4V124.2z"/>
		<path class="st0" d="M252.3,130.9c0,0.7-0.2,1.4-0.5,1.9c-0.3,0.6-0.8,1-1.4,1.4c-0.6,0.4-1.3,0.6-2.1,0.8
			c-0.8,0.2-1.7,0.3-2.6,0.3c-0.6,0-1.2,0-1.7-0.1c-0.6,0-1.1-0.1-1.6-0.2c-0.5-0.1-1-0.3-1.4-0.5c-0.4-0.2-0.8-0.5-1.1-0.8
			c-0.3-0.3-0.5-0.7-0.7-1.2c-0.2-0.5-0.3-1-0.3-1.7l1.6,0.3c0,0.4,0.1,0.8,0.2,1c0.2,0.3,0.4,0.5,0.6,0.7s0.6,0.4,0.9,0.5
			s0.7,0.2,1.1,0.3c0.4,0.1,0.8,0.1,1.2,0.1s0.8,0,1.2,0c0.6,0,1.2,0,1.8-0.1c0.6-0.1,1.1-0.3,1.6-0.5c0.5-0.2,0.8-0.5,1.1-0.9
			c0.3-0.4,0.4-0.8,0.4-1.4v-0.6c0-0.3,0-0.6-0.1-1c-0.1-0.4-0.2-0.7-0.3-1c-0.2-0.3-0.4-0.6-0.7-0.8c-0.3-0.2-0.6-0.3-1.1-0.3h-1.3
			v-1.4h1.3c0.4,0,0.8-0.1,1.1-0.3c0.3-0.2,0.6-0.4,0.8-0.7c0.2-0.3,0.4-0.6,0.4-1c0.1-0.4,0.1-0.8,0.1-1.2v-0.6c0-0.5,0-1-0.1-1.4
			c-0.1-0.4-0.2-0.8-0.4-1.1s-0.5-0.5-0.9-0.7c-0.4-0.2-0.9-0.2-1.5-0.2c-0.5,0-0.9,0.1-1.2,0.3c-0.3,0.2-0.6,0.4-0.8,0.8
			s-0.4,0.7-0.4,1.2c-0.1,0.5-0.1,1-0.1,1.5v1.3c0,0.7-0.1,1.4-0.3,2s-0.5,1.2-0.9,1.6c-0.4,0.5-0.9,0.8-1.5,1.1s-1.3,0.4-2.1,0.4
			c-0.7,0-1.4-0.1-2-0.4c-0.6-0.2-1.1-0.6-1.5-1c-0.4-0.4-0.7-1-0.9-1.6s-0.3-1.3-0.3-2.1v-1.1c0-0.9,0.1-1.7,0.3-2.3
			c0.2-0.7,0.5-1.2,0.9-1.7c0.4-0.4,0.9-0.8,1.5-1s1.2-0.3,1.9-0.3c0.4,0,0.7,0,1.1,0.1c0.4,0.1,0.7,0.2,1.1,0.4
			c0.3,0.2,0.6,0.5,0.9,0.8c0.3,0.3,0.5,0.8,0.8,1.3c0.2-0.5,0.4-1,0.7-1.3c0.3-0.3,0.6-0.6,0.9-0.8c0.3-0.2,0.6-0.3,0.9-0.4
			s0.6-0.1,0.9-0.1c0.8,0,1.5,0.1,2,0.3c0.6,0.2,1,0.5,1.4,0.9c0.4,0.4,0.6,0.9,0.8,1.5c0.2,0.6,0.3,1.2,0.3,2v0.6
			c0,0.4,0,0.7-0.1,1.1c-0.1,0.4-0.2,0.8-0.4,1.1c-0.2,0.4-0.5,0.7-1,1c-0.4,0.3-1,0.5-1.7,0.7c0.7,0.1,1.2,0.4,1.6,0.6
			c0.4,0.3,0.7,0.6,0.9,0.9s0.3,0.7,0.4,1.1s0.1,0.7,0.1,1.1V130.9z M243.8,122.5c0-0.7-0.1-1.4-0.2-1.9c-0.1-0.5-0.3-0.9-0.6-1.2
			c-0.3-0.3-0.6-0.5-1-0.6c-0.4-0.1-0.8-0.2-1.3-0.2c-0.5,0-0.9,0.1-1.3,0.2c-0.4,0.1-0.7,0.3-0.9,0.6c-0.2,0.3-0.4,0.7-0.6,1.2
			c-0.1,0.5-0.2,1.2-0.2,1.9v1.1c0,0.7,0.1,1.3,0.2,1.8s0.3,0.8,0.5,1.1s0.6,0.5,0.9,0.6c0.4,0.1,0.8,0.2,1.3,0.2
			c0.6,0,1.1-0.1,1.5-0.2c0.4-0.1,0.7-0.4,0.9-0.7c0.2-0.3,0.4-0.7,0.5-1.1c0.1-0.5,0.1-1,0.1-1.6V122.5z"/>
		<path class="st0" d="M272.9,124.2c0-0.8,0-1.6-0.1-2.2c0-0.7-0.2-1.3-0.4-1.8c-0.2-0.5-0.5-0.9-0.9-1.2c-0.4-0.3-0.9-0.4-1.6-0.4
			c-2,0-3,1.2-3,3.5v7.3h-1.7v-7.3c0-1.2-0.2-2.1-0.7-2.7c-0.5-0.6-1.2-0.8-2.3-0.8c-0.6,0-1.2,0.1-1.5,0.4
			c-0.4,0.3-0.7,0.7-0.9,1.2c-0.2,0.5-0.3,1.1-0.4,1.8c-0.1,0.7-0.1,1.5-0.1,2.3v3.1c0,0.5,0,1,0.1,1.6c0.1,0.5,0.1,1,0.2,1.5
			c0.1,0.5,0.2,0.9,0.4,1.3c0.2,0.4,0.4,0.8,0.6,1.1c0.2,0.3,0.5,0.6,0.8,0.7c0.3,0.2,0.7,0.3,1.1,0.3v1.4c-0.6,0-1.2-0.1-1.7-0.3
			c-0.5-0.2-0.9-0.5-1.3-0.9c-0.4-0.4-0.7-0.8-0.9-1.3c-0.2-0.5-0.4-1.1-0.6-1.6c-0.1-0.6-0.2-1.2-0.3-1.8s-0.1-1.2-0.1-1.8v-3.2
			c0-0.6,0-1.2,0.1-1.8c0-0.6,0.1-1.1,0.2-1.7c0.1-0.5,0.3-1,0.5-1.5c0.2-0.5,0.5-0.9,0.8-1.2s0.8-0.6,1.3-0.8
			c0.5-0.2,1.1-0.3,1.8-0.3c0.5,0,0.9,0.1,1.3,0.2c0.4,0.1,0.7,0.3,1,0.5c0.3,0.2,0.6,0.5,0.8,0.8c0.2,0.3,0.4,0.7,0.6,1.1
			c0.2-0.4,0.3-0.8,0.6-1.1c0.2-0.3,0.5-0.6,0.8-0.8c0.3-0.2,0.7-0.4,1.1-0.5c0.4-0.1,0.9-0.2,1.4-0.2c0.7,0,1.2,0.1,1.7,0.3
			c0.5,0.2,0.9,0.4,1.2,0.8c0.3,0.3,0.6,0.7,0.8,1.2c0.2,0.4,0.4,0.9,0.5,1.5c0.1,0.5,0.2,1.1,0.3,1.6c0,0.6,0.1,1.1,0.1,1.7l0,3.4
			c0,0.6,0,1.1-0.1,1.8s-0.2,1.2-0.3,1.8c-0.2,0.6-0.4,1.1-0.6,1.6c-0.2,0.5-0.5,1-0.9,1.4c-0.4,0.4-0.8,0.7-1.3,0.9
			c-0.5,0.2-1,0.3-1.6,0.3v-1.4c0.5,0,1-0.2,1.4-0.6c0.4-0.4,0.7-0.9,1-1.5s0.5-1.3,0.6-2.1c0.1-0.8,0.2-1.6,0.2-2.4V124.2z"/>
		<path class="st0" d="M289.6,130.4c0,0.7-0.1,1.4-0.3,2s-0.5,1.1-0.9,1.5s-0.9,0.8-1.5,1c-0.6,0.2-1.3,0.3-2.1,0.3
			c-0.7,0-1.4-0.1-2-0.3c-0.6-0.2-1.1-0.6-1.5-1c-0.4-0.4-0.8-0.9-1-1.5c-0.2-0.6-0.4-1.3-0.4-2v-9.9c0-0.5,0.1-1,0.2-1.4
			c0.2-0.4,0.4-0.7,0.6-1c0.3-0.3,0.6-0.5,0.9-0.6s0.7-0.2,1.1-0.2c0.3,0,0.7,0,1,0.1s0.6,0.1,1,0.2c0.3,0.1,0.6,0.1,0.9,0.2
			c0.3,0.1,0.6,0.1,0.9,0.1c0.2,0,0.5,0,0.7-0.1c0.2,0,0.4-0.1,0.6-0.2s0.4-0.2,0.7-0.2c0.2-0.1,0.5-0.2,0.8-0.3v1.2
			c-0.5,0.3-1,0.5-1.5,0.7c-0.5,0.1-0.9,0.2-1.4,0.2c-0.3,0-0.6,0-0.9-0.1s-0.5-0.1-0.8-0.2s-0.5-0.1-0.8-0.2
			c-0.3,0-0.5-0.1-0.8-0.1c-0.3,0-0.6,0-0.8,0.1c-0.2,0.1-0.4,0.2-0.5,0.4c-0.1,0.2-0.2,0.4-0.3,0.6c-0.1,0.2-0.1,0.5-0.1,0.7v4
			c0.2-0.4,0.5-0.7,0.8-1s0.6-0.5,0.9-0.6s0.6-0.3,0.9-0.3s0.6-0.1,0.8-0.1c0.8,0,1.5,0.1,2.1,0.4c0.6,0.3,1.1,0.6,1.5,1.1
			c0.4,0.5,0.7,1,0.9,1.6c0.2,0.6,0.3,1.2,0.3,1.8V130.4z M287.9,127.6c0-0.5-0.1-1-0.2-1.4c-0.1-0.4-0.3-0.8-0.6-1.1
			s-0.6-0.6-1-0.7c-0.4-0.2-0.9-0.3-1.4-0.3c-0.2,0-0.4,0-0.6,0c-0.2,0-0.5,0.1-0.7,0.1c-0.2,0.1-0.5,0.2-0.7,0.3
			c-0.2,0.1-0.4,0.4-0.6,0.6c-0.2,0.3-0.3,0.6-0.4,1c-0.1,0.4-0.2,0.9-0.2,1.5v2.8c0,0.5,0.1,0.9,0.2,1.3s0.3,0.8,0.6,1.1
			c0.3,0.3,0.6,0.6,1,0.7c0.4,0.2,0.9,0.3,1.4,0.3c1.1,0,1.9-0.3,2.4-0.9c0.5-0.6,0.8-1.5,0.8-2.7V127.6z"/>
		<path class="st0" d="M306.6,135.3h-2.1c-1.2,0-2.2-0.1-3.2-0.4c-0.9-0.3-1.8-0.7-2.5-1.1c-0.7-0.5-1.4-1.1-2-1.7s-1-1.4-1.4-2.1
			c-0.4-0.8-0.6-1.6-0.8-2.4c-0.2-0.9-0.3-1.7-0.3-2.6v-1.4c0-0.4,0-0.8,0-1.3c0-0.5,0.1-0.9,0.2-1.4c0.1-0.5,0.2-0.9,0.4-1.4
			c0.2-0.4,0.4-0.8,0.8-1.2s0.7-0.6,1.2-0.8c0.5-0.2,1-0.3,1.7-0.3c0.5,0,0.8,0,1.2,0.1s0.6,0.3,0.9,0.5s0.5,0.5,0.7,0.9
			c0.2,0.4,0.4,0.8,0.6,1.4c0.2-0.6,0.4-1,0.6-1.4c0.2-0.4,0.5-0.7,0.8-0.9c0.3-0.2,0.6-0.4,1-0.5c0.4-0.1,0.8-0.1,1.2-0.1
			c0.6,0,1.1,0.1,1.6,0.2c0.5,0.2,0.8,0.4,1.2,0.6s0.6,0.6,0.8,1c0.2,0.4,0.4,0.8,0.5,1.2c0.1,0.4,0.2,0.9,0.3,1.3s0.1,0.9,0.1,1.3
			v2c0,0.7-0.1,1.3-0.3,2c-0.2,0.7-0.4,1.3-0.8,1.8c-0.4,0.5-0.8,1-1.4,1.3c-0.6,0.3-1.3,0.5-2,0.5c-0.8,0-1.4-0.1-2-0.4
			c-0.6-0.3-1-0.7-1.4-1.2c-0.4-0.5-0.7-1.1-0.9-1.8s-0.3-1.5-0.3-2.3v-1.9c0-0.6,0-1.1-0.1-1.7c-0.1-0.5-0.2-1-0.4-1.4
			s-0.5-0.7-0.8-0.9s-0.7-0.3-1.2-0.3c-0.4,0-0.8,0.1-1.1,0.2c-0.3,0.2-0.5,0.4-0.7,0.6s-0.4,0.6-0.5,0.9c-0.1,0.3-0.2,0.7-0.2,1.1
			c-0.1,0.4-0.1,0.7-0.1,1.1c0,0.4,0,0.7,0,0.9v1.4c0,1.3,0.2,2.5,0.6,3.6c0.4,1.1,0.9,2,1.6,2.8c0.7,0.8,1.6,1.4,2.6,1.9
			c1,0.4,2.3,0.7,3.6,0.7h2.1V135.3z M308.6,122.8c0-0.3,0-0.7,0-1s-0.1-0.7-0.1-1c-0.1-0.3-0.1-0.6-0.3-0.9
			c-0.1-0.3-0.3-0.5-0.5-0.7s-0.5-0.4-0.8-0.5c-0.3-0.1-0.7-0.2-1.1-0.2c-0.6,0-1.1,0.1-1.5,0.3c-0.4,0.2-0.7,0.5-0.9,0.8
			s-0.3,0.8-0.4,1.3s-0.1,1.1-0.1,1.8v2c0,1.5,0.2,2.5,0.7,3.2c0.5,0.7,1.2,1,2.2,1c0.4,0,0.8-0.1,1.1-0.2c0.3-0.1,0.6-0.3,0.8-0.5
			s0.4-0.5,0.5-0.8c0.1-0.3,0.2-0.6,0.3-0.9c0.1-0.3,0.1-0.6,0.1-1s0-0.6,0-0.9V122.8z"/>
		<path class="st0" d="M324.7,128.1c0,0.8-0.1,1.6-0.2,2.4c-0.1,0.8-0.3,1.5-0.6,2.2c-0.3,0.7-0.6,1.2-1.1,1.7s-1,0.8-1.7,1
			l-0.1-1.4c0.3,0,0.6-0.1,0.8-0.4c0.3-0.3,0.5-0.6,0.7-1.1c0.2-0.5,0.3-1.1,0.5-1.8c0.1-0.7,0.2-1.5,0.2-2.4v-4.4
			c0-0.8,0-1.5-0.1-2.2c-0.1-0.6-0.3-1.2-0.5-1.6c-0.2-0.4-0.6-0.8-1-1c-0.4-0.2-0.9-0.4-1.5-0.4c-0.7,0-1.2,0.1-1.7,0.4
			c-0.4,0.2-0.8,0.6-1,1c-0.2,0.5-0.4,1-0.5,1.7c-0.1,0.7-0.1,1.4-0.1,2.2v4.3c0,0.9,0,1.7,0.1,2.4c0.1,0.7,0.2,1.3,0.3,1.8
			s0.3,0.9,0.5,1.1c0.2,0.3,0.4,0.4,0.7,0.4l0,1.4c-0.5-0.1-0.9-0.3-1.2-0.5s-0.6-0.6-0.9-0.9c-0.2-0.4-0.4-0.8-0.6-1.2
			c-0.2-0.5-0.3-0.9-0.4-1.4c-0.1-0.5-0.1-1-0.2-1.5c0-0.5-0.1-1-0.1-1.5v-4.3c0-0.5,0-1.1,0.1-1.6s0.2-1.1,0.3-1.6
			c0.1-0.5,0.3-1,0.6-1.4c0.2-0.4,0.5-0.8,0.9-1.2c0.4-0.3,0.8-0.6,1.3-0.8c0.5-0.2,1.1-0.3,1.8-0.3c0.7,0,1.3,0.1,1.8,0.2
			c0.5,0.2,0.9,0.4,1.3,0.7c0.4,0.3,0.7,0.6,0.9,1.1c0.2,0.4,0.4,0.9,0.5,1.4c0.1,0.5,0.2,1,0.3,1.6s0.1,1.1,0.1,1.7L324.7,128.1z"
			/>
	</g>
	<g>
		<path class="st0" d="M237.2,46.1c-0.2-1.2-0.5-2.6-0.9-4c-0.5-1.4-1.2-2.9-2.3-4.4c-0.9-1.2-2.1-2.4-3.6-3.2
			c2.1-1.2,3.5-3.5,3.5-6c0-3.9-3.2-7-7-7s-7,3.2-7,7c0,2.4,1.2,4.5,3,5.7c-0.1,0-0.1,0.1-0.2,0.1c-1.1,0.5-2.1,1.3-2.9,2.2
			c-0.1,0.1-0.2,0.2-0.3,0.3c-0.6-0.9-1.2-1.8-1.9-2.7c-1-1.1-2.1-2.2-3.3-3c-0.5-0.3-1-0.6-1.6-0.9c3.1-1.6,5.3-4.8,5.3-8.5
			c0-5.3-4.3-9.6-9.6-9.6c-5.3,0-9.6,4.3-9.6,9.6c0,3.5,1.9,6.6,4.8,8.3c-0.2,0.1-0.3,0.2-0.5,0.2c-0.3,0.2-0.7,0.4-1,0.6
			c-0.3,0.2-0.7,0.5-0.9,0.7l-0.4,0.3l-0.1,0.1l0,0l-0.1,0.1l-0.2,0.2c-0.3,0.3-0.5,0.5-0.8,0.8c-0.2,0.2-0.4,0.5-0.6,0.7
			c0,0-0.1,0.1-0.1,0.1c0-0.1-0.1-0.3-0.2-0.4c-0.2-0.4-0.4-0.9-0.7-1.3c-1.9-3.2-4.1-5.5-6.3-7.1c-0.6-0.4-1.1-0.8-1.6-1
			c-0.3-0.2-0.5-0.3-0.8-0.4c-0.1,0-0.2-0.1-0.3-0.1c4.3-1.9,7.3-6.2,7.3-11.2C196.2,5.5,190.7,0,184,0c-6.7,0-12.2,5.5-12.2,12.2
			c0,4.9,2.8,9.1,7,11c-0.1,0-0.2,0.1-0.2,0.1c-1,0.4-2,1.1-3.1,1.9c-1.1,0.8-2.1,1.8-3.2,3c-1.1,1.2-2.1,2.5-3,4.2
			c-0.1,0.2-0.2,0.4-0.3,0.6c-0.1,0.2-0.2,0.4-0.3,0.7c0,0,0,0,0-0.1c0,0,0,0,0-0.1c0,0,0-0.1-0.1-0.1c-0.2-0.3-0.4-0.5-0.7-0.8
			c-0.3-0.3-0.5-0.5-0.8-0.8l-0.2-0.2l-0.2-0.2l-0.4-0.3c-0.3-0.2-0.7-0.4-1-0.7c-0.3-0.2-0.7-0.4-1-0.5c-0.3-0.2-0.7-0.3-1.1-0.4
			c0.1,0,0.1,0,0.2-0.1c1.6-0.8,2.9-2,3.8-3.5c0.9-1.5,1.5-3.2,1.5-5.1c0-5.3-4.3-9.6-9.6-9.6c-5.3,0-9.6,4.3-9.6,9.6
			c0,4,2.5,7.4,6,8.9c-0.8,0.3-1.6,0.8-2.3,1.3c-1.2,0.9-2.3,1.9-3.3,3c-0.7,0.8-1.3,1.7-1.8,2.5c-0.1-0.1-0.2-0.2-0.3-0.4
			c-0.8-0.9-1.8-1.6-2.9-2.2c0,0,0,0,0,0c1.8-1.3,3-3.4,3-5.8c0-3.9-3.1-7-7-7c-3.9,0-7,3.2-7,7c0,2.5,1.3,4.8,3.4,6
			c-1.6,0.8-2.8,2-3.7,3.3c-1.1,1.5-1.8,3-2.3,4.4c-0.5,1.4-0.8,2.8-0.9,4c-0.3,2.4-0.2,4.3-0.2,5.6c0.1,1.3,0.2,2,0.2,2l0.2,0
			l0.2,0c0,0,0-0.7,0.1-2c0.1-1.3,0.2-3.1,0.8-5.4c0.3-1.1,0.7-2.3,1.2-3.6c0.6-1.2,1.3-2.5,2.3-3.7c0.1-0.1,0.2-0.3,0.4-0.4
			c0.1-0.1,0.3-0.3,0.4-0.4c0.3-0.3,0.6-0.5,0.9-0.7c0.6-0.4,1.3-0.8,2.1-1.1c1.5-0.5,3.1-0.4,4.6,0.4c1.2,0.7,2.2,1.8,3,3.2
			c-0.2,0.7-0.5,1.3-0.7,2c-0.7,2.8-1.1,5.4-1.3,8.2c-0.1,1.4-0.1,2.8,0.1,4.2c0.1,0.7,0.2,1.4,0.4,2.2c0.2,0.8,0.5,1.5,1.1,2.4
			c0.6,0.8,2,1.8,3.7,1.3l0.2,0l0.1,0l0.2-0.1c0.2-0.1,0.3-0.1,0.4-0.2c0.2-0.2,0.4-0.3,0.6-0.5c0.4-0.4,0.7-0.8,0.9-1.2
			c0.9-1.6,1-3.1,1.1-4.5c0.1-2.8-0.5-5.2-1.1-7.6c-0.3-1.2-0.7-2.3-1-3.4l-0.1-0.2l-0.1-0.2l-0.2-0.4c-0.1-0.3-0.2-0.5-0.3-0.8
			c-0.1-0.3-0.3-0.6-0.4-0.9l-0.1-0.3c0.6-1.3,1.3-2.5,2.2-3.6c1.5-1.9,3.5-3.5,5.8-4.1c1.1-0.3,2.3-0.3,3.4-0.1
			c0.5,0.1,1.1,0.3,1.6,0.5c0.3,0.1,0.5,0.3,0.8,0.4c0.2,0.2,0.5,0.3,0.7,0.5l0.4,0.3l0.1,0.1l0,0c0,0,0,0,0,0l0.2,0.1
			c0.2,0.2,0.4,0.4,0.6,0.6c0.2,0.2,0.3,0.3,0.5,0.5c0.2,0.3,0.5,0.6,0.7,0.9c0.2,0.3,0.4,0.6,0.6,0.9c-0.1,0.3-0.2,0.6-0.2,0.9
			c-0.5,1.9-0.9,3.8-1.2,5.9c-0.4,2.1-0.7,4.2-0.8,6.5c-0.1,1.1-0.2,2.3-0.2,3.5c0,1.2,0,2.4,0.2,3.7c0.1,0.6,0.2,1.3,0.5,2
			c0.2,0.7,0.6,1.4,1.2,2.2c0.2,0.2,0.3,0.3,0.5,0.5c0.2,0.2,0.4,0.3,0.6,0.5c0.5,0.2,1,0.5,1.5,0.5l0.4,0.1l0.2,0l0.1,0h0.1
			c0,0,0,0,0.1,0l0.2,0c0.2,0,0.3,0,0.4-0.1c0.5-0.1,1.1-0.4,1.5-0.7c0.9-0.6,1.3-1.4,1.6-2.1c0.3-0.7,0.5-1.5,0.6-2.2
			c0.3-1.4,0.3-2.8,0.3-4.1c-0.1-2.7-0.5-5.4-1.1-8c-0.6-2.5-1.4-5.1-2.6-7.5c0.2-0.7,0.4-1.4,0.6-2l0.1-0.3l0.1-0.3
			c0-0.2,0.1-0.3,0.2-0.5c0.1-0.2,0.2-0.3,0.2-0.5c0.1-0.2,0.2-0.3,0.3-0.5c0.7-1.2,1.6-2.4,2.5-3.3c0.9-1,1.8-1.7,2.6-2.3
			c0.8-0.6,1.6-1,2.3-1.3c0.2-0.1,0.3-0.1,0.5-0.2c0.2,0,0.3-0.1,0.5-0.2c0.1,0,0.3-0.1,0.4-0.1c0.1,0,0.2,0,0.3,0
			c0.1,0,0.2,0,0.3-0.1c0.1,0,0.1,0,0.3,0c0.2,0,0.5,0,0.6,0c0.1,0,0.2,0,0.3,0h0.2c0.2,0,0.4,0,0.6,0c0.1,0,0.2,0,0.3,0
			c0.1,0,0.2,0,0.3,0.1c0.1,0,0.2,0,0.3,0c0.1,0,0.3,0.1,0.4,0.1c0.2,0,0.3,0.1,0.5,0.1c0.2,0,0.3,0.1,0.5,0.2
			c0.2,0.1,0.4,0.2,0.5,0.2c0.2,0.1,0.4,0.2,0.6,0.3c0.4,0.2,0.8,0.5,1.2,0.7c0.8,0.6,1.8,1.3,2.7,2.3c0.9,0.9,1.8,2,2.6,3.3
			c0.2,0.3,0.4,0.6,0.5,0.9c0.1,0.2,0.1,0.3,0.2,0.5l0,0.1l0,0l0,0l0,0.1l0.1,0.3c0.2,0.7,0.5,1.5,0.7,2.3c-1.2,2.5-2,5.1-2.7,7.8
			c-0.6,2.7-1,5.3-1,8c0,1.4,0,2.7,0.3,4.2c0.2,0.7,0.4,1.4,0.7,2.2c0.2,0.4,0.4,0.8,0.7,1.1c0.3,0.4,0.7,0.7,1.2,1
			c0.2,0.1,0.5,0.2,0.8,0.3c0.1,0,0.3,0.1,0.4,0.1c0.1,0,0.3,0,0.5,0.1c0.2,0,0.2,0,0.3,0h0.1l0.2,0l0.1,0c0.3,0,0.5-0.1,0.8-0.1
			c1-0.3,1.9-1,2.4-1.7l0.3-0.5c0.1-0.2,0.2-0.4,0.3-0.5c0.2-0.4,0.3-0.7,0.4-1c0.1-0.3,0.2-0.7,0.2-1c0.1-0.3,0.1-0.7,0.2-1
			c0.2-1.3,0.2-2.5,0.2-3.7c0-1.2-0.1-2.4-0.2-3.5c-0.2-2.3-0.5-4.4-0.9-6.5s-0.8-4-1.3-5.9c0-0.2-0.1-0.4-0.1-0.6
			c0.3-0.6,0.7-1.1,1.1-1.7c0.5-0.7,1.2-1.3,1.8-1.8c1.9-1.5,4.3-2,6.5-1.5c2.2,0.6,4.3,2.1,5.8,4c0.9,1.1,1.7,2.4,2.3,3.8
			c-0.2,0.4-0.4,0.8-0.6,1.3c-0.1,0.3-0.2,0.5-0.3,0.8l-0.2,0.4l0,0.1l0,0.2l-0.1,0.2c-0.3,1.1-0.7,2.2-1,3.4
			c-0.6,2.4-1.2,4.8-1.1,7.6c0.1,1.4,0.2,2.9,1.2,4.5c0.1,0.2,0.3,0.4,0.4,0.6l0.2,0.3l0.3,0.3c0.2,0.2,0.4,0.3,0.7,0.5
			c0.1,0.1,0.3,0.1,0.4,0.2c0.1,0,0.4,0.1,0.6,0.2c0,0,0.2,0,0.3,0l0.1,0l0.3,0c0.2,0,0.4,0,0.5-0.1c0.4-0.1,0.7-0.2,1-0.4
			c0.6-0.3,1-0.8,1.3-1.2c0.6-0.8,0.8-1.6,1.1-2.4c0.2-0.8,0.3-1.5,0.4-2.2c0.2-1.4,0.2-2.8,0.1-4.2c-0.2-2.8-0.6-5.5-1.3-8.2
			c-0.2-0.6-0.4-1.2-0.6-1.9c0.3-0.5,0.7-1,1-1.5c0.6-0.7,1.3-1.2,2-1.7c1.4-0.8,3.1-0.9,4.6-0.5c0.8,0.2,1.4,0.6,2.1,1
			c0.3,0.2,0.6,0.5,0.9,0.7c0.1,0.1,0.3,0.3,0.4,0.4c0.1,0.1,0.3,0.3,0.4,0.4c1,1.1,1.8,2.4,2.3,3.7c0.6,1.2,1,2.5,1.2,3.6
			c0.6,2.3,0.7,4.1,0.8,5.4c0.1,1.3,0.1,2,0.1,2l0.2,0l0.2,0c0,0,0.1-0.7,0.2-2C237.5,50.4,237.6,48.5,237.2,46.1z M140.6,33.4
			c-2.7,0-4.9-2.2-4.9-4.9s2.2-4.9,4.9-4.9c2.7,0,4.9,2.2,4.9,4.9S143.3,33.4,140.6,33.4z M148.9,56.3c0,0.1,0,0.1-0.1,0.1
			c-0.1-0.2-0.2-0.5-0.3-0.8c-0.1-0.5-0.2-1-0.3-1.6c-0.2-1.1-0.2-2.4-0.2-3.6c0-1.5,0.2-3,0.4-4.6c0.1,0.4,0.2,0.8,0.3,1.2
			c0.5,2.2,0.9,4.5,0.8,6.6C149.5,54.7,149.3,55.7,148.9,56.3z M158.9,28.1c-3.8,0-7-3.1-7-7c0-3.8,3.1-7,7-7c3.8,0,6.9,3.1,6.9,7
			C165.8,24.9,162.7,28.1,158.9,28.1z M171.9,54.1c0,1.2-0.1,2.4-0.3,3.4c-0.1,0.5-0.3,1-0.5,1.4c-0.2,0.4-0.4,0.7-0.6,0.8
			c-0.1,0-0.1,0.1-0.2,0.1c0,0,0,0,0,0h-0.2c0,0-0.1,0-0.1,0c-0.2,0-0.3-0.1-0.5-0.3c-0.2-0.2-0.4-0.6-0.5-1
			c-0.1-0.2-0.1-0.4-0.2-0.7c0-0.2-0.1-0.5-0.1-0.7c-0.1-1-0.1-2.1-0.1-3.2c0-1.1,0.1-2.1,0.2-3.2c0.2-2.1,0.6-4.2,1-6.1
			c0.1-0.4,0.2-0.8,0.3-1.2c0.3,1.1,0.6,2.2,0.9,3.4C171.6,49.2,171.9,51.7,171.9,54.1z M184,21.3c-5,0-9.1-4.1-9.1-9.1
			c0-5,4.1-9.1,9.1-9.1c5,0,9.1,4.1,9.1,9.1C193.1,17.2,189,21.3,184,21.3z M198.5,56.8c-0.1,1-0.4,2-0.7,2.6
			c-0.2,0.2-0.3,0.3-0.4,0.4c0,0-0.1,0-0.1,0l0,0h0.1l-0.1,0c-0.1,0-0.2,0-0.2,0h0c0,0-0.1,0-0.1,0c-0.1,0-0.2-0.1-0.2-0.2
			c-0.1-0.1-0.2-0.3-0.3-0.5c-0.2-0.4-0.4-0.8-0.5-1.4c-0.3-1-0.4-2.2-0.4-3.4c0-2.4,0.3-4.9,0.8-7.4c0.2-1.2,0.5-2.4,0.9-3.6
			c0.1,0.3,0.1,0.6,0.2,0.9c0.4,2,0.8,4,1,6.1c0.1,1.1,0.2,2.1,0.2,3.2C198.6,54.6,198.6,55.7,198.5,56.8z M208.3,28.6
			c-3.8,0-7-3.1-7-7s3.1-7,7-7c3.8,0,7,3.1,7,7S212.1,28.6,208.3,28.6z M219.2,53.9c-0.1,0.6-0.2,1.1-0.3,1.6
			c-0.1,0.4-0.2,0.7-0.4,0.9c0,0,0,0,0-0.1c-0.4-0.6-0.6-1.6-0.6-2.6c-0.1-2.1,0.3-4.4,0.8-6.6c0.1-0.4,0.2-0.8,0.3-1.2
			c0.2,1.5,0.4,3,0.4,4.4C219.3,51.5,219.3,52.7,219.2,53.9z M226.8,33.4c-2.7,0-4.9-2.2-4.9-4.9s2.2-4.9,4.9-4.9
			c2.7,0,4.9,2.2,4.9,4.9S229.6,33.4,226.8,33.4z"/>
	</g>
	<g>
		<path class="st0" d="M167.7,32.8c-0.2-0.3-0.5-0.5-0.8-0.8l-0.2-0.2l-0.2-0.2l-0.4-0.3c-0.3-0.2-0.6-0.5-1-0.7
			c-0.3-0.2-0.7-0.4-1-0.6c-0.3-0.1-0.6-0.3-0.9-0.4c-0.1,0-0.1,0.1-0.2,0.1c0.4,0.1,0.7,0.3,1.1,0.4c0.4,0.2,0.7,0.4,1,0.5
			c0.3,0.2,0.7,0.4,1,0.7l0.4,0.3l0.2,0.2l0.2,0.2C167.2,32.3,167.4,32.6,167.7,32.8c0.2,0.2,0.4,0.5,0.7,0.8
			C168.1,33.3,167.9,33.1,167.7,32.8z"/>
	</g>
</g>
</svg>
