<?xml version="1.0" encoding="utf-8"?>
<!-- Generator: Adobe Illustrator 22.0.1, SVG Export Plug-In . SVG Version: 6.00 Build 0)  -->
<svg version="1.1" id="Layer_1" xmlns="http://www.w3.org/2000/svg" xmlns:xlink="http://www.w3.org/1999/xlink" x="0px" y="0px"
	 viewBox="0 0 370.1 169.3" style="enable-background:new 0 0 370.1 169.3;" xml:space="preserve">
<style type="text/css">
	.st0{fill:#fff;}
</style>
<g>
	<g>
		<path class="st0" d="M2.8,102.4v7.2H0.7V92.3h4.4c0.8,0,1.4,0,1.9,0.1s1,0.1,1.4,0.3c1.2,0.4,2.1,0.9,2.7,1.6
			c0.6,0.8,0.9,1.8,0.9,2.9c0,0.7-0.1,1.3-0.4,1.9s-0.6,1-0.9,1.4c-0.4,0.4-0.9,0.7-1.4,1c-0.6,0.3-1.2,0.4-1.9,0.6v0.1l5.1,7.4
			h-2.1l-5.3-7.2L2.8,102.4L2.8,102.4z M2.8,94.2v6.3h2.1c0.6,0,1.2,0,1.6-0.1s0.9-0.1,1.2-0.2c0.7-0.2,1.3-0.6,1.7-1.1
			S10,98,10,97.2c0-0.7-0.2-1.4-0.6-1.8s-0.9-0.8-1.5-1c-0.3-0.1-0.6-0.1-1.1-0.2c-0.4-0.1-1-0.1-1.6-0.1L2.8,94.2L2.8,94.2z"/>
		<path class="st0" d="M22.7,108.1c0.6,0,1.3-0.1,1.8-0.1c0.6-0.1,1.1-0.3,1.6-0.4v1.6c-0.4,0.2-1,0.4-1.6,0.5
			c-0.6,0.1-1.4,0.2-2.1,0.2c-0.9,0-1.7-0.1-2.4-0.4c-0.8-0.2-1.4-0.6-2-1.1c-0.6-0.5-1-1.1-1.3-1.9c-0.3-0.8-0.5-1.8-0.5-2.9
			c0-1.1,0.1-2.1,0.4-2.9c0.3-0.8,0.7-1.5,1.2-2.1c0.5-0.6,1.1-0.9,1.8-1.2c0.6-0.3,1.4-0.4,2.1-0.4c0.7,0,1.4,0.1,1.9,0.4
			c0.6,0.2,1.1,0.6,1.6,1.1c0.4,0.5,0.8,1.1,1,1.9c0.3,0.8,0.4,1.7,0.4,2.8c0,0.1,0,0.2,0,0.3c0,0.1,0,0.2,0,0.5h-8.4
			c0,0.8,0.1,1.4,0.4,2c0.2,0.6,0.6,1,1,1.4s0.9,0.6,1.4,0.7C21.5,108,22,108.1,22.7,108.1z M21.6,98.7c-0.4,0-0.9,0.1-1.3,0.3
			c-0.4,0.2-0.7,0.4-1,0.7s-0.5,0.6-0.7,1.1c-0.2,0.4-0.3,0.9-0.4,1.4h6.2c0-0.5-0.1-0.9-0.2-1.4c-0.1-0.4-0.3-0.8-0.6-1.1
			c-0.2-0.3-0.6-0.6-0.9-0.7C22.5,98.8,22.1,98.7,21.6,98.7z"/>
		<path class="st0" d="M36.1,97c0.5,0,1,0.1,1.4,0.2c0.4,0.1,0.7,0.3,1,0.5c0.3,0.2,0.5,0.4,0.6,0.6c0.1,0.2,0.3,0.4,0.4,0.4h0.1
			l0.4-1.4h1.5v12.9c0,0.9-0.1,1.8-0.4,2.4c-0.3,0.7-0.7,1.3-1.3,1.7s-1.2,0.8-2,1c-0.8,0.2-1.6,0.4-2.6,0.4c-0.8,0-1.5-0.1-2.1-0.2
			c-0.6-0.1-1.1-0.3-1.5-0.5v-1.7c0.3,0.1,0.6,0.2,0.9,0.3c0.3,0.1,0.6,0.1,0.9,0.2c0.3,0.1,0.6,0.1,0.9,0.1c0.3,0,0.6,0.1,1,0.1
			c1.4,0,2.5-0.4,3.3-1s1.1-1.7,1.1-3.1v-1.6h-0.1c-0.4,0.5-0.9,0.9-1.5,1.1c-0.6,0.2-1.2,0.4-2,0.4c-0.4,0-0.7-0.1-1.1-0.1
			c-0.4-0.1-0.8-0.2-1.2-0.4c-0.4-0.2-0.8-0.4-1.1-0.7c-0.4-0.3-0.6-0.7-0.9-1.1c-0.3-0.4-0.5-1-0.6-1.6c-0.1-0.6-0.3-1.4-0.3-2.1
			c0-1.1,0.1-2.1,0.4-3c0.3-0.9,0.7-1.5,1.2-2.1c0.5-0.6,1.1-0.9,1.7-1.2C34.7,97.1,35.4,97,36.1,97z M32.7,103.5
			c0,0.9,0.1,1.7,0.4,2.4c0.2,0.6,0.5,1.1,0.9,1.4c0.4,0.4,0.7,0.6,1.1,0.7c0.4,0.1,0.8,0.2,1.2,0.2c0.6,0,1.2-0.1,1.7-0.4
			c0.6-0.2,1-0.6,1.4-1v-6.4c-0.1-0.1-0.3-0.4-0.4-0.5c-0.2-0.2-0.4-0.4-0.7-0.6c-0.3-0.1-0.6-0.3-0.9-0.4c-0.4-0.1-0.7-0.1-1.1-0.1
			c-0.6,0-1.1,0.1-1.6,0.4c-0.4,0.2-0.9,0.6-1.1,1c-0.3,0.4-0.5,0.9-0.7,1.5C32.8,102.2,32.7,102.8,32.7,103.5z"/>
		<path class="st0" d="M46.7,94.4v-2.2h2v2.2H46.7z M46.8,109.5V97.3h2v12.2H46.8z"/>
		<path class="st0" d="M65,103.5c0,0.9-0.1,1.9-0.4,2.6c-0.3,0.8-0.6,1.4-1.1,2c-0.5,0.6-1.1,1-1.8,1.3c-0.7,0.3-1.5,0.4-2.4,0.4
			c-0.9,0-1.7-0.1-2.4-0.4c-0.7-0.3-1.4-0.7-1.9-1.3c-0.5-0.6-0.9-1.2-1.1-2s-0.4-1.6-0.4-2.6c0-1,0.1-1.9,0.4-2.6
			c0.3-0.8,0.6-1.5,1.1-2c0.5-0.6,1.1-1,1.9-1.3c0.7-0.3,1.5-0.4,2.4-0.4s1.7,0.1,2.4,0.4c0.7,0.3,1.4,0.7,1.9,1.3
			c0.5,0.6,0.9,1.2,1.1,2C65,101.6,65,102.5,65,103.5z M62.9,103.5c0-0.8-0.1-1.4-0.3-2c-0.2-0.6-0.4-1.1-0.8-1.5
			c-0.4-0.4-0.7-0.7-1.1-0.9c-0.4-0.2-0.9-0.3-1.5-0.3c-0.6,0-1.1,0.1-1.5,0.3c-0.4,0.2-0.9,0.5-1.1,0.9c-0.4,0.4-0.6,0.9-0.8,1.5
			c-0.2,0.6-0.3,1.3-0.3,2c0,0.7,0.1,1.4,0.3,2c0.2,0.6,0.4,1.1,0.8,1.5c0.4,0.4,0.7,0.7,1.2,0.9c0.5,0.2,0.9,0.3,1.5,0.3
			c0.6,0,1-0.1,1.5-0.3c0.4-0.2,0.9-0.5,1.1-0.9c0.4-0.4,0.6-0.9,0.8-1.5C62.8,104.9,62.9,104.2,62.9,103.5z"/>
		<path class="st0" d="M71.4,99L71.4,99c0.3-0.3,0.5-0.6,0.8-0.8c0.3-0.2,0.6-0.4,0.9-0.6c0.4-0.2,0.7-0.4,1.1-0.4
			c0.4-0.1,0.9-0.1,1.3-0.1c0.6,0,1.1,0.1,1.6,0.2c0.5,0.1,0.9,0.4,1.3,0.7c0.4,0.4,0.6,0.8,0.9,1.4c0.2,0.6,0.3,1.2,0.3,2.1v8.2h-2
			v-7.9c0-1.1-0.2-1.8-0.6-2.3c-0.4-0.4-1-0.7-1.8-0.7c-0.7,0-1.4,0.2-2,0.6c-0.6,0.4-1.2,0.9-1.6,1.6v8.7h-2V97.3H71L71.4,99z"/>
		<path class="st0" d="M91.9,108.2L91.9,108.2c-0.2,0.2-0.4,0.4-0.6,0.6c-0.2,0.2-0.6,0.4-0.9,0.6c-0.4,0.1-0.7,0.3-1.1,0.4
			s-0.8,0.1-1.2,0.1c-0.6,0-1.1-0.1-1.6-0.3c-0.5-0.1-0.9-0.4-1.3-0.8s-0.6-0.8-0.9-1.2c-0.2-0.5-0.3-1.1-0.3-1.6
			c0-0.6,0.1-1.1,0.4-1.6c0.2-0.5,0.5-0.9,0.9-1.2c0.4-0.4,0.9-0.6,1.4-0.8c0.6-0.2,1.1-0.3,1.9-0.3c0.6,0,1.2,0.1,1.8,0.1
			c0.6,0.1,1,0.2,1.4,0.4h0.1v-0.9c0-0.4,0-0.6-0.1-0.9c-0.1-0.3-0.1-0.5-0.2-0.7c-0.2-0.4-0.6-0.8-1.1-1c-0.5-0.3-1.1-0.4-2-0.4
			c-0.6,0-1.2,0.1-1.7,0.1c-0.6,0.1-1.1,0.3-1.6,0.5v-1.6c0.2-0.1,0.4-0.2,0.7-0.3c0.3-0.1,0.6-0.1,0.9-0.2c0.3-0.1,0.6-0.1,1-0.1
			c0.4,0,0.7-0.1,1-0.1c1.2,0,2.2,0.2,3,0.6s1.4,1,1.7,1.7c0.1,0.3,0.2,0.6,0.3,0.9c0.1,0.4,0.1,0.7,0.1,1.1v8.2h-1.6L91.9,108.2z
			 M91.7,104.2c-0.4-0.1-0.8-0.2-1.3-0.3c-0.5-0.1-1.1-0.1-1.6-0.1c-0.9,0-1.5,0.2-2,0.6c-0.5,0.4-0.7,0.9-0.7,1.6
			c0,0.4,0.1,0.7,0.2,1s0.3,0.5,0.5,0.7c0.2,0.2,0.4,0.3,0.7,0.4c0.3,0.1,0.6,0.1,0.9,0.1c0.4,0,0.9-0.1,1.2-0.2
			c0.4-0.1,0.7-0.3,1-0.4c0.3-0.1,0.5-0.4,0.7-0.5c0.2-0.1,0.4-0.3,0.4-0.4L91.7,104.2L91.7,104.2z"/>
		<path class="st0" d="M99,109.5V90.9h2v18.7H99z"/>
		<path class="st0" d="M127.2,100.9c0,1-0.1,1.9-0.4,2.9c-0.2,0.9-0.6,1.7-1.1,2.4c-0.5,0.7-1.1,1.3-1.9,1.9
			c-0.7,0.5-1.6,0.9-2.6,1.2c-0.6,0.1-1.2,0.3-1.9,0.4c-0.6,0.1-1.4,0.1-2.1,0.1h-3.9V92.4h3.9c0.8,0,1.5,0,2.1,0.1s1.3,0.1,1.9,0.4
			c1,0.3,1.9,0.6,2.6,1.2c0.8,0.5,1.4,1.1,1.9,1.8c0.5,0.7,0.9,1.5,1.1,2.4C127.1,99,127.2,99.9,127.2,100.9z M125,100.9
			c0-1.6-0.4-3-1.1-4c-0.7-1-1.8-1.8-3.1-2.2c-0.5-0.1-1.1-0.3-1.7-0.4c-0.6-0.1-1.4-0.1-2.1-0.1h-1.6v13.4h1.6c0.8,0,1.5,0,2.1-0.1
			c0.6-0.1,1.2-0.1,1.7-0.4c1.4-0.4,2.4-1.2,3.1-2.3C124.7,103.9,125,102.5,125,100.9z"/>
		<path class="st0" d="M137.8,108.1c0.6,0,1.3-0.1,1.8-0.1c0.6-0.1,1.1-0.3,1.6-0.4v1.6c-0.4,0.2-1,0.4-1.6,0.5
			c-0.6,0.1-1.4,0.2-2.1,0.2c-0.9,0-1.7-0.1-2.4-0.4c-0.8-0.2-1.4-0.6-2-1.1c-0.6-0.5-1-1.1-1.3-1.9c-0.3-0.8-0.5-1.8-0.5-2.9
			c0-1.1,0.1-2.1,0.4-2.9c0.3-0.8,0.7-1.5,1.2-2.1c0.5-0.6,1.1-0.9,1.8-1.2c0.6-0.3,1.4-0.4,2.1-0.4c0.7,0,1.4,0.1,1.9,0.4
			c0.6,0.2,1.1,0.6,1.6,1.1c0.4,0.5,0.8,1.1,1,1.9c0.3,0.8,0.4,1.7,0.4,2.8c0,0.1,0,0.2,0,0.3c0,0.1,0,0.2,0,0.5h-8.4
			c0,0.8,0.1,1.4,0.4,2c0.2,0.6,0.6,1,1,1.4c0.4,0.4,0.9,0.6,1.4,0.7C136.6,108,137.1,108.1,137.8,108.1z M136.7,98.7
			c-0.4,0-0.9,0.1-1.3,0.3c-0.4,0.2-0.7,0.4-1,0.7c-0.3,0.3-0.5,0.6-0.7,1.1s-0.3,0.9-0.4,1.4h6.2c0-0.5-0.1-0.9-0.2-1.4
			c-0.1-0.4-0.3-0.8-0.6-1.1c-0.2-0.3-0.6-0.6-0.9-0.7C137.6,98.8,137.2,98.7,136.7,98.7z"/>
		<path class="st0" d="M150.4,107.5c0.3-0.9,0.7-2,1.2-3.4l2.4-6.8h2l-4.6,12.2h-2.1l-4.6-12.2h2l2.4,6.8
			C149.7,105.5,150,106.6,150.4,107.5L150.4,107.5z"/>
		<path class="st0" d="M165.6,108.1c0.6,0,1.3-0.1,1.8-0.1c0.6-0.1,1.1-0.3,1.6-0.4v1.6c-0.4,0.2-1,0.4-1.6,0.5
			c-0.6,0.1-1.4,0.2-2.1,0.2c-0.9,0-1.7-0.1-2.4-0.4c-0.8-0.2-1.4-0.6-2-1.1c-0.6-0.5-1-1.1-1.3-1.9c-0.3-0.8-0.5-1.8-0.5-2.9
			c0-1.1,0.1-2.1,0.4-2.9c0.3-0.8,0.7-1.5,1.2-2.1c0.5-0.6,1.1-0.9,1.8-1.2c0.6-0.3,1.4-0.4,2.1-0.4s1.4,0.1,1.9,0.4
			c0.6,0.2,1.1,0.6,1.6,1.1c0.4,0.5,0.8,1.1,1,1.9c0.3,0.8,0.4,1.7,0.4,2.8c0,0.1,0,0.2,0,0.3c0,0.1,0,0.2,0,0.5H161
			c0,0.8,0.1,1.4,0.4,2c0.2,0.6,0.6,1,1,1.4c0.4,0.4,0.9,0.6,1.4,0.7C164.3,108,165,108.1,165.6,108.1z M164.5,98.7
			c-0.4,0-0.9,0.1-1.3,0.3c-0.4,0.2-0.7,0.4-1,0.7s-0.5,0.6-0.7,1.1s-0.3,0.9-0.4,1.4h6.2c0-0.5-0.1-0.9-0.2-1.4
			c-0.1-0.4-0.3-0.8-0.6-1.1c-0.2-0.3-0.6-0.6-0.9-0.7C165.4,98.8,165,98.7,164.5,98.7z"/>
		<path class="st0" d="M174.3,109.5V90.9h2v18.7H174.3z"/>
		<path class="st0" d="M192.6,103.5c0,0.9-0.1,1.9-0.4,2.6c-0.3,0.8-0.6,1.4-1.1,2c-0.5,0.6-1.1,1-1.8,1.3c-0.7,0.3-1.5,0.4-2.4,0.4
			c-0.9,0-1.7-0.1-2.4-0.4c-0.7-0.3-1.4-0.7-1.9-1.3c-0.5-0.6-0.9-1.2-1.1-2s-0.4-1.6-0.4-2.6c0-1,0.1-1.9,0.4-2.6s0.6-1.5,1.1-2
			c0.5-0.6,1.1-1,1.9-1.3c0.7-0.3,1.5-0.4,2.4-0.4c0.9,0,1.7,0.1,2.4,0.4c0.7,0.3,1.4,0.7,1.9,1.3c0.5,0.6,0.9,1.2,1.1,2
			C192.6,101.6,192.6,102.5,192.6,103.5z M190.5,103.5c0-0.8-0.1-1.4-0.3-2c-0.2-0.6-0.4-1.1-0.8-1.5c-0.4-0.4-0.7-0.7-1.1-0.9
			c-0.4-0.2-0.9-0.3-1.5-0.3c-0.6,0-1.1,0.1-1.5,0.3c-0.4,0.2-0.9,0.5-1.1,0.9c-0.4,0.4-0.6,0.9-0.8,1.5s-0.3,1.3-0.3,2
			c0,0.7,0.1,1.4,0.3,2c0.2,0.6,0.4,1.1,0.8,1.5c0.4,0.4,0.7,0.7,1.2,0.9c0.4,0.2,0.9,0.3,1.5,0.3c0.6,0,1-0.1,1.5-0.3
			c0.4-0.2,0.9-0.5,1.1-0.9c0.4-0.4,0.6-0.9,0.8-1.5C190.4,104.9,190.5,104.2,190.5,103.5z"/>
		<path class="st0" d="M207.9,103.3c0,0.9-0.1,1.6-0.3,2.3c-0.1,0.6-0.4,1.2-0.6,1.7c-0.3,0.5-0.6,0.9-1,1.2
			c-0.4,0.4-0.8,0.6-1.1,0.8c-0.4,0.2-0.8,0.4-1.2,0.4c-0.4,0.1-0.8,0.1-1.1,0.1c-0.7,0-1.4-0.1-1.9-0.4c-0.6-0.2-1.1-0.6-1.5-1.1
			h-0.1v7.2H197V97.4h1.5l0.4,1.4h0.1c0.1-0.1,0.3-0.4,0.4-0.5c0.1-0.1,0.4-0.4,0.7-0.5c0.3-0.2,0.6-0.4,1.1-0.5
			c0.4-0.1,0.9-0.2,1.4-0.2c0.7,0,1.4,0.1,2,0.4s1.2,0.6,1.7,1.1c0.5,0.5,0.9,1.1,1.1,1.9C207.7,101.2,207.9,102.2,207.9,103.3z
			 M205.8,103.3c0-0.7-0.1-1.4-0.2-1.9c-0.1-0.6-0.4-1.1-0.7-1.4c-0.3-0.4-0.6-0.7-1.1-0.9c-0.4-0.2-0.9-0.3-1.5-0.3
			c-0.4,0-0.8,0.1-1.1,0.1c-0.4,0.1-0.6,0.3-0.9,0.4c-0.3,0.1-0.5,0.4-0.7,0.6c-0.2,0.2-0.4,0.4-0.5,0.5v6.4c0.4,0.4,0.9,0.8,1.4,1
			c0.5,0.2,1.1,0.4,1.7,0.4c0.4,0,0.8-0.1,1.2-0.2c0.4-0.1,0.8-0.4,1.1-0.8c0.4-0.4,0.6-0.9,0.9-1.5
			C205.7,105.1,205.8,104.3,205.8,103.3z"/>
		<path class="st0" d="M222.3,109.5h-2v-7.9c0-0.5-0.1-1-0.1-1.4c-0.1-0.4-0.3-0.7-0.5-0.9c-0.2-0.2-0.5-0.4-0.8-0.5
			c-0.3-0.1-0.6-0.1-1-0.1c-0.7,0-1.4,0.2-1.9,0.6c-0.6,0.4-1.1,0.9-1.6,1.6v8.7h-2V97.4h1.6l0.4,1.7h0.1c0.2-0.3,0.5-0.6,0.7-0.8
			c0.3-0.2,0.6-0.4,0.9-0.6c0.3-0.2,0.6-0.4,1.1-0.4c0.4-0.1,0.8-0.1,1.3-0.1c0.9,0,1.6,0.2,2.3,0.6c0.6,0.4,1.1,1,1.4,1.8h0.1
			c0.6-0.8,1.1-1.4,1.9-1.8c0.7-0.4,1.5-0.6,2.4-0.6c0.4,0,0.9,0.1,1.4,0.2c0.5,0.1,0.9,0.4,1.4,0.6c0.4,0.4,0.7,0.8,1,1.4
			c0.3,0.6,0.4,1.3,0.4,2.2v8.2h-2v-7.9c0-0.5-0.1-1-0.1-1.4c-0.1-0.4-0.3-0.7-0.5-0.9c-0.2-0.2-0.5-0.4-0.8-0.5
			c-0.3-0.1-0.6-0.1-1-0.1c-0.7,0-1.4,0.2-1.9,0.6c-0.6,0.4-1.1,0.9-1.6,1.6v8.5H222.3z"/>
		<path class="st0" d="M241.4,108.1c0.6,0,1.3-0.1,1.8-0.1c0.6-0.1,1.1-0.3,1.6-0.4v1.6c-0.4,0.2-1,0.4-1.6,0.5
			c-0.6,0.1-1.4,0.2-2.1,0.2c-0.9,0-1.7-0.1-2.4-0.4c-0.8-0.2-1.4-0.6-2-1.1c-0.6-0.5-1-1.1-1.3-1.9c-0.3-0.8-0.5-1.8-0.5-2.9
			c0-1.1,0.1-2.1,0.4-2.9c0.3-0.8,0.7-1.5,1.2-2.1c0.5-0.6,1.1-0.9,1.8-1.2c0.6-0.3,1.4-0.4,2.1-0.4s1.4,0.1,1.9,0.4
			c0.6,0.2,1.1,0.6,1.6,1.1c0.4,0.5,0.8,1.1,1,1.9c0.2,0.7,0.4,1.7,0.4,2.8c0,0.1,0,0.2,0,0.3c0,0.1,0,0.2,0,0.5h-8.4
			c0,0.8,0.1,1.4,0.4,2c0.2,0.6,0.6,1,0.9,1.4c0.4,0.4,0.9,0.6,1.4,0.7C240.1,108,240.7,108.1,241.4,108.1z M240.3,98.7
			c-0.4,0-0.9,0.1-1.3,0.3c-0.4,0.2-0.7,0.4-1,0.7c-0.3,0.3-0.5,0.6-0.7,1.1c-0.2,0.4-0.3,0.9-0.4,1.4h6.2c0-0.5-0.1-0.9-0.2-1.4
			c-0.1-0.4-0.3-0.8-0.6-1.1c-0.2-0.3-0.6-0.6-0.9-0.7C241.1,98.8,240.7,98.7,240.3,98.7z"/>
		<path class="st0" d="M251.9,99L251.9,99c0.3-0.3,0.5-0.6,0.8-0.8c0.3-0.2,0.6-0.4,0.9-0.6c0.4-0.2,0.7-0.4,1.1-0.4
			c0.4-0.1,0.9-0.1,1.3-0.1c0.6,0,1.1,0.1,1.6,0.2c0.5,0.1,0.9,0.4,1.3,0.7c0.4,0.4,0.6,0.8,0.9,1.4c0.2,0.6,0.3,1.2,0.3,2.1v8.2h-2
			v-7.9c0-1.1-0.2-1.8-0.6-2.3c-0.4-0.4-1-0.7-1.8-0.7c-0.7,0-1.4,0.2-2,0.6c-0.6,0.4-1.2,0.9-1.6,1.6v8.7h-2V97.3h1.6L251.9,99z"/>
		<path class="st0" d="M271.6,109.5c-0.1,0.1-0.4,0.1-0.8,0.2c-0.4,0.1-0.8,0.1-1.3,0.1c-0.6,0-1.2-0.1-1.6-0.2
			c-0.5-0.1-0.9-0.4-1.1-0.7c-0.3-0.3-0.6-0.6-0.7-1.1s-0.2-0.9-0.2-1.4V99h-2.4v-1.7h2.4v-3.4h2v3.4h3.6V99h-3.6v7.2
			c0,0.3,0.1,0.6,0.1,0.8c0.1,0.2,0.2,0.4,0.4,0.6c0.1,0.1,0.4,0.3,0.6,0.4c0.3,0.1,0.6,0.1,1,0.1c0.3,0,0.6,0,0.9-0.1
			c0.3-0.1,0.6-0.1,0.8-0.1L271.6,109.5L271.6,109.5z"/>
		<path class="st0" d="M283.6,96.9c0,0.5,0.1,0.9,0.3,1.3c0.2,0.4,0.5,0.6,0.9,0.8c0.4,0.2,0.7,0.4,1.2,0.5c0.4,0.1,0.9,0.3,1.4,0.4
			c0.6,0.1,1.4,0.4,2,0.6c0.6,0.2,1.2,0.5,1.7,0.8c0.5,0.4,0.9,0.8,1.2,1.4c0.3,0.6,0.5,1.3,0.5,2.1s-0.1,1.6-0.5,2.3
			c-0.4,0.6-0.8,1.2-1.4,1.6c-0.6,0.4-1.3,0.7-2.1,0.9c-0.8,0.2-1.7,0.3-2.6,0.3c-0.4,0-0.9,0-1.4-0.1s-0.9-0.1-1.4-0.2
			s-0.8-0.2-1.1-0.3c-0.4-0.1-0.6-0.2-0.8-0.4v-1.9c0.3,0.1,0.6,0.3,1.1,0.4c0.4,0.1,0.8,0.2,1.2,0.4c0.4,0.1,0.9,0.1,1.2,0.2
			c0.4,0.1,0.8,0.1,1.2,0.1c0.6,0,1.1-0.1,1.7-0.1c0.6-0.1,1-0.3,1.4-0.5c0.4-0.2,0.7-0.6,1-1c0.2-0.4,0.4-0.9,0.4-1.6
			c0-0.5-0.1-0.9-0.3-1.3c-0.2-0.4-0.5-0.6-0.9-0.9c-0.4-0.2-0.8-0.4-1.2-0.5c-0.4-0.1-0.9-0.3-1.4-0.4c-0.6-0.1-1.4-0.4-1.9-0.5
			c-0.6-0.2-1.2-0.4-1.7-0.8s-0.9-0.8-1.2-1.4c-0.3-0.6-0.4-1.2-0.4-2.1c0-0.9,0.1-1.6,0.5-2.3c0.4-0.6,0.8-1.1,1.3-1.6
			c0.6-0.4,1.1-0.7,1.9-0.9c0.7-0.2,1.5-0.3,2.3-0.3c0.9,0,1.8,0.1,2.6,0.3c0.8,0.1,1.5,0.4,2.2,0.7v1.9c-0.7-0.3-1.4-0.6-2.2-0.7
			c-0.8-0.2-1.6-0.3-2.4-0.3c-0.6,0-1.2,0.1-1.7,0.2c-0.5,0.1-0.9,0.4-1.2,0.6c-0.3,0.3-0.6,0.6-0.7,0.9
			C283.8,95.9,283.6,96.4,283.6,96.9z"/>
		<path class="st0" d="M308.4,103.5c0,0.9-0.1,1.9-0.4,2.6c-0.3,0.8-0.6,1.4-1.1,2c-0.5,0.6-1.1,1-1.8,1.3c-0.7,0.3-1.5,0.4-2.4,0.4
			c-0.9,0-1.7-0.1-2.4-0.4c-0.7-0.3-1.4-0.7-1.9-1.3c-0.5-0.6-0.9-1.2-1.1-2c-0.3-0.8-0.4-1.6-0.4-2.6c0-1,0.1-1.9,0.4-2.6
			c0.3-0.8,0.6-1.5,1.1-2c0.5-0.6,1.1-1,1.9-1.3c0.7-0.3,1.5-0.4,2.4-0.4c0.9,0,1.7,0.1,2.4,0.4c0.7,0.3,1.4,0.7,1.9,1.3
			c0.5,0.6,0.9,1.2,1.1,2C308.4,101.6,308.4,102.5,308.4,103.5z M306.3,103.5c0-0.8-0.1-1.4-0.3-2c-0.2-0.6-0.4-1.1-0.8-1.5
			c-0.4-0.4-0.7-0.7-1.1-0.9c-0.4-0.2-0.9-0.3-1.5-0.3s-1.1,0.1-1.5,0.3c-0.4,0.2-0.9,0.5-1.1,0.9c-0.4,0.4-0.6,0.9-0.8,1.5
			c-0.2,0.6-0.3,1.3-0.3,2c0,0.7,0.1,1.4,0.3,2c0.2,0.6,0.4,1.1,0.8,1.5c0.4,0.4,0.7,0.7,1.2,0.9c0.4,0.2,0.9,0.3,1.5,0.3
			c0.6,0,1-0.1,1.5-0.3c0.4-0.2,0.9-0.5,1.1-0.9c0.4-0.4,0.6-0.9,0.8-1.5C306.2,104.9,306.3,104.2,306.3,103.5z"/>
		<path class="st0" d="M318.1,97c0.6,0,1.1,0.1,1.7,0.2c0.6,0.1,1,0.3,1.4,0.5v1.6c-0.6-0.2-1.1-0.4-1.5-0.4s-0.9-0.1-1.4-0.1
			c-0.5,0-1,0.1-1.5,0.2c-0.5,0.1-0.9,0.4-1.3,0.8c-0.4,0.4-0.7,0.9-0.9,1.5c-0.2,0.6-0.4,1.4-0.4,2.3c0,0.6,0.1,1.3,0.3,1.9
			c0.2,0.6,0.4,1.1,0.8,1.4c0.4,0.4,0.8,0.7,1.3,0.9c0.5,0.2,1.1,0.4,1.8,0.4c0.5,0,1-0.1,1.5-0.1c0.5-0.1,1-0.3,1.5-0.4v1.6
			c-0.1,0.1-0.4,0.1-0.6,0.3c-0.2,0.1-0.5,0.1-0.8,0.2s-0.6,0.1-0.9,0.1c-0.3,0.1-0.6,0.1-0.9,0.1c-0.9,0-1.6-0.1-2.4-0.4
			c-0.7-0.2-1.4-0.6-1.9-1.1c-0.6-0.5-1-1.1-1.3-1.9c-0.3-0.8-0.5-1.7-0.5-2.8c0-0.8,0.1-1.5,0.3-2.1c0.1-0.6,0.4-1.2,0.7-1.7
			c0.3-0.5,0.6-0.9,1-1.2c0.4-0.4,0.8-0.6,1.2-0.9c0.4-0.2,0.9-0.4,1.4-0.5C317.2,97,317.7,97,318.1,97z"/>
		<path class="st0" d="M325.8,94.4v-2.2h2v2.2H325.8z M325.9,109.5V97.3h2v12.2H325.9z"/>
		<path class="st0" d="M339,108.1c0.6,0,1.3-0.1,1.8-0.1c0.6-0.1,1.1-0.3,1.6-0.4v1.6c-0.4,0.2-1,0.4-1.6,0.5
			c-0.6,0.1-1.4,0.2-2.1,0.2c-0.9,0-1.7-0.1-2.4-0.4c-0.8-0.2-1.4-0.6-2-1.1c-0.6-0.5-1-1.1-1.3-1.9c-0.3-0.8-0.5-1.8-0.5-2.9
			c0-1.1,0.1-2.1,0.4-2.9c0.3-0.8,0.7-1.5,1.2-2.1c0.5-0.6,1.1-0.9,1.8-1.2c0.6-0.3,1.4-0.4,2.1-0.4c0.7,0,1.4,0.1,1.9,0.4
			c0.6,0.2,1.1,0.6,1.6,1.1c0.4,0.5,0.8,1.1,1,1.9s0.4,1.7,0.4,2.8c0,0.1,0,0.2,0,0.3c0,0.1,0,0.2,0,0.5h-8.4c0,0.8,0.1,1.4,0.4,2
			c0.2,0.6,0.6,1,0.9,1.4c0.4,0.4,0.9,0.6,1.4,0.7C337.8,108,338.3,108.1,339,108.1z M337.9,98.7c-0.4,0-0.9,0.1-1.3,0.3
			c-0.4,0.2-0.7,0.4-1,0.7c-0.3,0.3-0.5,0.6-0.7,1.1s-0.3,0.9-0.4,1.4h6.2c0-0.5-0.1-0.9-0.2-1.4c-0.1-0.4-0.3-0.8-0.6-1.1
			c-0.2-0.3-0.6-0.6-0.9-0.7C338.8,98.8,338.4,98.7,337.9,98.7z"/>
		<path class="st0" d="M354.1,109.5c-0.1,0.1-0.4,0.1-0.8,0.2c-0.4,0.1-0.8,0.1-1.3,0.1c-0.6,0-1.2-0.1-1.6-0.2
			c-0.5-0.1-0.9-0.4-1.1-0.7c-0.3-0.3-0.6-0.6-0.7-1.1s-0.2-0.9-0.2-1.4V99h-2.4v-1.7h2.4v-3.4h2v3.4h3.6V99h-3.6v7.2
			c0,0.3,0.1,0.6,0.1,0.8c0.1,0.2,0.2,0.4,0.4,0.6c0.1,0.1,0.4,0.3,0.6,0.4c0.3,0.1,0.6,0.1,1,0.1c0.3,0,0.6,0,0.9-0.1
			c0.3-0.1,0.6-0.1,0.8-0.1V109.5L354.1,109.5z"/>
		<path class="st0" d="M356.5,97.3h2l3.8,9.6h0.1l3.9-9.6h2l-7.6,18.2h-2l2.6-6.2L356.5,97.3z"/>
		<path class="st0" d="M46.2,139.7c0,0.8,0.1,1.4,0.4,1.9c0.3,0.5,0.7,0.9,1.2,1.2c0.5,0.4,1.1,0.6,1.8,0.8c0.7,0.2,1.4,0.4,2.1,0.6
			c1,0.2,2,0.5,2.9,0.8c0.9,0.3,1.9,0.7,2.6,1.2c0.8,0.5,1.4,1.2,1.9,2c0.5,0.8,0.7,1.9,0.7,3.2c0,1.4-0.3,2.5-0.8,3.4
			c-0.5,1-1.2,1.8-2.1,2.4c-0.9,0.6-1.9,1.1-3.1,1.4c-1.2,0.3-2.6,0.4-4,0.4c-0.6,0-1.4-0.1-2.1-0.1c-0.7-0.1-1.4-0.2-2-0.4
			c-0.6-0.1-1.2-0.3-1.7-0.5c-0.5-0.2-0.9-0.4-1.2-0.6v-2.9c0.4,0.2,1,0.4,1.6,0.6c0.6,0.2,1.1,0.4,1.8,0.5c0.6,0.1,1.2,0.2,1.9,0.3
			s1.2,0.1,1.8,0.1c0.9,0,1.8-0.1,2.6-0.2c0.8-0.1,1.5-0.4,2.1-0.8c0.6-0.4,1.1-0.9,1.5-1.5c0.4-0.6,0.6-1.4,0.6-2.4
			c0-0.8-0.1-1.4-0.5-1.9c-0.3-0.5-0.7-0.9-1.3-1.2c-0.5-0.4-1.1-0.6-1.9-0.8c-0.7-0.2-1.4-0.4-2.1-0.6c-1-0.2-2-0.5-2.9-0.8
			c-0.9-0.3-1.8-0.7-2.6-1.2c-0.8-0.5-1.4-1.1-1.8-2c-0.4-0.8-0.7-1.9-0.7-3.1c0-1.3,0.2-2.4,0.7-3.4c0.5-0.9,1.1-1.7,1.9-2.4
			c0.8-0.6,1.8-1.1,2.9-1.4c1.1-0.3,2.2-0.4,3.4-0.4c1.4,0,2.6,0.1,3.9,0.4c1.2,0.3,2.3,0.6,3.3,1v2.9c-1.1-0.4-2.1-0.8-3.3-1.1
			c-1.1-0.3-2.4-0.4-3.6-0.4c-1,0-1.9,0.1-2.6,0.3c-0.7,0.2-1.3,0.5-1.8,0.9c-0.5,0.4-0.9,0.9-1.1,1.4
			C46.2,138.4,46.2,139,46.2,139.7z"/>
		<path class="st0" d="M73.3,139.9c0.9,0,1.7,0.1,2.6,0.3c0.8,0.2,1.5,0.4,2.1,0.8v2.5c-0.8-0.3-1.6-0.6-2.2-0.7
			c-0.7-0.1-1.4-0.2-2.1-0.2c-0.7,0-1.5,0.1-2.2,0.4c-0.7,0.2-1.4,0.6-2,1.2c-0.6,0.6-1.1,1.3-1.4,2.2c-0.4,0.9-0.5,2.1-0.5,3.4
			c0,1,0.1,1.9,0.4,2.7c0.3,0.9,0.6,1.6,1.1,2.1c0.5,0.6,1.1,1.1,1.9,1.4c0.8,0.4,1.7,0.5,2.7,0.5c0.7,0,1.5-0.1,2.3-0.2
			c0.8-0.1,1.5-0.4,2.2-0.7v2.5c-0.2,0.1-0.5,0.3-0.9,0.4c-0.4,0.1-0.7,0.2-1.1,0.4c-0.4,0.1-0.9,0.1-1.4,0.2
			c-0.5,0.1-0.9,0.1-1.4,0.1c-1.2,0-2.4-0.2-3.5-0.6c-1.1-0.4-2.1-0.9-2.9-1.7c-0.9-0.8-1.5-1.7-1.9-2.9s-0.7-2.6-0.7-4.2
			c0-1.2,0.1-2.3,0.4-3.3c0.3-1,0.6-1.8,1-2.6c0.4-0.7,0.9-1.4,1.5-1.9s1.2-0.9,1.9-1.3c0.6-0.4,1.4-0.6,2.1-0.7
			C72,139.9,72.7,139.9,73.3,139.9z"/>
		<path class="st0" d="M86.4,142.9L86.4,142.9c0.4-0.4,0.8-0.8,1.1-1.2c0.4-0.4,0.9-0.7,1.4-0.9c0.5-0.3,1.1-0.5,1.6-0.6
			c0.6-0.1,1.2-0.2,1.9-0.2c0.7,0,1.4,0.1,2.1,0.3c0.7,0.2,1.4,0.5,1.9,1c0.6,0.5,1.1,1.1,1.4,2c0.4,0.9,0.6,1.9,0.6,3.3v12.2h-3
			v-11.8c0-1.5-0.3-2.6-0.9-3.4c-0.6-0.7-1.5-1.1-2.7-1.1c-1.1,0-2.1,0.3-3,0.9c-0.9,0.6-1.8,1.4-2.5,2.4v13.1h-3v-28h3L86.4,142.9
			L86.4,142.9z"/>
		<path class="st0" d="M121,149.5c0,1.4-0.2,2.8-0.6,3.9c-0.4,1.2-1,2.2-1.7,3.1c-0.8,0.9-1.6,1.5-2.7,1.9c-1.1,0.4-2.3,0.7-3.6,0.7
			c-1.4,0-2.6-0.2-3.6-0.7c-1.1-0.4-2-1.1-2.7-1.9c-0.8-0.9-1.4-1.9-1.7-3.1c-0.4-1.2-0.6-2.5-0.6-3.9c0-1.4,0.2-2.8,0.6-3.9
			c0.4-1.2,1-2.2,1.7-3.1c0.7-0.9,1.6-1.5,2.7-2c1.1-0.5,2.3-0.7,3.6-0.7c1.4,0,2.6,0.2,3.6,0.7c1.1,0.4,2,1.1,2.7,2
			c0.7,0.9,1.3,1.9,1.7,3.1C120.8,146.8,121,148.1,121,149.5z M117.9,149.5c0-1.1-0.1-2.1-0.4-3c-0.3-0.9-0.6-1.6-1.1-2.2
			c-0.5-0.6-1.1-1.1-1.8-1.4c-0.7-0.3-1.4-0.5-2.2-0.5c-0.8,0-1.6,0.1-2.2,0.5c-0.7,0.3-1.3,0.8-1.8,1.4c-0.5,0.6-0.9,1.4-1.1,2.2
			c-0.3,0.9-0.4,1.9-0.4,3c0,1.1,0.1,2.1,0.4,3c0.3,0.9,0.6,1.6,1.1,2.2c0.5,0.6,1.1,1.1,1.8,1.4c0.7,0.3,1.4,0.5,2.2,0.5
			c0.8,0,1.6-0.1,2.2-0.5c0.6-0.3,1.3-0.8,1.8-1.4c0.5-0.6,0.9-1.4,1.1-2.2C117.8,151.7,117.9,150.7,117.9,149.5z"/>
		<path class="st0" d="M126.3,158.7v-28h3v28H126.3z"/>
		<path class="st0" d="M146.4,156.7L146.4,156.7c-0.3,0.3-0.6,0.6-1,0.9c-0.4,0.3-0.8,0.6-1.3,0.8c-0.5,0.2-1,0.4-1.6,0.6
			c-0.6,0.1-1.2,0.2-1.9,0.2c-0.9,0-1.7-0.1-2.4-0.4c-0.7-0.3-1.4-0.6-1.9-1.1c-0.5-0.5-0.9-1.1-1.2-1.9c-0.3-0.7-0.4-1.6-0.4-2.5
			s0.1-1.7,0.5-2.4s0.8-1.4,1.4-1.9c0.6-0.5,1.3-0.9,2.1-1.1c0.9-0.3,1.7-0.4,2.7-0.4c0.9,0,1.9,0.1,2.6,0.3
			c0.8,0.1,1.5,0.4,2.1,0.6h0.1v-1.3c0-0.5,0-0.9-0.1-1.4c-0.1-0.4-0.1-0.7-0.4-1c-0.4-0.6-0.9-1.1-1.6-1.5c-0.7-0.4-1.7-0.6-3-0.6
			c-0.9,0-1.8,0.1-2.6,0.3c-0.8,0.1-1.6,0.4-2.4,0.7v-2.5c0.3-0.1,0.6-0.3,1.1-0.4c0.4-0.1,0.9-0.3,1.3-0.4c0.4-0.1,0.9-0.1,1.5-0.2
			c0.5-0.1,1-0.1,1.6-0.1c1.9,0,3.4,0.4,4.6,1c1.1,0.6,2,1.5,2.6,2.6c0.2,0.4,0.4,0.9,0.4,1.4c0.1,0.5,0.1,1.1,0.1,1.6v12.2h-2.5
			L146.4,156.7z M146.3,150.7c-0.6-0.1-1.2-0.3-1.9-0.4c-0.8-0.1-1.6-0.2-2.5-0.2c-1.3,0-2.3,0.3-3,0.8c-0.7,0.6-1.1,1.4-1.1,2.5
			c0,0.6,0.1,1.1,0.3,1.5c0.2,0.4,0.4,0.8,0.7,1.1c0.3,0.3,0.7,0.5,1.1,0.6c0.4,0.1,0.9,0.2,1.4,0.2c0.6,0,1.2-0.1,1.8-0.3
			c0.6-0.2,1.1-0.4,1.5-0.6c0.4-0.3,0.8-0.5,1.1-0.8c0.3-0.3,0.5-0.4,0.6-0.6V150.7z"/>
		<path class="st0" d="M165.5,142.8h-0.2c-0.7,0-1.4,0.1-2.1,0.2c-0.7,0.1-1.4,0.4-1.9,0.6c-0.6,0.3-1.1,0.6-1.6,1
			c-0.5,0.4-0.9,0.9-1.2,1.4v12.7h-3v-18.4h2.3l0.6,2.9h0.1c0.3-0.5,0.6-0.9,1.1-1.4c0.4-0.4,0.9-0.8,1.4-1.1
			c0.6-0.3,1.1-0.6,1.8-0.7c0.6-0.1,1.3-0.3,2-0.3c0.1,0,0.3,0,0.4,0c0.1,0,0.3,0,0.4,0L165.5,142.8L165.5,142.8z"/>
		<path class="st0" d="M171.3,145.2c0,0.5,0.1,0.9,0.3,1.2c0.2,0.3,0.5,0.6,0.9,0.8c0.4,0.2,0.8,0.4,1.2,0.5
			c0.5,0.1,0.9,0.2,1.4,0.4c0.7,0.1,1.4,0.4,1.9,0.5c0.6,0.2,1.2,0.5,1.7,0.9c0.5,0.4,0.9,0.9,1.3,1.5c0.3,0.6,0.5,1.4,0.5,2.5
			c0,0.9-0.2,1.7-0.6,2.4c-0.4,0.7-0.9,1.3-1.5,1.8c-0.6,0.5-1.4,0.9-2.4,1.1c-0.9,0.3-1.9,0.4-3,0.4c-0.6,0-1.3,0-1.9-0.1
			c-0.6-0.1-1-0.1-1.4-0.3c-0.4-0.1-0.8-0.2-1.1-0.4c-0.3-0.1-0.6-0.2-0.7-0.4v-2.5c0.8,0.3,1.5,0.6,2.3,0.7
			c0.7,0.2,1.6,0.3,2.4,0.3c0.7,0,1.4-0.1,1.9-0.2c0.6-0.1,1.1-0.3,1.5-0.6c0.4-0.3,0.7-0.6,0.9-0.9c0.2-0.4,0.4-0.8,0.4-1.3
			c0-0.5-0.1-0.9-0.3-1.3c-0.2-0.4-0.5-0.6-0.8-0.9c-0.4-0.2-0.7-0.4-1.2-0.6c-0.4-0.1-0.9-0.3-1.4-0.4c-0.6-0.1-1.3-0.3-1.9-0.5
			c-0.6-0.2-1.3-0.4-1.8-0.8c-0.6-0.4-1-0.8-1.3-1.4c-0.4-0.6-0.5-1.4-0.5-2.3c0-1,0.1-1.8,0.5-2.5c0.4-0.7,0.8-1.3,1.4-1.8
			c0.6-0.4,1.3-0.8,2.1-1.1c0.8-0.2,1.6-0.4,2.5-0.4c1,0,1.9,0.1,2.9,0.3c0.9,0.2,1.6,0.4,2.4,0.7v2.6c-0.8-0.3-1.5-0.6-2.3-0.7
			c-0.8-0.2-1.6-0.3-2.4-0.3c-0.7,0-1.3,0.1-1.8,0.2c-0.5,0.1-0.9,0.4-1.2,0.6c-0.3,0.3-0.6,0.6-0.7,0.9
			C171.3,144.4,171.3,144.8,171.3,145.2z"/>
		<path class="st0" d="M188.7,142.9L188.7,142.9c0.4-0.4,0.8-0.8,1.1-1.2c0.4-0.4,0.9-0.7,1.4-0.9c0.5-0.2,1.1-0.5,1.6-0.6
			c0.6-0.1,1.2-0.2,1.9-0.2c0.7,0,1.4,0.1,2.1,0.3c0.7,0.2,1.4,0.5,1.9,1c0.6,0.5,1.1,1.1,1.4,2c0.4,0.9,0.6,1.9,0.6,3.3v12.2h-3
			v-11.8c0-1.5-0.3-2.6-0.9-3.4c-0.6-0.7-1.5-1.1-2.7-1.1c-1.1,0-2.1,0.3-3,0.9c-0.9,0.6-1.8,1.4-2.5,2.4v13.1h-3v-28h3L188.7,142.9
			L188.7,142.9z"/>
		<path class="st0" d="M207.1,136.1v-3.4h3v3.4H207.1z M207.2,158.7v-18.4h3v18.4H207.2z"/>
		<path class="st0" d="M232.8,149.3c0,1.3-0.1,2.4-0.4,3.4c-0.3,1-0.6,1.9-1,2.6c-0.4,0.7-0.9,1.4-1.4,1.9c-0.6,0.5-1.1,0.9-1.7,1.2
			c-0.6,0.3-1.2,0.5-1.8,0.6c-0.6,0.1-1.2,0.2-1.7,0.2c-1.1,0-2.1-0.2-2.9-0.6c-0.9-0.4-1.6-0.9-2.2-1.6h-0.1v10.7h-2.9v-27.3h2.3
			l0.6,2.1h0.1c0.1-0.3,0.4-0.5,0.6-0.8c0.3-0.2,0.6-0.5,1.1-0.8c0.4-0.3,1-0.5,1.6-0.7c0.6-0.2,1.3-0.3,2-0.3c1,0,2,0.1,3,0.5
			c0.9,0.4,1.8,0.9,2.6,1.6c0.7,0.8,1.3,1.7,1.8,2.9C232.6,146.2,232.8,147.6,232.8,149.3z M229.7,149.4c0-1.1-0.1-2-0.4-2.9
			c-0.2-0.9-0.6-1.6-1-2.1c-0.4-0.6-1-1.1-1.6-1.4c-0.6-0.3-1.4-0.5-2.3-0.5c-0.6,0-1.2,0.1-1.7,0.3c-0.5,0.2-1,0.4-1.4,0.6
			c-0.4,0.3-0.8,0.5-1.1,0.9c-0.3,0.3-0.6,0.6-0.7,0.8v9.6c0.6,0.6,1.4,1.1,2.1,1.5c0.8,0.4,1.6,0.6,2.6,0.6c0.6,0,1.1-0.1,1.8-0.3
			c0.6-0.2,1.2-0.6,1.8-1.1c0.6-0.6,1-1.3,1.4-2.2C229.5,152,229.7,150.8,229.7,149.4z"/>
		<path class="st0" d="M249.8,158.7h-3.1v-25.8H262v2.9h-12.2v8.4h10.9v2.9h-10.9V158.7z"/>
		<path class="st0" d="M273.9,159.2c-0.9,0-1.8-0.1-2.6-0.3c-0.8-0.2-1.4-0.5-2-0.9c-0.6-0.4-1.1-0.8-1.4-1.4
			c-0.4-0.5-0.7-1.1-0.9-1.7c-0.2-0.4-0.3-1-0.4-1.5c-0.1-0.6-0.1-1.1-0.1-1.8v-11.2h3v11.2c0,1,0.1,1.9,0.4,2.6
			c0.3,0.8,0.8,1.4,1.5,1.9c0.7,0.4,1.6,0.6,2.6,0.6c1.1,0,2.1-0.2,2.7-0.7c0.7-0.5,1.2-1.1,1.5-2c0.2-0.6,0.4-1.4,0.4-2.4v-11.2h3
			v11.3c0,0.6,0,1.2-0.1,1.7c-0.1,0.5-0.2,1-0.4,1.5c-0.2,0.6-0.6,1.2-0.9,1.7c-0.4,0.5-0.9,1-1.5,1.4c-0.6,0.4-1.3,0.7-2.1,0.9
			C275.8,159.1,274.8,159.2,273.9,159.2z"/>
		<path class="st0" d="M290.4,142.9L290.4,142.9c0.4-0.4,0.8-0.8,1.1-1.2c0.4-0.4,0.9-0.7,1.4-1c0.5-0.3,1.1-0.5,1.6-0.6
			c0.6-0.1,1.3-0.2,1.9-0.2c0.9,0,1.6,0.1,2.4,0.4c0.7,0.2,1.4,0.6,1.9,1.1c0.6,0.5,1,1.2,1.3,2c0.3,0.9,0.5,1.9,0.5,3.1v12.3h-3
			v-11.8c0-1.6-0.3-2.7-0.9-3.4c-0.6-0.7-1.5-1.1-2.6-1.1c-1,0-2,0.3-3,0.9c-0.9,0.6-1.8,1.4-2.5,2.4v13.1h-3v-18.4h2.3L290.4,142.9
			z"/>
		<path class="st0" d="M307.7,149.7c0-1.3,0.1-2.4,0.4-3.4c0.3-1,0.6-1.9,1-2.6c0.4-0.7,0.9-1.4,1.4-1.9c0.6-0.5,1.1-0.9,1.7-1.2
			c0.6-0.3,1.2-0.5,1.8-0.6c0.6-0.1,1.2-0.2,1.7-0.2c1.1,0,2.1,0.2,2.9,0.6c0.9,0.4,1.6,0.9,2.2,1.6h0.1v-11.4h3v28h-2.3l-0.6-2.1
			h-0.1c-0.2,0.3-0.5,0.6-0.8,0.9c-0.3,0.3-0.6,0.6-1.1,0.8c-0.4,0.2-0.9,0.4-1.4,0.6c-0.6,0.1-1.2,0.2-1.9,0.2c-1,0-2-0.1-2.9-0.5
			c-1-0.4-1.9-0.9-2.6-1.6c-0.8-0.8-1.4-1.7-1.9-2.9C307.9,153,307.7,151.5,307.7,149.7z M310.8,149.7c0,1.1,0.1,2,0.4,2.9
			c0.2,0.9,0.6,1.6,1,2.2c0.4,0.6,1,1.1,1.6,1.4c0.6,0.4,1.4,0.5,2.3,0.5c0.6,0,1.2-0.1,1.7-0.3c0.5-0.1,1-0.4,1.4-0.6
			c0.4-0.3,0.8-0.5,1.1-0.8c0.3-0.3,0.5-0.6,0.7-0.8v-9.6c-0.6-0.6-1.4-1.1-2.1-1.5c-0.8-0.4-1.7-0.6-2.6-0.6
			c-0.6,0-1.1,0.1-1.8,0.3c-0.6,0.2-1.2,0.6-1.7,1.1c-0.5,0.6-1,1.3-1.3,2.2C311,147.1,310.8,148.2,310.8,149.7z"/>
	</g>
	<path class="st0" d="M223.6,46.4c-0.2-1.2-0.5-2.6-0.9-4c-0.5-1.4-1.2-2.9-2.3-4.4c-0.9-1.2-2.1-2.4-3.6-3.2c2.1-1.2,3.5-3.5,3.5-6
		c0-3.9-3.2-7-7-7s-7,3.2-7,7c0,2.4,1.2,4.5,3,5.7c-0.1,0-0.1,0.1-0.2,0.1c-1.1,0.5-2.1,1.3-2.9,2.2c-0.1,0.1-0.2,0.2-0.3,0.3
		c-0.6-0.9-1.2-1.8-1.9-2.7c-1-1.1-2.1-2.2-3.3-3c-0.5-0.3-1-0.6-1.6-0.9c3.1-1.6,5.3-4.8,5.3-8.5c0-5.3-4.3-9.6-9.6-9.6
		s-9.6,4.3-9.6,9.6c0,3.5,1.9,6.6,4.8,8.3c-0.2,0.1-0.3,0.2-0.5,0.2c-0.3,0.2-0.7,0.4-1,0.6s-0.7,0.5-0.9,0.7l-0.4,0.3l-0.1,0.1l0,0
		l-0.1,0.1l-0.2,0.2c-0.3,0.3-0.5,0.5-0.8,0.8c-0.2,0.2-0.4,0.5-0.6,0.7l-0.1,0.1c0-0.1-0.1-0.3-0.2-0.4c-0.2-0.4-0.4-0.9-0.7-1.3
		c-1.9-3.2-4.1-5.5-6.3-7.1c-0.6-0.4-1.1-0.8-1.6-1c-0.3-0.2-0.5-0.3-0.8-0.4c-0.1,0-0.2-0.1-0.3-0.1c4.3-1.9,7.3-6.2,7.3-11.2
		c-0.1-6.8-5.6-12.3-12.3-12.3s-12.2,5.5-12.2,12.2c0,4.9,2.8,9.1,7,11c-0.1,0-0.2,0.1-0.2,0.1c-1,0.4-2,1.1-3.1,1.9s-2.1,1.8-3.2,3
		c-1.1,1.2-2.1,2.5-3,4.2c-0.1,0.2-0.2,0.4-0.3,0.6c-0.1,0.2-0.2,0.4-0.3,0.7c0,0,0,0,0-0.1c0,0,0,0,0-0.1c0,0,0-0.1-0.1-0.1
		c-0.2-0.3-0.4-0.5-0.7-0.8s-0.5-0.5-0.8-0.8l-0.2-0.2l-0.2-0.2l-0.4-0.3c-0.3-0.2-0.7-0.4-1-0.7c-0.3-0.2-0.7-0.4-1-0.5
		c-0.3-0.2-0.7-0.3-1.1-0.4c0.1,0,0.1,0,0.2-0.1c1.6-0.8,2.9-2,3.8-3.5c0.9-1.5,1.5-3.2,1.5-5.1c0-5.3-4.3-9.6-9.6-9.6
		s-9.6,4.3-9.6,9.6c0,4,2.5,7.4,6,8.9c-0.8,0.3-1.6,0.8-2.3,1.3c-1.2,0.9-2.3,1.9-3.3,3c-0.7,0.8-1.3,1.7-1.8,2.5
		c-0.1-0.1-0.2-0.2-0.3-0.4c-0.8-0.9-1.8-1.6-2.9-2.2l0,0c1.8-1.3,3-3.4,3-5.8c0-3.9-3.1-7-7-7s-7,3.2-7,7c0,2.5,1.3,4.8,3.4,6
		c-1.6,0.8-2.8,2-3.7,3.3c-1.1,1.5-1.8,3-2.3,4.4s-0.8,2.8-0.9,4c-0.3,2.4-0.2,4.3-0.2,5.6c0.1,1.3,0.2,2,0.2,2h0.2h0.2
		c0,0,0-0.7,0.1-2s0.2-3.1,0.8-5.4c0.3-1.1,0.7-2.3,1.2-3.6c0.6-1.2,1.3-2.5,2.3-3.7c0.1-0.1,0.2-0.3,0.4-0.4
		c0.1-0.1,0.3-0.3,0.4-0.4c0.3-0.3,0.6-0.5,0.9-0.7c0.6-0.4,1.3-0.8,2.1-1.1c1.5-0.5,3.1-0.4,4.6,0.4c1.2,0.7,2.2,1.8,3,3.2
		c-0.2,0.7-0.5,1.3-0.7,2c-0.7,2.8-1.1,5.4-1.3,8.2c-0.1,1.4-0.1,2.8,0.1,4.2c0.1,0.7,0.2,1.4,0.4,2.2s0.5,1.5,1.1,2.4
		c0.6,0.8,2,1.8,3.7,1.3h0.2h0.1l0.2-0.1c0.2-0.1,0.3-0.1,0.4-0.2c0.2-0.2,0.4-0.3,0.6-0.5c0.4-0.4,0.7-0.8,0.9-1.2
		c0.9-1.6,1-3.1,1.1-4.5c0.1-2.8-0.5-5.2-1.1-7.6c-0.3-1.2-0.7-2.3-1-3.4l-0.1-0.2l-0.1-0.2l-0.2-0.4c-0.1-0.3-0.2-0.5-0.3-0.8
		s-0.3-0.6-0.4-0.9l-0.1-0.3c0.6-1.3,1.3-2.5,2.2-3.6c1.5-1.9,3.5-3.5,5.8-4.1c1.1-0.3,2.3-0.3,3.4-0.1c0.5,0.1,1.1,0.3,1.6,0.5
		c0.3,0.1,0.5,0.3,0.8,0.4c0.2,0.2,0.5,0.3,0.7,0.5l0.4,0.3l0.1,0.1l0,0l0,0l0.2,0.1c0.2,0.2,0.4,0.4,0.6,0.6
		c0.2,0.2,0.3,0.3,0.5,0.5c0.2,0.3,0.5,0.6,0.7,0.9c0.2,0.3,0.4,0.6,0.6,0.9c-0.1,0.3-0.2,0.6-0.2,0.9c-0.5,1.9-0.9,3.8-1.2,5.9
		c-0.4,2.1-0.7,4.2-0.8,6.5c-0.1,1.1-0.2,2.3-0.2,3.5s0,2.4,0.2,3.7c0.1,0.6,0.2,1.3,0.5,2c0.2,0.7,0.6,1.4,1.2,2.2
		c0.2,0.2,0.3,0.3,0.5,0.5s0.4,0.3,0.6,0.5c0.5,0.2,1,0.5,1.5,0.5l0.4,0.1h0.2h0.1h0.1c0,0,0,0,0.1,0h0.2c0.2,0,0.3,0,0.4-0.1
		c0.5-0.1,1.1-0.4,1.5-0.7c0.9-0.6,1.3-1.4,1.6-2.1c0.3-0.7,0.5-1.5,0.6-2.2c0.3-1.4,0.3-2.8,0.3-4.1c-0.1-2.7-0.5-5.4-1.1-8
		c-0.6-2.5-1.4-5.1-2.6-7.5c0.2-0.7,0.4-1.4,0.6-2l0.1-0.3l0.1-0.3c0-0.2,0.1-0.3,0.2-0.5c0.1-0.2,0.2-0.3,0.2-0.5
		c0.1-0.2,0.2-0.3,0.3-0.5c0.7-1.2,1.6-2.4,2.5-3.3c0.9-1,1.8-1.7,2.6-2.3c0.8-0.6,1.6-1,2.3-1.3c0.2-0.1,0.3-0.1,0.5-0.2
		c0.2,0,0.3-0.1,0.5-0.2c0.1,0,0.3-0.1,0.4-0.1c0.1,0,0.2,0,0.3,0s0.2,0,0.3-0.1c0.1,0,0.1,0,0.3,0s0.5,0,0.6,0s0.2,0,0.3,0h0.2
		c0.2,0,0.4,0,0.6,0c0.1,0,0.2,0,0.3,0s0.2,0,0.3,0.1c0.1,0,0.2,0,0.3,0s0.3,0.1,0.4,0.1c0.2,0,0.3,0.1,0.5,0.1s0.3,0.1,0.5,0.2
		s0.4,0.2,0.5,0.2c0.2,0.1,0.4,0.2,0.6,0.3c0.4,0.2,0.8,0.5,1.2,0.7c0.8,0.6,1.8,1.3,2.7,2.3c0.9,0.9,1.8,2,2.6,3.3
		c0.2,0.3,0.4,0.6,0.5,0.9c0.1,0.2,0.1,0.3,0.2,0.5v0.1l0,0l0,0v0.1l0.1,0.3c0.2,0.7,0.5,1.5,0.7,2.3c-1.2,2.5-2,5.1-2.7,7.8
		c-0.6,2.7-1,5.3-1,8c0,1.4,0,2.7,0.3,4.2c0.2,0.7,0.4,1.4,0.7,2.2c0.2,0.4,0.4,0.8,0.7,1.1c0.3,0.4,0.7,0.7,1.2,1
		c0.2,0.1,0.5,0.2,0.8,0.3c0.1,0,0.3,0.1,0.4,0.1c0.1,0,0.3,0,0.5,0.1c0.2,0,0.2,0,0.3,0h0.1h0.2h0.1c0.3,0,0.5-0.1,0.8-0.1
		c1-0.3,1.9-1,2.4-1.7l0.3-0.5c0.1-0.2,0.2-0.4,0.3-0.5c0.2-0.4,0.3-0.7,0.4-1c0.1-0.3,0.2-0.7,0.2-1c0.1-0.3,0.1-0.7,0.2-1
		c0.2-1.3,0.2-2.5,0.2-3.7s-0.1-2.4-0.2-3.5c-0.2-2.3-0.5-4.4-0.9-6.5s-0.8-4-1.3-5.9c0-0.2-0.1-0.4-0.1-0.6
		c0.3-0.6,0.7-1.1,1.1-1.7c0.5-0.7,1.2-1.3,1.8-1.8c1.9-1.5,4.3-2,6.5-1.5c2.2,0.6,4.3,2.1,5.8,4c0.9,1.1,1.7,2.4,2.3,3.8
		c-0.2,0.4-0.4,0.8-0.6,1.3c-0.1,0.3-0.2,0.5-0.3,0.8l-0.2,0.4v0.1v0.2l-0.1,0.2c-0.3,1.1-0.7,2.2-1,3.4c-0.6,2.4-1.2,4.8-1.1,7.6
		c0.1,1.4,0.2,2.9,1.2,4.5c0.1,0.2,0.3,0.4,0.4,0.6l0.2,0.3l0.3,0.3c0.2,0.2,0.4,0.3,0.7,0.5c0.1,0.1,0.3,0.1,0.4,0.2
		c0.1,0,0.4,0.1,0.6,0.2c0,0,0.2,0,0.3,0h0.1h0.3c0.2,0,0.4,0,0.5-0.1c0.4-0.1,0.7-0.2,1-0.4c0.6-0.3,1-0.8,1.3-1.2
		c0.6-0.8,0.8-1.6,1.1-2.4c0.2-0.8,0.3-1.5,0.4-2.2c0.2-1.4,0.2-2.8,0.1-4.2c-0.2-2.8-0.6-5.5-1.3-8.2c-0.2-0.6-0.4-1.2-0.6-1.9
		c0.3-0.5,0.7-1,1-1.5c0.6-0.7,1.3-1.2,2-1.7c1.4-0.8,3.1-0.9,4.6-0.5c0.8,0.2,1.4,0.6,2.1,1c0.3,0.2,0.6,0.5,0.9,0.7
		c0.1,0.1,0.3,0.3,0.4,0.4c0.1,0.1,0.3,0.3,0.4,0.4c1,1.1,1.8,2.4,2.3,3.7c0.6,1.2,1,2.5,1.2,3.6c0.6,2.3,0.7,4.1,0.8,5.4
		c0.1,1.3,0.1,2,0.1,2h0.2h0.2c0,0,0.1-0.7,0.2-2C223.9,50.7,224,48.8,223.6,46.4z M127,33.7c-2.7,0-4.9-2.2-4.9-4.9
		s2.2-4.9,4.9-4.9s4.9,2.2,4.9,4.9S129.7,33.7,127,33.7z M135.3,56.6c0,0.1,0,0.1-0.1,0.1c-0.1-0.2-0.2-0.5-0.3-0.8
		c-0.1-0.5-0.2-1-0.3-1.6c-0.2-1.1-0.2-2.4-0.2-3.6c0-1.5,0.2-3,0.4-4.6c0.1,0.4,0.2,0.8,0.3,1.2c0.5,2.2,0.9,4.5,0.8,6.6
		C135.9,55,135.7,56,135.3,56.6z M145.3,28.4c-3.8,0-7-3.1-7-7c0-3.8,3.1-7,7-7c3.8,0,6.9,3.1,6.9,7
		C152.2,25.2,149.1,28.4,145.3,28.4z M158.3,54.4c0,1.2-0.1,2.4-0.3,3.4c-0.1,0.5-0.3,1-0.5,1.4s-0.4,0.7-0.6,0.8
		c-0.1,0-0.1,0.1-0.2,0.1l0,0h-0.2h-0.1c-0.2,0-0.3-0.1-0.5-0.3s-0.4-0.6-0.5-1c-0.1-0.2-0.1-0.4-0.2-0.7c0-0.2-0.1-0.5-0.1-0.7
		c-0.1-1-0.1-2.1-0.1-3.2c0-1.1,0.1-2.1,0.2-3.2c0.2-2.1,0.6-4.2,1-6.1c0.1-0.4,0.2-0.8,0.3-1.2c0.3,1.1,0.6,2.2,0.9,3.4
		C158,49.5,158.3,52,158.3,54.4z M170.4,21.6c-5,0-9.1-4.1-9.1-9.1s4.1-9.1,9.1-9.1s9.1,4.1,9.1,9.1S175.4,21.6,170.4,21.6z
		 M184.9,57.1c-0.1,1-0.4,2-0.7,2.6c-0.2,0.2-0.3,0.3-0.4,0.4h-0.1l0,0h0.1h-0.1c-0.1,0-0.2,0-0.2,0l0,0h-0.1
		c-0.1,0-0.2-0.1-0.2-0.2c-0.1-0.1-0.2-0.3-0.3-0.5c-0.2-0.4-0.4-0.8-0.5-1.4c-0.3-1-0.4-2.2-0.4-3.4c0-2.4,0.3-4.9,0.8-7.4
		c0.2-1.2,0.5-2.4,0.9-3.6c0.1,0.3,0.1,0.6,0.2,0.9c0.4,2,0.8,4,1,6.1c0.1,1.1,0.2,2.1,0.2,3.2C185,54.9,185,56,184.9,57.1z
		 M194.7,28.9c-3.8,0-7-3.1-7-7s3.1-7,7-7c3.8,0,7,3.1,7,7S198.5,28.9,194.7,28.9z M205.6,54.2c-0.1,0.6-0.2,1.1-0.3,1.6
		c-0.1,0.4-0.2,0.7-0.4,0.9c0,0,0,0,0-0.1c-0.4-0.6-0.6-1.6-0.6-2.6c-0.1-2.1,0.3-4.4,0.8-6.6c0.1-0.4,0.2-0.8,0.3-1.2
		c0.2,1.5,0.4,3,0.4,4.4C205.7,51.8,205.7,53,205.6,54.2z M213.2,33.7c-2.7,0-4.9-2.2-4.9-4.9s2.2-4.9,4.9-4.9s4.9,2.2,4.9,4.9
		S216,33.7,213.2,33.7z"/>
</g>
</svg>
