<?xml version="1.0" encoding="utf-8"?>
<!-- Generator: Adobe Illustrator 21.0.0, SVG Export Plug-In . SVG Version: 6.00 Build 0)  -->
<svg version="1.1" id="Layer_1" xmlns="http://www.w3.org/2000/svg" xmlns:xlink="http://www.w3.org/1999/xlink" x="0px" y="0px"
	 viewBox="0 0 513.9 308.6" style="enable-background:new 0 0 513.9 308.6;" xml:space="preserve">
<style type="text/css">
	.st0{fill:#59595A;stroke:#59595A;stroke-width:0.25;stroke-miterlimit:10;}
	.st1{fill:#5F144B;stroke:#5F144B;stroke-width:0.5;stroke-miterlimit:10;}
	.st2{fill:#FFFFFF;}
</style>
<text transform="matrix(1 0 0 1 1646.9104 166.4502)"><tspan x="0" y="0" class="st0" style="font-family:'Calibri'; font-size:26.8247px; letter-spacing:1;">Regional Development Society</tspan><tspan x="42" y="50" class="st1" style="font-family:'Calibri'; font-size:40.2371px;">Scholarship Fund</tspan></text>
<g>
	<g>
		<path class="st2" d="M2.9,217.3v10H0v-24.1h6.2c1.1,0,2,0,2.7,0.1s1.4,0.2,2,0.4c1.7,0.5,3,1.2,3.8,2.3c0.9,1.1,1.3,2.5,1.3,4.1
			c0,1-0.2,1.8-0.5,2.6c-0.3,0.8-0.8,1.4-1.3,2c-0.6,0.6-1.2,1-2,1.4c-0.8,0.4-1.7,0.6-2.6,0.8v0.1l7.1,10.3h-2.9l-7.4-10H2.9z
			 M2.9,205.9v8.8h2.9c0.9,0,1.7,0,2.3-0.1s1.2-0.2,1.7-0.3c1-0.3,1.8-0.8,2.4-1.5c0.6-0.7,0.8-1.6,0.8-2.7c0-1-0.3-1.9-0.8-2.5
			c-0.5-0.6-1.2-1.1-2.1-1.4c-0.4-0.1-0.9-0.2-1.5-0.3c-0.6-0.1-1.4-0.1-2.3-0.1H2.9z"/>
		<path class="st2" d="M30.7,225.3c0.9,0,1.8-0.1,2.5-0.2c0.8-0.2,1.5-0.4,2.3-0.6v2.3c-0.6,0.3-1.4,0.5-2.3,0.7
			c-0.9,0.2-1.9,0.3-2.9,0.3c-1.2,0-2.4-0.2-3.4-0.5c-1.1-0.3-2-0.8-2.8-1.5c-0.8-0.7-1.4-1.6-1.8-2.7c-0.4-1.1-0.7-2.5-0.7-4.1
			c0-1.6,0.2-2.9,0.6-4.1c0.4-1.1,1-2.1,1.7-2.9c0.7-0.8,1.5-1.3,2.5-1.7c0.9-0.4,1.9-0.6,2.9-0.6c1,0,1.9,0.2,2.7,0.5
			c0.8,0.3,1.6,0.8,2.2,1.5c0.6,0.7,1.1,1.6,1.4,2.6c0.4,1.1,0.5,2.4,0.5,3.9c0,0.1,0,0.3,0,0.4c0,0.1,0,0.3,0,0.7H24.4
			c0,1.1,0.2,2,0.5,2.8c0.3,0.8,0.8,1.4,1.4,1.9c0.6,0.5,1.2,0.8,2,1C29,225.2,29.8,225.3,30.7,225.3z M29.2,212.2
			c-0.6,0-1.2,0.1-1.8,0.4c-0.6,0.3-1,0.6-1.4,1c-0.4,0.4-0.7,0.9-1,1.5c-0.3,0.6-0.4,1.2-0.5,1.9h8.7c0-0.7-0.1-1.3-0.3-1.9
			c-0.2-0.6-0.4-1.1-0.8-1.5c-0.3-0.4-0.8-0.8-1.3-1C30.5,212.3,29.9,212.2,29.2,212.2z"/>
		<path class="st2" d="M49.4,209.8c0.7,0,1.4,0.1,1.9,0.3s1,0.4,1.4,0.7c0.4,0.3,0.7,0.5,0.9,0.8c0.2,0.3,0.4,0.5,0.5,0.6h0.1
			l0.6-1.9h2.1v18.1c0,1.3-0.2,2.5-0.6,3.4c-0.4,1-1,1.8-1.8,2.4c-0.8,0.6-1.7,1.1-2.8,1.4c-1.1,0.3-2.3,0.5-3.6,0.5
			c-1.1,0-2.1-0.1-3-0.3c-0.9-0.2-1.6-0.4-2.1-0.7v-2.4c0.4,0.2,0.8,0.3,1.2,0.4c0.4,0.1,0.8,0.2,1.2,0.3c0.4,0.1,0.8,0.1,1.3,0.2
			c0.4,0,0.9,0.1,1.4,0.1c2,0,3.5-0.5,4.6-1.4c1.1-0.9,1.6-2.4,1.6-4.3v-2.3h-0.1c-0.6,0.7-1.3,1.2-2.1,1.5
			c-0.8,0.3-1.7,0.5-2.8,0.5c-0.5,0-1-0.1-1.5-0.2c-0.6-0.1-1.1-0.3-1.7-0.5c-0.6-0.3-1.1-0.6-1.6-1c-0.5-0.4-0.9-1-1.3-1.6
			c-0.4-0.6-0.7-1.4-0.9-2.3c-0.2-0.9-0.4-1.9-0.4-3c0-1.6,0.2-3,0.6-4.2c0.4-1.2,1-2.1,1.7-2.9c0.7-0.8,1.5-1.3,2.4-1.7
			C47.5,209.9,48.4,209.8,49.4,209.8z M44.7,218.9c0,1.3,0.2,2.4,0.5,3.3c0.3,0.9,0.7,1.5,1.2,2c0.5,0.5,1,0.8,1.6,1
			c0.6,0.2,1.1,0.3,1.7,0.3c0.9,0,1.7-0.2,2.4-0.5c0.8-0.3,1.4-0.8,2-1.4v-8.9c-0.2-0.2-0.4-0.5-0.6-0.7c-0.3-0.3-0.6-0.5-1-0.8
			c-0.4-0.2-0.8-0.4-1.3-0.6c-0.5-0.2-1-0.2-1.5-0.2c-0.8,0-1.6,0.2-2.2,0.5c-0.6,0.3-1.2,0.8-1.6,1.4c-0.4,0.6-0.7,1.3-1,2.1
			C44.8,217,44.7,217.9,44.7,218.9z"/>
		<path class="st2" d="M64.3,206.2v-3.1h2.8v3.1H64.3z M64.4,227.3v-17.1h2.8v17.1H64.4z"/>
		<path class="st2" d="M89.8,218.8c0,1.3-0.2,2.6-0.6,3.7c-0.4,1.1-0.9,2-1.6,2.8c-0.7,0.8-1.6,1.4-2.5,1.8c-1,0.4-2.1,0.6-3.3,0.6
			c-1.3,0-2.4-0.2-3.4-0.6c-1-0.4-1.9-1-2.6-1.8c-0.7-0.8-1.2-1.7-1.6-2.8c-0.4-1.1-0.6-2.3-0.6-3.7c0-1.4,0.2-2.6,0.6-3.7
			c0.4-1.1,0.9-2.1,1.6-2.8c0.7-0.8,1.6-1.4,2.6-1.8c1-0.4,2.1-0.6,3.4-0.6c1.3,0,2.4,0.2,3.4,0.6c1,0.4,1.9,1,2.6,1.8
			c0.7,0.8,1.2,1.7,1.6,2.8S89.8,217.4,89.8,218.8z M86.9,218.8c0-1.1-0.1-2-0.4-2.8c-0.3-0.8-0.6-1.5-1.1-2.1c-0.5-0.6-1-1-1.6-1.3
			s-1.3-0.4-2.1-0.4c-0.8,0-1.5,0.1-2.1,0.4s-1.2,0.7-1.6,1.3c-0.5,0.6-0.8,1.3-1.1,2.1c-0.3,0.8-0.4,1.8-0.4,2.8c0,1,0.1,2,0.4,2.8
			c0.3,0.8,0.6,1.5,1.1,2.1c0.5,0.6,1,1,1.7,1.3s1.3,0.4,2.1,0.4c0.8,0,1.4-0.1,2.1-0.4c0.6-0.3,1.2-0.7,1.6-1.3
			c0.5-0.6,0.8-1.3,1.1-2.1C86.8,220.8,86.9,219.8,86.9,218.8z"/>
		<path class="st2" d="M98.8,212.6L98.8,212.6c0.4-0.4,0.7-0.8,1.1-1.1c0.4-0.3,0.8-0.6,1.3-0.9s1-0.5,1.5-0.6
			c0.6-0.1,1.2-0.2,1.8-0.2c0.8,0,1.5,0.1,2.2,0.3c0.7,0.2,1.3,0.6,1.8,1c0.5,0.5,0.9,1.1,1.2,1.9c0.3,0.8,0.4,1.7,0.4,2.9v11.4
			h-2.8v-11c0-1.5-0.3-2.5-0.9-3.2c-0.6-0.6-1.4-1-2.5-1c-1,0-1.9,0.3-2.8,0.8c-0.9,0.5-1.7,1.3-2.3,2.2v12.2h-2.8v-17.1h2.2
			L98.8,212.6z"/>
		<path class="st2" d="M127.4,225.4L127.4,225.4c-0.3,0.3-0.6,0.6-0.9,0.9c-0.3,0.3-0.8,0.5-1.2,0.8c-0.5,0.2-1,0.4-1.5,0.5
			c-0.5,0.1-1.1,0.2-1.7,0.2c-0.8,0-1.6-0.1-2.3-0.4c-0.7-0.2-1.3-0.6-1.8-1.1c-0.5-0.5-0.9-1.1-1.2-1.7c-0.3-0.7-0.4-1.5-0.4-2.3
			c0-0.9,0.2-1.6,0.5-2.3c0.3-0.7,0.7-1.2,1.3-1.7c0.6-0.5,1.2-0.8,2-1.1c0.8-0.3,1.6-0.4,2.6-0.4c0.9,0,1.7,0.1,2.5,0.2
			c0.8,0.1,1.4,0.3,2,0.5h0.1v-1.2c0-0.5,0-0.9-0.1-1.2c-0.1-0.4-0.2-0.7-0.3-1c-0.3-0.6-0.8-1.1-1.5-1.4c-0.7-0.4-1.6-0.6-2.8-0.6
			c-0.9,0-1.7,0.1-2.4,0.2c-0.8,0.2-1.5,0.4-2.3,0.7v-2.3c0.3-0.1,0.6-0.3,1-0.4c0.4-0.1,0.8-0.2,1.2-0.3c0.4-0.1,0.9-0.2,1.4-0.2
			c0.5,0,1-0.1,1.4-0.1c1.7,0,3.1,0.3,4.2,0.9c1.1,0.6,1.9,1.4,2.4,2.4c0.2,0.4,0.3,0.8,0.4,1.3c0.1,0.5,0.1,1,0.1,1.5v11.4h-2.3
			L127.4,225.4z M127.2,219.8c-0.5-0.1-1.1-0.3-1.8-0.4c-0.7-0.1-1.5-0.2-2.3-0.2c-1.2,0-2.1,0.3-2.8,0.8c-0.7,0.5-1,1.3-1,2.3
			c0,0.5,0.1,1,0.3,1.4s0.4,0.7,0.7,1c0.3,0.3,0.6,0.4,1,0.6c0.4,0.1,0.8,0.2,1.3,0.2c0.6,0,1.2-0.1,1.7-0.3c0.5-0.2,1-0.4,1.4-0.6
			c0.4-0.2,0.7-0.5,1-0.7c0.3-0.2,0.5-0.4,0.6-0.6V219.8z"/>
		<path class="st2" d="M137.4,227.3v-26.1h2.8v26.1H137.4z"/>
		<path class="st2" d="M176.8,215.2c0,1.4-0.2,2.7-0.5,4c-0.3,1.2-0.9,2.4-1.6,3.3c-0.7,1-1.6,1.8-2.6,2.6c-1,0.7-2.3,1.3-3.7,1.7
			c-0.8,0.2-1.7,0.4-2.6,0.5c-0.9,0.1-2,0.1-3,0.1h-5.5v-24.1h5.5c1.1,0,2.1,0,3,0.1c0.9,0.1,1.8,0.2,2.6,0.5
			c1.4,0.4,2.6,0.9,3.7,1.7c1.1,0.7,1.9,1.5,2.6,2.5c0.7,1,1.2,2.1,1.5,3.3C176.6,212.5,176.8,213.8,176.8,215.2z M173.8,215.2
			c0-2.3-0.5-4.2-1.5-5.6c-1-1.4-2.5-2.5-4.4-3.1c-0.7-0.2-1.5-0.4-2.4-0.5c-0.9-0.1-1.9-0.1-3-0.1h-2.2v18.8h2.2c1.1,0,2.1,0,3-0.1
			c0.9-0.1,1.7-0.2,2.4-0.5c1.9-0.6,3.4-1.7,4.4-3.2C173.3,219.4,173.8,217.5,173.8,215.2z"/>
		<path class="st2" d="M191.6,225.3c0.9,0,1.8-0.1,2.5-0.2c0.8-0.2,1.5-0.4,2.3-0.6v2.3c-0.6,0.3-1.4,0.5-2.3,0.7
			c-0.9,0.2-1.9,0.3-2.9,0.3c-1.2,0-2.4-0.2-3.4-0.5c-1.1-0.3-2-0.8-2.8-1.5c-0.8-0.7-1.4-1.6-1.8-2.7c-0.4-1.1-0.7-2.5-0.7-4.1
			c0-1.6,0.2-2.9,0.6-4.1c0.4-1.1,1-2.1,1.7-2.9c0.7-0.8,1.5-1.3,2.5-1.7c0.9-0.4,1.9-0.6,2.9-0.6c1,0,1.9,0.2,2.7,0.5
			s1.6,0.8,2.2,1.5c0.6,0.7,1.1,1.6,1.4,2.6c0.4,1.1,0.5,2.4,0.5,3.9c0,0.1,0,0.3,0,0.4c0,0.1,0,0.3,0,0.7h-11.8
			c0,1.1,0.2,2,0.5,2.8c0.3,0.8,0.8,1.4,1.4,1.9c0.6,0.5,1.2,0.8,2,1C189.9,225.2,190.7,225.3,191.6,225.3z M190.1,212.2
			c-0.6,0-1.2,0.1-1.8,0.4c-0.6,0.3-1,0.6-1.4,1c-0.4,0.4-0.7,0.9-1,1.5c-0.3,0.6-0.4,1.2-0.5,1.9h8.7c0-0.7-0.1-1.3-0.3-1.9
			c-0.2-0.6-0.4-1.1-0.8-1.5c-0.3-0.4-0.8-0.8-1.3-1C191.3,212.3,190.8,212.2,190.1,212.2z"/>
		<path class="st2" d="M209.2,224.5c0.4-1.2,1-2.8,1.7-4.8l3.4-9.5h2.8l-6.5,17.1h-2.9l-6.5-17.1h2.8l3.4,9.5
			C208.2,221.6,208.7,223.2,209.2,224.5L209.2,224.5z"/>
		<path class="st2" d="M230.5,225.3c0.9,0,1.8-0.1,2.5-0.2c0.8-0.2,1.5-0.4,2.3-0.6v2.3c-0.6,0.3-1.4,0.5-2.3,0.7
			c-0.9,0.2-1.9,0.3-2.9,0.3c-1.2,0-2.4-0.2-3.4-0.5c-1.1-0.3-2-0.8-2.8-1.5c-0.8-0.7-1.4-1.6-1.8-2.7c-0.4-1.1-0.7-2.5-0.7-4.1
			c0-1.6,0.2-2.9,0.6-4.1c0.4-1.1,1-2.1,1.7-2.9c0.7-0.8,1.5-1.3,2.5-1.7c0.9-0.4,1.9-0.6,2.9-0.6c1,0,1.9,0.2,2.7,0.5
			c0.8,0.3,1.6,0.8,2.2,1.5c0.6,0.7,1.1,1.6,1.4,2.6c0.4,1.1,0.5,2.4,0.5,3.9c0,0.1,0,0.3,0,0.4c0,0.1,0,0.3,0,0.7h-11.8
			c0,1.1,0.2,2,0.5,2.8c0.3,0.8,0.8,1.4,1.4,1.9s1.2,0.8,2,1C228.7,225.2,229.6,225.3,230.5,225.3z M229,212.2
			c-0.6,0-1.2,0.1-1.8,0.4c-0.6,0.3-1,0.6-1.4,1c-0.4,0.4-0.7,0.9-1,1.5c-0.3,0.6-0.4,1.2-0.5,1.9h8.7c0-0.7-0.1-1.3-0.3-1.9
			c-0.2-0.6-0.4-1.1-0.8-1.5c-0.3-0.4-0.8-0.8-1.3-1C230.2,212.3,229.6,212.2,229,212.2z"/>
		<path class="st2" d="M242.7,227.3v-26.1h2.8v26.1H242.7z"/>
		<path class="st2" d="M268.2,218.8c0,1.3-0.2,2.6-0.6,3.7c-0.4,1.1-0.9,2-1.6,2.8c-0.7,0.8-1.6,1.4-2.5,1.8c-1,0.4-2.1,0.6-3.3,0.6
			c-1.3,0-2.4-0.2-3.4-0.6c-1-0.4-1.9-1-2.6-1.8c-0.7-0.8-1.2-1.7-1.6-2.8c-0.4-1.1-0.6-2.3-0.6-3.7c0-1.4,0.2-2.6,0.6-3.7
			s0.9-2.1,1.6-2.8c0.7-0.8,1.6-1.4,2.6-1.8c1-0.4,2.1-0.6,3.4-0.6c1.3,0,2.4,0.2,3.4,0.6c1,0.4,1.9,1,2.6,1.8
			c0.7,0.8,1.2,1.7,1.6,2.8S268.2,217.4,268.2,218.8z M265.3,218.8c0-1.1-0.1-2-0.4-2.8c-0.3-0.8-0.6-1.5-1.1-2.1
			c-0.5-0.6-1-1-1.6-1.3c-0.6-0.3-1.3-0.4-2.1-0.4s-1.5,0.1-2.1,0.4c-0.6,0.3-1.2,0.7-1.6,1.3c-0.5,0.6-0.8,1.3-1.1,2.1
			c-0.3,0.8-0.4,1.8-0.4,2.8c0,1,0.1,2,0.4,2.8c0.3,0.8,0.6,1.5,1.1,2.1c0.5,0.6,1,1,1.7,1.3c0.6,0.3,1.3,0.4,2.1,0.4
			c0.8,0,1.4-0.1,2.1-0.4c0.6-0.3,1.2-0.7,1.6-1.3c0.5-0.6,0.8-1.3,1.1-2.1C265.1,220.8,265.3,219.8,265.3,218.8z"/>
		<path class="st2" d="M289.6,218.6c0,1.2-0.1,2.2-0.4,3.2c-0.2,0.9-0.5,1.7-0.9,2.4c-0.4,0.7-0.8,1.3-1.4,1.7
			c-0.5,0.5-1.1,0.8-1.6,1.1c-0.6,0.3-1.1,0.5-1.7,0.6c-0.6,0.1-1.1,0.2-1.6,0.2c-1,0-2-0.2-2.7-0.5c-0.8-0.3-1.5-0.8-2.1-1.5h-0.1
			v10h-2.7v-25.5h2.1l0.6,1.9h0.1c0.2-0.2,0.4-0.5,0.6-0.7c0.2-0.2,0.6-0.5,1-0.7c0.4-0.3,0.9-0.5,1.5-0.7c0.6-0.2,1.2-0.3,1.9-0.3
			c1,0,1.9,0.2,2.8,0.5c0.9,0.3,1.7,0.8,2.4,1.5c0.7,0.7,1.2,1.6,1.6,2.7C289.4,215.6,289.6,217,289.6,218.6z M286.7,218.6
			c0-1-0.1-1.9-0.3-2.7s-0.5-1.5-1-2c-0.4-0.6-0.9-1-1.6-1.3c-0.6-0.3-1.3-0.4-2.1-0.4c-0.6,0-1.1,0.1-1.6,0.2
			c-0.5,0.2-0.9,0.4-1.3,0.6c-0.4,0.2-0.7,0.5-1,0.8c-0.3,0.3-0.5,0.5-0.7,0.7v8.9c0.6,0.6,1.3,1.1,2,1.4s1.6,0.5,2.4,0.5
			c0.5,0,1.1-0.1,1.7-0.3c0.6-0.2,1.1-0.6,1.6-1.1c0.5-0.5,0.9-1.2,1.2-2.1C286.5,221.1,286.7,220,286.7,218.6z"/>
		<path class="st2" d="M309.8,227.3H307v-11c0-0.7-0.1-1.4-0.2-1.9c-0.2-0.5-0.4-1-0.7-1.3s-0.7-0.6-1.1-0.7
			c-0.4-0.2-0.9-0.2-1.4-0.2c-1,0-1.9,0.3-2.7,0.8c-0.8,0.5-1.5,1.3-2.2,2.2v12.2h-2.8v-17.1h2.2l0.5,2.4h0.1c0.3-0.4,0.7-0.8,1-1.1
			c0.4-0.3,0.8-0.6,1.2-0.9c0.4-0.3,0.9-0.5,1.5-0.6c0.5-0.1,1.1-0.2,1.8-0.2c1.3,0,2.3,0.3,3.2,0.9c0.8,0.6,1.5,1.4,1.9,2.5h0.1
			c0.8-1.1,1.6-1.9,2.6-2.5c1-0.6,2.1-0.9,3.4-0.9c0.6,0,1.2,0.1,1.9,0.3c0.7,0.2,1.3,0.5,1.9,0.9c0.6,0.5,1,1.1,1.4,1.9
			c0.4,0.8,0.6,1.8,0.6,3.1v11.4h-2.8v-11c0-0.7-0.1-1.4-0.2-1.9c-0.2-0.5-0.4-1-0.7-1.3s-0.7-0.6-1.1-0.7c-0.4-0.2-0.9-0.2-1.4-0.2
			c-1,0-1.9,0.3-2.7,0.8c-0.8,0.5-1.6,1.3-2.2,2.2V227.3z"/>
		<path class="st2" d="M336.4,225.3c0.9,0,1.8-0.1,2.5-0.2c0.8-0.2,1.5-0.4,2.3-0.6v2.3c-0.6,0.3-1.4,0.5-2.3,0.7
			c-0.9,0.2-1.9,0.3-2.9,0.3c-1.2,0-2.4-0.2-3.4-0.5c-1.1-0.3-2-0.8-2.8-1.5c-0.8-0.7-1.4-1.6-1.8-2.7s-0.7-2.5-0.7-4.1
			c0-1.6,0.2-2.9,0.6-4.1c0.4-1.1,1-2.1,1.7-2.9c0.7-0.8,1.5-1.3,2.5-1.7c0.9-0.4,1.9-0.6,2.9-0.6c1,0,1.9,0.2,2.7,0.5
			s1.6,0.8,2.2,1.5c0.6,0.7,1.1,1.6,1.4,2.6s0.5,2.4,0.5,3.9c0,0.1,0,0.3,0,0.4c0,0.1,0,0.3,0,0.7H330c0,1.1,0.2,2,0.5,2.8
			c0.3,0.8,0.8,1.4,1.3,1.9c0.6,0.5,1.2,0.8,2,1C334.6,225.2,335.5,225.3,336.4,225.3z M334.9,212.2c-0.6,0-1.2,0.1-1.8,0.4
			c-0.6,0.3-1,0.6-1.4,1c-0.4,0.4-0.7,0.9-1,1.5c-0.3,0.6-0.4,1.2-0.5,1.9h8.7c0-0.7-0.1-1.3-0.3-1.9c-0.2-0.6-0.4-1.1-0.8-1.5
			c-0.3-0.4-0.8-0.8-1.3-1C336.1,212.3,335.5,212.2,334.9,212.2z"/>
		<path class="st2" d="M351.1,212.6L351.1,212.6c0.4-0.4,0.7-0.8,1.1-1.1c0.4-0.3,0.8-0.6,1.3-0.9c0.5-0.3,1-0.5,1.5-0.6
			c0.6-0.1,1.2-0.2,1.8-0.2c0.8,0,1.5,0.1,2.2,0.3c0.7,0.2,1.3,0.6,1.8,1c0.5,0.5,0.9,1.1,1.2,1.9c0.3,0.8,0.4,1.7,0.4,2.9v11.4
			h-2.8v-11c0-1.5-0.3-2.5-0.9-3.2c-0.6-0.6-1.4-1-2.5-1c-1,0-1.9,0.3-2.8,0.8c-0.9,0.5-1.7,1.3-2.3,2.2v12.2h-2.8v-17.1h2.2
			L351.1,212.6z"/>
		<path class="st2" d="M378.7,227.3c-0.2,0.1-0.6,0.2-1.1,0.3c-0.5,0.1-1.1,0.1-1.8,0.1c-0.9,0-1.7-0.1-2.3-0.3
			c-0.7-0.2-1.2-0.5-1.6-1c-0.4-0.4-0.8-0.9-1-1.5c-0.2-0.6-0.3-1.2-0.3-2v-10.4h-3.3v-2.4h3.3v-4.7h2.8v4.7h5.1v2.4h-5.1v10
			c0,0.4,0.1,0.8,0.2,1.1c0.1,0.3,0.3,0.6,0.5,0.9c0.2,0.2,0.6,0.4,0.9,0.6c0.4,0.1,0.8,0.2,1.4,0.2c0.4,0,0.8,0,1.2-0.1
			c0.4-0.1,0.8-0.1,1.1-0.2V227.3z"/>
		<path class="st2" d="M395.4,209.6c0,0.7,0.1,1.3,0.4,1.8s0.7,0.8,1.2,1.1c0.5,0.3,1,0.5,1.7,0.7c0.6,0.2,1.3,0.4,2,0.5
			c0.9,0.2,1.9,0.5,2.8,0.8c0.9,0.3,1.7,0.7,2.4,1.1c0.7,0.5,1.3,1.1,1.7,1.9c0.4,0.8,0.7,1.8,0.7,3c0,1.2-0.2,2.3-0.7,3.2
			c-0.5,0.9-1.1,1.7-2,2.2c-0.8,0.6-1.8,1-3,1.3c-1.1,0.3-2.4,0.4-3.7,0.4c-0.6,0-1.3,0-1.9-0.1s-1.3-0.2-1.9-0.3
			c-0.6-0.1-1.1-0.3-1.6-0.4c-0.5-0.2-0.9-0.3-1.1-0.5v-2.7c0.4,0.2,0.9,0.4,1.5,0.6c0.5,0.2,1.1,0.3,1.7,0.5
			c0.6,0.1,1.2,0.2,1.7,0.3c0.6,0.1,1.1,0.1,1.7,0.1c0.8,0,1.6-0.1,2.4-0.2c0.8-0.1,1.4-0.4,2-0.7c0.6-0.3,1-0.8,1.4-1.4
			c0.3-0.6,0.5-1.3,0.5-2.2c0-0.7-0.1-1.3-0.4-1.8c-0.3-0.5-0.7-0.9-1.2-1.2c-0.5-0.3-1.1-0.6-1.7-0.7c-0.6-0.2-1.3-0.4-2-0.5
			c-0.9-0.2-1.9-0.5-2.7-0.7c-0.9-0.3-1.7-0.6-2.4-1.1c-0.7-0.5-1.3-1.1-1.7-1.9c-0.4-0.8-0.6-1.7-0.6-2.9c0-1.2,0.2-2.3,0.7-3.2
			s1.1-1.6,1.8-2.2c0.8-0.6,1.6-1,2.6-1.3c1-0.3,2.1-0.4,3.2-0.4c1.3,0,2.5,0.1,3.6,0.4c1.1,0.2,2.1,0.6,3.1,1v2.7
			c-1-0.4-2-0.8-3.1-1c-1.1-0.3-2.2-0.4-3.4-0.4c-0.9,0-1.7,0.1-2.4,0.3c-0.7,0.2-1.2,0.5-1.7,0.8c-0.4,0.4-0.8,0.8-1,1.3
			S395.4,209,395.4,209.6z"/>
		<path class="st2" d="M430.1,218.8c0,1.3-0.2,2.6-0.6,3.7c-0.4,1.1-0.9,2-1.6,2.8c-0.7,0.8-1.6,1.4-2.5,1.8c-1,0.4-2.1,0.6-3.3,0.6
			c-1.3,0-2.4-0.2-3.4-0.6c-1-0.4-1.9-1-2.6-1.8c-0.7-0.8-1.2-1.7-1.6-2.8c-0.4-1.1-0.6-2.3-0.6-3.7c0-1.4,0.2-2.6,0.6-3.7
			s0.9-2.1,1.6-2.8c0.7-0.8,1.6-1.4,2.6-1.8c1-0.4,2.1-0.6,3.4-0.6c1.3,0,2.4,0.2,3.4,0.6c1,0.4,1.9,1,2.6,1.8
			c0.7,0.8,1.2,1.7,1.6,2.8S430.1,217.4,430.1,218.8z M427.2,218.8c0-1.1-0.1-2-0.4-2.8c-0.3-0.8-0.6-1.5-1.1-2.1
			c-0.5-0.6-1-1-1.6-1.3c-0.6-0.3-1.3-0.4-2.1-0.4s-1.5,0.1-2.1,0.4c-0.6,0.3-1.2,0.7-1.6,1.3c-0.5,0.6-0.8,1.3-1.1,2.1
			c-0.3,0.8-0.4,1.8-0.4,2.8c0,1,0.1,2,0.4,2.8c0.3,0.8,0.6,1.5,1.1,2.1c0.5,0.6,1,1,1.7,1.3c0.6,0.3,1.3,0.4,2.1,0.4
			c0.8,0,1.4-0.1,2.1-0.4c0.6-0.3,1.2-0.7,1.6-1.3c0.5-0.6,0.8-1.3,1.1-2.1C427.1,220.8,427.2,219.8,427.2,218.8z"/>
		<path class="st2" d="M443.7,209.8c0.8,0,1.6,0.1,2.4,0.3c0.8,0.2,1.4,0.4,1.9,0.7v2.3c-0.8-0.3-1.5-0.5-2.1-0.6
			c-0.6-0.1-1.3-0.2-1.9-0.2c-0.7,0-1.4,0.1-2.1,0.3c-0.7,0.2-1.3,0.6-1.8,1.1c-0.5,0.5-1,1.2-1.3,2.1c-0.3,0.9-0.5,1.9-0.5,3.2
			c0,0.9,0.1,1.8,0.4,2.6s0.6,1.5,1.1,2c0.5,0.6,1.1,1,1.8,1.3c0.7,0.3,1.6,0.5,2.5,0.5c0.7,0,1.4-0.1,2.1-0.2
			c0.7-0.2,1.4-0.4,2.1-0.6v2.3c-0.2,0.1-0.5,0.2-0.8,0.4c-0.3,0.1-0.7,0.2-1.1,0.3c-0.4,0.1-0.8,0.2-1.3,0.2
			c-0.4,0.1-0.9,0.1-1.3,0.1c-1.2,0-2.2-0.2-3.3-0.5c-1-0.3-1.9-0.9-2.7-1.6c-0.8-0.7-1.4-1.6-1.8-2.7c-0.4-1.1-0.7-2.4-0.7-3.9
			c0-1.1,0.1-2.1,0.4-3c0.2-0.9,0.6-1.7,1-2.4c0.4-0.7,0.9-1.3,1.4-1.7c0.5-0.5,1.1-0.9,1.7-1.2c0.6-0.3,1.3-0.5,1.9-0.7
			C442.4,209.8,443.1,209.8,443.7,209.8z"/>
		<path class="st2" d="M454.5,206.2v-3.1h2.8v3.1H454.5z M454.6,227.3v-17.1h2.8v17.1H454.6z"/>
		<path class="st2" d="M472.9,225.3c0.9,0,1.8-0.1,2.5-0.2c0.8-0.2,1.5-0.4,2.3-0.6v2.3c-0.6,0.3-1.4,0.5-2.3,0.7
			c-0.9,0.2-1.9,0.3-2.9,0.3c-1.2,0-2.4-0.2-3.4-0.5c-1.1-0.3-2-0.8-2.8-1.5c-0.8-0.7-1.4-1.6-1.8-2.7s-0.7-2.5-0.7-4.1
			c0-1.6,0.2-2.9,0.6-4.1c0.4-1.1,1-2.1,1.7-2.9c0.7-0.8,1.5-1.3,2.5-1.7c0.9-0.4,1.9-0.6,2.9-0.6c1,0,1.9,0.2,2.7,0.5
			s1.6,0.8,2.2,1.5c0.6,0.7,1.1,1.6,1.4,2.6s0.5,2.4,0.5,3.9c0,0.1,0,0.3,0,0.4c0,0.1,0,0.3,0,0.7h-11.8c0,1.1,0.2,2,0.5,2.8
			c0.3,0.8,0.8,1.4,1.3,1.9c0.6,0.5,1.2,0.8,2,1C471.2,225.2,472,225.3,472.9,225.3z M471.4,212.2c-0.6,0-1.2,0.1-1.8,0.4
			c-0.6,0.3-1,0.6-1.4,1c-0.4,0.4-0.7,0.9-1,1.5c-0.3,0.6-0.4,1.2-0.5,1.9h8.7c0-0.7-0.1-1.3-0.3-1.9c-0.2-0.6-0.4-1.1-0.8-1.5
			c-0.3-0.4-0.8-0.8-1.3-1C472.6,212.3,472.1,212.2,471.4,212.2z"/>
		<path class="st2" d="M494,227.3c-0.2,0.1-0.6,0.2-1.1,0.3c-0.5,0.1-1.1,0.1-1.8,0.1c-0.9,0-1.7-0.1-2.3-0.3
			c-0.7-0.2-1.2-0.5-1.6-1c-0.4-0.4-0.8-0.9-1-1.5c-0.2-0.6-0.3-1.2-0.3-2v-10.4h-3.3v-2.4h3.3v-4.7h2.8v4.7h5.1v2.4h-5.1v10
			c0,0.4,0.1,0.8,0.2,1.1c0.1,0.3,0.3,0.6,0.5,0.9c0.2,0.2,0.6,0.4,0.9,0.6c0.4,0.1,0.8,0.2,1.4,0.2c0.4,0,0.8,0,1.2-0.1
			c0.4-0.1,0.8-0.1,1.1-0.2V227.3z"/>
		<path class="st2" d="M497.4,210.2h2.8l5.3,13.4h0.1l5.5-13.4h2.8l-10.6,25.5h-2.8l3.7-8.7L497.4,210.2z"/>
		<path class="st2" d="M63.5,269.5c0,1.1,0.2,1.9,0.6,2.6s1,1.3,1.7,1.7c0.7,0.5,1.6,0.8,2.5,1.1c1,0.3,2,0.6,3,0.8
			c1.4,0.3,2.8,0.7,4.1,1.1s2.6,1,3.6,1.7c1.1,0.7,1.9,1.7,2.6,2.8s1,2.7,1,4.5c0,1.9-0.4,3.5-1.1,4.8c-0.7,1.4-1.7,2.5-2.9,3.3
			c-1.3,0.9-2.7,1.5-4.4,1.9c-1.7,0.4-3.6,0.6-5.6,0.6c-0.9,0-1.9-0.1-2.9-0.2c-1-0.1-1.9-0.3-2.8-0.5c-0.9-0.2-1.7-0.4-2.4-0.7
			c-0.7-0.3-1.3-0.5-1.7-0.8v-4c0.6,0.3,1.4,0.6,2.2,0.9c0.8,0.3,1.6,0.5,2.5,0.7c0.9,0.2,1.7,0.3,2.6,0.4c0.9,0.1,1.7,0.2,2.5,0.2
			c1.3,0,2.5-0.1,3.6-0.3c1.1-0.2,2.1-0.6,3-1.1c0.9-0.5,1.5-1.2,2.1-2.1c0.5-0.9,0.8-2,0.8-3.3c0-1.1-0.2-2-0.7-2.7
			c-0.4-0.7-1-1.3-1.8-1.7c-0.7-0.5-1.6-0.8-2.6-1.1c-1-0.3-2-0.6-3-0.8c-1.4-0.3-2.8-0.7-4.1-1.1c-1.3-0.4-2.5-1-3.6-1.7
			c-1.1-0.7-1.9-1.6-2.5-2.8c-0.6-1.1-1-2.6-1-4.3c0-1.8,0.3-3.4,1-4.7c0.7-1.3,1.6-2.4,2.7-3.3c1.1-0.9,2.5-1.5,4-1.9
			c1.5-0.4,3.1-0.6,4.8-0.6c1.9,0,3.7,0.2,5.4,0.6c1.7,0.4,3.2,0.9,4.6,1.4v4.1c-1.5-0.6-3-1.1-4.6-1.5c-1.6-0.4-3.3-0.6-5.1-0.6
			c-1.4,0-2.6,0.1-3.6,0.4c-1,0.3-1.8,0.7-2.5,1.3c-0.7,0.5-1.2,1.2-1.5,2C63.6,267.6,63.5,268.5,63.5,269.5z"/>
		<path class="st2" d="M101.5,269.7c1.2,0,2.4,0.1,3.6,0.4c1.1,0.3,2.1,0.6,2.9,1.1v3.5c-1.1-0.4-2.2-0.8-3.1-1
			c-1-0.2-1.9-0.3-2.9-0.3c-1,0-2.1,0.2-3.1,0.5c-1,0.3-1.9,0.9-2.8,1.7c-0.8,0.8-1.5,1.8-2,3.1c-0.5,1.3-0.7,2.9-0.7,4.8
			c0,1.4,0.2,2.7,0.6,3.8c0.4,1.2,0.9,2.2,1.6,3c0.7,0.9,1.6,1.5,2.7,2c1.1,0.5,2.4,0.7,3.8,0.7c1,0,2.1-0.1,3.2-0.3
			c1.1-0.2,2.1-0.5,3.1-1v3.5c-0.3,0.2-0.7,0.4-1.2,0.5c-0.5,0.2-1,0.3-1.6,0.5c-0.6,0.1-1.2,0.2-1.9,0.3c-0.7,0.1-1.3,0.1-2,0.1
			c-1.7,0-3.4-0.3-4.9-0.8c-1.5-0.5-2.9-1.3-4-2.4c-1.2-1.1-2.1-2.4-2.7-4.1s-1-3.6-1-5.9c0-1.7,0.2-3.2,0.5-4.6
			c0.4-1.4,0.8-2.5,1.4-3.6c0.6-1,1.3-1.9,2.1-2.6c0.8-0.7,1.7-1.3,2.6-1.8c0.9-0.5,1.9-0.8,2.9-1
			C99.6,269.8,100.6,269.7,101.5,269.7z"/>
		<path class="st2" d="M119.8,273.9L119.8,273.9c0.5-0.6,1.1-1.1,1.6-1.7c0.6-0.5,1.2-1,1.9-1.3c0.7-0.4,1.5-0.7,2.3-0.9
			c0.8-0.2,1.7-0.3,2.6-0.3c1,0,1.9,0.1,2.9,0.4c1,0.3,1.9,0.7,2.7,1.4c0.8,0.7,1.5,1.6,2,2.8c0.5,1.2,0.8,2.7,0.8,4.6V296h-4.2
			v-16.5c0-2.1-0.4-3.6-1.2-4.7c-0.8-1-2.1-1.6-3.8-1.6c-1.5,0-2.9,0.4-4.2,1.2c-1.3,0.8-2.5,1.9-3.5,3.3V296h-4.2v-39.1h4.2V273.9z
			"/>
		<path class="st2" d="M168.2,283.2c0,2-0.3,3.9-0.9,5.5c-0.6,1.7-1.4,3.1-2.4,4.3c-1.1,1.2-2.3,2.1-3.8,2.7s-3.2,1-5,1
			c-1.9,0-3.6-0.3-5.1-1c-1.5-0.6-2.8-1.6-3.8-2.7c-1.1-1.2-1.9-2.6-2.4-4.3s-0.8-3.5-0.8-5.5c0-2,0.3-3.9,0.9-5.5
			c0.6-1.7,1.4-3.1,2.4-4.3s2.3-2.1,3.8-2.8s3.2-1,5-1c1.9,0,3.6,0.3,5.1,1c1.5,0.6,2.8,1.6,3.8,2.8s1.8,2.6,2.4,4.3
			C167.9,279.4,168.2,281.2,168.2,283.2z M163.8,283.2c0-1.6-0.2-3-0.6-4.2c-0.4-1.2-0.9-2.3-1.6-3.1c-0.7-0.9-1.5-1.5-2.5-1.9
			c-1-0.4-2-0.7-3.1-0.7c-1.1,0-2.2,0.2-3.1,0.7c-1,0.4-1.8,1.1-2.5,1.9c-0.7,0.9-1.2,1.9-1.6,3.1c-0.4,1.2-0.6,2.6-0.6,4.2
			c0,1.6,0.2,3,0.6,4.2c0.4,1.2,0.9,2.3,1.6,3.1c0.7,0.8,1.5,1.5,2.5,1.9c1,0.4,2,0.7,3.1,0.7c1.1,0,2.2-0.2,3.1-0.7
			c0.9-0.4,1.8-1.1,2.5-1.9c0.7-0.8,1.2-1.9,1.6-3.1C163.6,286.2,163.8,284.8,163.8,283.2z"/>
		<path class="st2" d="M175.6,296v-39.1h4.2V296H175.6z"/>
		<path class="st2" d="M203.7,293.2h-0.1c-0.3,0.4-0.8,0.9-1.3,1.3s-1.1,0.8-1.8,1.1c-0.7,0.3-1.4,0.6-2.2,0.8
			c-0.8,0.2-1.7,0.3-2.6,0.3c-1.2,0-2.4-0.2-3.4-0.6c-1-0.4-1.9-0.9-2.7-1.6c-0.7-0.7-1.3-1.6-1.7-2.6c-0.4-1-0.6-2.2-0.6-3.5
			c0-1.3,0.2-2.4,0.7-3.4c0.5-1,1.1-1.9,1.9-2.6c0.8-0.7,1.8-1.2,3-1.6c1.2-0.4,2.4-0.6,3.8-0.6c1.3,0,2.6,0.1,3.7,0.4
			c1.1,0.2,2.1,0.5,3,0.8h0.1v-1.8c0-0.7,0-1.3-0.1-1.9c-0.1-0.5-0.2-1-0.5-1.4c-0.5-0.9-1.2-1.6-2.2-2.1c-1-0.6-2.4-0.9-4.2-0.9
			c-1.3,0-2.5,0.1-3.7,0.4c-1.1,0.2-2.3,0.6-3.4,1v-3.5c0.4-0.2,0.9-0.4,1.5-0.6c0.6-0.2,1.2-0.4,1.8-0.5c0.6-0.1,1.3-0.2,2.1-0.3
			c0.7-0.1,1.4-0.1,2.2-0.1c2.6,0,4.7,0.5,6.4,1.4c1.6,0.9,2.8,2.1,3.6,3.6c0.3,0.6,0.5,1.2,0.6,1.9c0.1,0.7,0.2,1.5,0.2,2.3V296
			h-3.5L203.7,293.2z M203.5,284.8c-0.8-0.2-1.7-0.4-2.7-0.6c-1.1-0.2-2.2-0.3-3.5-0.3c-1.8,0-3.2,0.4-4.2,1.1
			c-1,0.8-1.5,1.9-1.5,3.5c0,0.8,0.1,1.5,0.4,2.1c0.3,0.6,0.6,1.1,1,1.5c0.4,0.4,1,0.7,1.6,0.9c0.6,0.2,1.2,0.3,1.9,0.3
			c0.9,0,1.7-0.1,2.5-0.4c0.8-0.3,1.5-0.6,2.1-0.9c0.6-0.4,1.1-0.7,1.5-1.1c0.4-0.4,0.7-0.6,0.9-0.8V284.8z"/>
		<path class="st2" d="M230.4,273.8h-0.3c-1,0-2,0.1-2.9,0.3c-1,0.2-1.9,0.5-2.7,0.8c-0.8,0.4-1.6,0.8-2.3,1.4
			c-0.7,0.5-1.2,1.2-1.7,1.9V296h-4.2v-25.7h3.2l0.8,4.1h0.1c0.4-0.7,0.9-1.3,1.5-1.9c0.6-0.6,1.3-1.1,2-1.5c0.8-0.4,1.6-0.8,2.5-1
			c0.9-0.2,1.8-0.4,2.8-0.4c0.2,0,0.4,0,0.6,0c0.2,0,0.4,0,0.5,0V273.8z"/>
		<path class="st2" d="M238.4,277.2c0,0.7,0.1,1.3,0.4,1.7s0.7,0.8,1.2,1.1c0.5,0.3,1.1,0.5,1.7,0.7c0.7,0.2,1.3,0.3,2,0.5
			c1,0.2,1.9,0.5,2.7,0.7c0.9,0.3,1.7,0.7,2.4,1.2c0.7,0.5,1.3,1.2,1.8,2.1c0.4,0.9,0.7,2,0.7,3.5c0,1.3-0.3,2.4-0.8,3.4
			c-0.5,1-1.2,1.8-2.1,2.5c-0.9,0.7-2,1.2-3.3,1.5c-1.3,0.4-2.7,0.5-4.2,0.5c-0.9,0-1.8,0-2.6-0.1c-0.8-0.1-1.4-0.2-2-0.4
			c-0.6-0.2-1.1-0.3-1.5-0.5c-0.4-0.2-0.8-0.3-1-0.5v-3.5c1.1,0.4,2.1,0.8,3.2,1c1,0.3,2.2,0.4,3.4,0.4c1,0,1.9-0.1,2.7-0.3
			c0.8-0.2,1.5-0.4,2.1-0.8c0.6-0.4,1-0.8,1.3-1.3c0.3-0.5,0.5-1.1,0.5-1.8c0-0.7-0.1-1.3-0.4-1.8c-0.3-0.5-0.7-0.9-1.1-1.2
			c-0.5-0.3-1-0.6-1.7-0.8c-0.6-0.2-1.3-0.4-2-0.5c-0.9-0.2-1.8-0.4-2.7-0.7c-0.9-0.3-1.8-0.6-2.5-1.1c-0.8-0.5-1.4-1.1-1.8-2
			c-0.5-0.8-0.7-1.9-0.7-3.2c0-1.4,0.2-2.5,0.7-3.5s1.1-1.8,2-2.5c0.8-0.6,1.8-1.1,2.9-1.5c1.1-0.3,2.3-0.5,3.5-0.5
			c1.4,0,2.7,0.1,4,0.4c1.2,0.3,2.3,0.6,3.3,1v3.6c-1.1-0.4-2.1-0.8-3.2-1c-1.1-0.3-2.2-0.4-3.3-0.4c-1,0-1.8,0.1-2.5,0.3
			c-0.7,0.2-1.2,0.5-1.7,0.8c-0.4,0.4-0.8,0.8-1,1.2C238.5,276.1,238.4,276.6,238.4,277.2z"/>
		<path class="st2" d="M262.8,273.9L262.8,273.9c0.5-0.6,1.1-1.1,1.6-1.7c0.6-0.5,1.2-1,1.9-1.3s1.5-0.7,2.3-0.9
			c0.8-0.2,1.7-0.3,2.6-0.3c1,0,1.9,0.1,2.9,0.4c1,0.3,1.9,0.7,2.7,1.4c0.8,0.7,1.5,1.6,2,2.8c0.5,1.2,0.8,2.7,0.8,4.6V296h-4.2
			v-16.5c0-2.1-0.4-3.6-1.2-4.7c-0.8-1-2.1-1.6-3.8-1.6c-1.5,0-2.9,0.4-4.2,1.2c-1.3,0.8-2.5,1.9-3.5,3.3V296h-4.2v-39.1h4.2V273.9z
			"/>
		<path class="st2" d="M288.5,264.4v-4.7h4.2v4.7H288.5z M288.6,296v-25.7h4.2V296H288.6z"/>
		<path class="st2" d="M324.4,282.9c0,1.8-0.2,3.4-0.5,4.7c-0.4,1.4-0.8,2.6-1.4,3.6c-0.6,1-1.3,1.9-2,2.6c-0.8,0.7-1.6,1.3-2.4,1.7
			c-0.8,0.4-1.7,0.7-2.5,0.9c-0.9,0.2-1.7,0.3-2.4,0.3c-1.6,0-2.9-0.3-4.1-0.8c-1.2-0.5-2.2-1.3-3.1-2.3h-0.1v14.9h-4.1v-38.2h3.2
			l0.9,2.9h0.1c0.2-0.4,0.5-0.7,0.9-1.1c0.4-0.3,0.9-0.7,1.5-1.1c0.6-0.4,1.4-0.7,2.2-1c0.9-0.3,1.8-0.4,2.8-0.4
			c1.4,0,2.8,0.2,4.2,0.7c1.3,0.5,2.5,1.3,3.6,2.3c1,1.1,1.8,2.4,2.5,4.1C324.1,278.5,324.4,280.5,324.4,282.9z M320.1,283
			c0-1.5-0.2-2.8-0.5-4s-0.8-2.2-1.4-3c-0.6-0.8-1.4-1.5-2.3-1.9c-0.9-0.4-2-0.7-3.2-0.7c-0.9,0-1.7,0.1-2.4,0.4s-1.4,0.5-1.9,0.9
			c-0.6,0.4-1.1,0.7-1.5,1.2c-0.4,0.4-0.8,0.8-1,1.1v13.4c0.9,0.9,1.9,1.6,3,2.1s2.3,0.8,3.7,0.8c0.8,0,1.6-0.1,2.5-0.4
			c0.9-0.3,1.7-0.8,2.5-1.6c0.8-0.8,1.4-1.8,1.9-3.1C319.8,286.7,320.1,285,320.1,283z"/>
		<path class="st2" d="M348.2,296h-4.4v-36.1h21.5v4h-17.1v11.7h15.2v4h-15.2V296z"/>
		<path class="st2" d="M381.9,296.7c-1.3,0-2.5-0.1-3.6-0.4c-1.1-0.3-2-0.7-2.8-1.2c-0.8-0.5-1.5-1.1-2-1.9c-0.6-0.7-1-1.5-1.3-2.4
			c-0.3-0.6-0.4-1.4-0.5-2.1c-0.1-0.8-0.2-1.6-0.2-2.5v-15.7h4.2v15.7c0,1.4,0.2,2.6,0.6,3.6c0.4,1.1,1.1,1.9,2.1,2.6
			c1,0.6,2.2,0.9,3.7,0.9c1.6,0,2.9-0.3,3.8-1c1-0.7,1.7-1.6,2.1-2.8c0.3-0.9,0.5-2,0.5-3.3v-15.7h4.2v15.8c0,0.9,0,1.7-0.1,2.4
			c-0.1,0.7-0.3,1.4-0.5,2.1c-0.3,0.9-0.8,1.7-1.3,2.4c-0.6,0.7-1.3,1.4-2.1,1.9c-0.8,0.5-1.8,1-2.9,1.3
			C384.5,296.6,383.2,296.7,381.9,296.7z"/>
		<path class="st2" d="M404.9,273.9L404.9,273.9c0.5-0.6,1.1-1.1,1.6-1.7c0.6-0.5,1.2-1,1.9-1.4c0.7-0.4,1.5-0.7,2.3-0.9
			c0.8-0.2,1.8-0.3,2.7-0.3c1.2,0,2.3,0.2,3.3,0.5c1,0.3,1.9,0.8,2.7,1.6c0.8,0.7,1.4,1.7,1.8,2.8c0.4,1.2,0.7,2.6,0.7,4.3V296h-4.2
			v-16.5c0-2.2-0.4-3.8-1.3-4.8c-0.9-1-2.1-1.5-3.7-1.5c-1.4,0-2.8,0.4-4.2,1.2c-1.3,0.8-2.5,1.9-3.5,3.3V296h-4.2v-25.7h3.2
			L404.9,273.9z"/>
		<path class="st2" d="M429.1,283.5c0-1.8,0.2-3.4,0.5-4.7c0.4-1.4,0.8-2.6,1.4-3.6c0.6-1,1.3-1.9,2-2.6c0.8-0.7,1.6-1.3,2.4-1.7
			c0.8-0.4,1.7-0.7,2.5-0.9c0.9-0.2,1.7-0.3,2.4-0.3c1.6,0,2.9,0.3,4.1,0.8c1.2,0.5,2.2,1.3,3.1,2.3h0.1v-15.9h4.2V296h-3.2
			l-0.9-2.9h-0.1c-0.3,0.4-0.7,0.8-1.1,1.3c-0.4,0.4-0.9,0.8-1.5,1.1c-0.6,0.3-1.3,0.6-2,0.8c-0.8,0.2-1.7,0.3-2.7,0.3
			c-1.4,0-2.8-0.2-4.1-0.7c-1.4-0.5-2.6-1.2-3.6-2.3c-1.1-1.1-1.9-2.4-2.6-4.1C429.4,288,429.1,285.9,429.1,283.5z M433.5,283.5
			c0,1.5,0.2,2.8,0.5,4c0.3,1.2,0.8,2.2,1.4,3.1c0.6,0.8,1.4,1.5,2.3,1.9c0.9,0.5,2,0.7,3.2,0.7c0.9,0,1.7-0.1,2.4-0.4
			c0.7-0.2,1.4-0.5,1.9-0.9c0.6-0.4,1.1-0.7,1.5-1.1c0.4-0.4,0.7-0.8,1-1.1v-13.4c-0.9-0.9-1.9-1.6-3-2.1c-1.1-0.5-2.4-0.8-3.7-0.8
			c-0.8,0-1.6,0.1-2.5,0.4c-0.9,0.3-1.7,0.8-2.4,1.6c-0.7,0.8-1.4,1.8-1.8,3.1C433.7,279.8,433.5,281.4,433.5,283.5z"/>
	</g>
	<g>
		<g>
			<g>
				<path class="st2" d="M301.8,68.2c-0.4,0.2-0.8,0.3-1.1,0.5c-0.8,0.5-1.5,0.8-2.3,1.4c-0.8,0.5-1.6,1.1-2.1,1.5l-0.9,0.7
					l-0.2,0.2l-0.1,0.1l-0.2,0.2l-0.5,0.4c-0.6,0.6-1.2,1.2-1.8,1.9c-0.5,0.5-0.9,1.1-1.3,1.6c0.4-0.5,0.9-1.1,1.4-1.6
					c0.6-0.6,1.2-1.2,1.8-1.8l0.5-0.4l0.2-0.2l0.1-0.1l0.2-0.2l0.9-0.7c0.6-0.4,1.4-1,2.1-1.5c0.8-0.5,1.5-0.9,2.3-1.3
					c0.4-0.2,0.9-0.4,1.3-0.6C302,68.4,301.9,68.3,301.8,68.2z"/>
			</g>
		</g>
		<g>
			<g>
				<path class="st2" d="M378.4,104.8c-0.4-2.8-1-5.8-2.1-9.1c-1.1-3.2-2.7-6.7-5.2-9.9c-2-2.7-4.7-5.4-8.2-7.3
					c4.7-2.8,7.8-7.9,7.8-13.7c0-8.8-7.1-15.9-15.9-15.9c-8.8,0-15.9,7.1-15.9,15.9c0,5.4,2.7,10.2,6.8,13c-0.2,0.1-0.3,0.1-0.5,0.2
					c-2.5,1.2-4.7,3-6.6,5c-0.2,0.2-0.4,0.5-0.6,0.7c-1.3-2.1-2.7-4.2-4.4-6.1c-2.2-2.5-4.7-4.9-7.6-6.8c-1.1-0.8-2.3-1.5-3.6-2.1
					c7.1-3.6,12-11,12-19.4c0-12-9.8-21.7-21.7-21.7c-12,0-21.7,9.8-21.7,21.7c0,8,4.4,15.1,10.9,18.8c0.1,0.1,0.2,0.1,0.3,0.2
					c-0.5,0.2-0.9,0.4-1.3,0.6c-0.8,0.4-1.5,0.8-2.3,1.3c-0.8,0.5-1.6,1-2.1,1.5l-0.9,0.7l-0.2,0.2l-0.1,0.1l-0.2,0.2l-0.5,0.4
					c-0.6,0.6-1.2,1.2-1.8,1.8c-0.5,0.5-0.9,1.1-1.4,1.6c-0.1,0.1-0.1,0.1-0.2,0.2c-0.1-0.3-0.2-0.6-0.4-0.9c-0.5-1-1-2-1.5-2.9
					c-4.2-7.3-9.4-12.4-14.3-16.1c-1.3-0.8-2.5-1.7-3.7-2.4c-0.6-0.3-1.2-0.7-1.8-1c-0.2-0.1-0.4-0.2-0.7-0.3
					c9.7-4.3,16.5-14.1,16.5-25.4c0-15.3-12.5-27.8-27.8-27.8S229.6,12.7,229.6,28c0,11,6.5,20.6,15.8,25.1
					c-0.2,0.1-0.3,0.2-0.5,0.2c-2.3,1-4.7,2.5-7.1,4.3c-2.4,1.9-4.9,4.1-7.3,6.8c-2.4,2.7-4.7,5.8-6.7,9.5c-0.3,0.5-0.5,1-0.7,1.5
					c-0.2,0.5-0.5,1-0.7,1.5c0,0-0.1-0.1-0.1-0.1c0,0-0.1-0.1-0.1-0.1c-0.1-0.1-0.1-0.2-0.2-0.2c-0.5-0.6-1-1.1-1.5-1.7
					c-0.6-0.6-1.2-1.2-1.9-1.8l-0.5-0.4l-0.5-0.4l-0.9-0.7c-0.6-0.5-1.5-1-2.2-1.5c-0.8-0.4-1.5-0.9-2.3-1.2c-0.8-0.4-1.6-0.7-2.4-1
					c0.1-0.1,0.3-0.1,0.4-0.2h0c7.1-3.6,12-10.9,12-19.4c0-12-9.8-21.7-21.7-21.7s-21.7,9.7-21.7,21.7c0,9.1,5.6,16.9,13.5,20.1
					c-1.8,0.8-3.6,1.8-5.2,2.9c-2.8,2-5.3,4.3-7.5,6.9c-1.5,1.8-2.9,3.8-4.1,5.8c-0.2-0.3-0.5-0.6-0.8-0.8c-1.9-2-4.2-3.7-6.7-4.9
					c0,0-0.1,0-0.1,0c4.2-2.9,6.9-7.7,6.9-13.1c0-8.8-7.1-15.9-15.9-15.9c-8.8,0-15.9,7.1-15.9,15.9c0,5.8,3.1,10.8,7.6,13.6
					c-3.6,1.9-6.4,4.6-8.4,7.4c-2.4,3.3-4,6.7-5.1,9.9c-1.1,3.2-1.8,6.3-2.1,9c-0.7,5.5-0.5,9.9-0.4,12.8c0.3,2.9,0.5,4.5,0.5,4.5
					l0.4,0l0.4,0c0,0,0-1.5,0.2-4.4c0.2-2.9,0.5-7.1,1.8-12.2c0.6-2.6,1.5-5.3,2.8-8.2c1.3-2.8,3-5.7,5.3-8.3c0.3-0.3,0.6-0.6,0.9-1
					c0.3-0.3,0.6-0.6,1-0.9c0.6-0.6,1.3-1.1,2-1.7c1.5-1,3-1.9,4.7-2.4c3.4-1.1,7.1-0.9,10.4,1c2.7,1.5,5,4,6.9,7.1
					c-0.6,1.5-1.1,3-1.5,4.6c-1.6,6.2-2.6,12.3-3,18.7c-0.2,3.2-0.2,6.3,0.2,9.6c0.2,1.6,0.5,3.3,1,5c0.5,1.7,1.2,3.5,2.6,5.4
					c1.4,1.8,4.5,4.1,8.5,2.9l0.4-0.1l0.2-0.1l0.5-0.2c0.3-0.2,0.6-0.3,0.9-0.5c0.6-0.3,1-0.8,1.5-1.1c0.8-0.8,1.6-1.7,2.1-2.6
					c2.1-3.6,2.4-7.1,2.5-10.2c0.1-6.3-1.1-11.9-2.5-17.2c-0.7-2.7-1.6-5.2-2.3-7.8l-0.2-0.5l-0.2-0.6l-0.4-0.9
					c-0.2-0.6-0.4-1.2-0.7-1.8c-0.3-0.7-0.6-1.3-0.9-2l-0.3-0.7c1.3-2.9,2.9-5.7,4.9-8.2c3.4-4.4,8-8,13.1-9.3
					c2.5-0.7,5.1-0.8,7.7-0.3c1.3,0.3,2.5,0.7,3.7,1.2c0.6,0.2,1.2,0.6,1.8,0.9c0.5,0.4,1,0.6,1.6,1.1l0.9,0.7l0.2,0.2l0.1,0.1
					c0,0,0,0,0.1,0l0.3,0.3c0.5,0.4,1,0.9,1.5,1.4c0.3,0.4,0.7,0.8,1,1.2c0.5,0.7,1.1,1.4,1.6,2.1c0.5,0.7,0.9,1.4,1.3,2.1
					c-0.2,0.7-0.4,1.4-0.5,2.1c-1,4.2-2,8.7-2.8,13.3c-0.8,4.7-1.5,9.6-1.9,14.8c-0.2,2.6-0.4,5.2-0.4,8c0,2.7,0.1,5.5,0.6,8.5
					c0.2,1.5,0.5,3,1.1,4.6c0.5,1.6,1.3,3.3,2.6,4.9c0.4,0.4,0.7,0.8,1.1,1.2c0.5,0.4,1,0.7,1.4,1c1,0.5,2.2,1,3.3,1.1l0.8,0.1
					c0,0,0.4,0,0.4,0l0.1,0h0.3c0.1,0,0.1,0,0.3,0l0.5,0c0.4,0,0.7-0.1,1-0.2c1.2-0.3,2.4-0.8,3.3-1.6c1.9-1.5,3-3.2,3.7-4.9
					c0.7-1.7,1.1-3.3,1.5-4.9c0.6-3.2,0.7-6.3,0.7-9.4c-0.2-6.1-1.1-12.2-2.5-18.2c-1.4-5.8-3.3-11.5-5.9-17.1
					c0.5-1.6,0.9-3.1,1.4-4.5l0.2-0.6l0.3-0.7c0.1-0.4,0.3-0.7,0.5-1.1c0.1-0.3,0.3-0.7,0.5-1.1c0.2-0.4,0.4-0.7,0.6-1
					c1.7-2.8,3.7-5.4,5.7-7.5c2-2.1,4-3.9,5.9-5.3c1.9-1.3,3.7-2.4,5.3-3c0.4-0.2,0.8-0.3,1.1-0.5c0.4-0.1,0.7-0.2,1.1-0.3
					c0.4-0.1,0.7-0.2,1-0.3c0.3,0,0.5-0.1,0.7-0.1c0.2,0,0.5-0.1,0.7-0.2c0.2,0,0.3-0.1,0.7-0.1c0.5,0,1-0.1,1.4-0.1
					c0.3,0,0.5,0,0.7,0h0.1c0.1,0,0.2,0,0.3,0c0.4,0,0.8,0,1.4,0.1c0.3,0,0.5,0,0.7,0.1c0.2,0,0.4,0.1,0.6,0.1
					c0.2,0,0.5,0.1,0.8,0.1c0.3,0.1,0.6,0.2,1,0.3c0.3,0.1,0.7,0.2,1.1,0.3c0.4,0.1,0.7,0.3,1.1,0.4c0.4,0.2,0.8,0.3,1.2,0.5
					c0.4,0.2,0.9,0.5,1.3,0.7c0.9,0.4,1.8,1.1,2.8,1.7c1.9,1.4,4,3,6,5.2c2,2.1,4.1,4.7,5.8,7.5c0.5,0.7,0.8,1.4,1.2,2.1
					c0.2,0.4,0.3,0.7,0.5,1l0.1,0.3l0,0l0,0.1l0.1,0.2l0.3,0.7c0.5,1.5,1.1,3.3,1.6,5.2c-2.7,5.8-4.6,11.7-6,17.7
					c-1.4,6-2.3,12.1-2.4,18.3c0,3.1,0.1,6.2,0.8,9.4c0.4,1.6,0.8,3.2,1.7,4.9c0.4,0.8,1,1.7,1.6,2.5c0.7,0.8,1.6,1.6,2.6,2.2
					c0.5,0.3,1.1,0.5,1.7,0.8c0.3,0.1,0.6,0.2,0.9,0.2c0.3,0.1,0.7,0.1,1.1,0.1c0.5,0,0.5,0,0.7,0h0.3l0.4,0l0.2,0
					c0.6-0.1,1.2-0.2,1.7-0.3c2.4-0.7,4.3-2.3,5.4-3.9l0.8-1.2c0.2-0.4,0.4-0.8,0.6-1.2c0.4-0.8,0.6-1.6,0.9-2.4
					c0.2-0.8,0.4-1.5,0.6-2.3c0.1-0.8,0.3-1.5,0.4-2.2c0.4-2.9,0.5-5.7,0.5-8.5c0-2.7-0.2-5.4-0.4-8c-0.5-5.2-1.2-10.1-2-14.8
					c-0.8-4.7-1.8-9.1-2.9-13.4c-0.1-0.5-0.2-0.9-0.3-1.3c0.8-1.3,1.6-2.6,2.5-3.8c1.3-1.5,2.7-2.9,4.2-4c4.3-3.3,9.7-4.6,14.8-3.3
					c5.1,1.3,9.7,4.8,13.2,9.1c2.1,2.6,3.8,5.5,5.1,8.6c-0.5,0.9-0.9,1.9-1.3,2.9c-0.2,0.6-0.4,1.2-0.7,1.8l-0.3,0.9l-0.1,0.2
					l-0.1,0.4l-0.2,0.5c-0.8,2.5-1.7,5.1-2.3,7.8c-1.4,5.3-2.6,11-2.5,17.3c0.1,3.2,0.5,6.6,2.7,10.3c0.2,0.5,0.6,0.9,1,1.3l0.6,0.6
					l0.7,0.6c0.4,0.4,1,0.8,1.5,1.1c0.3,0.2,0.6,0.3,1,0.5c0.2,0.1,0.9,0.3,1.3,0.4c0,0,0.6,0.1,0.6,0.1l0.3,0l0.6,0
					c0.4,0,0.8-0.1,1.2-0.1c0.8-0.1,1.6-0.4,2.3-0.8c1.4-0.7,2.3-1.8,3-2.7c1.4-1.9,1.9-3.7,2.4-5.4c0.5-1.7,0.8-3.4,0.9-5
					c0.4-3.3,0.4-6.4,0.2-9.6c-0.4-6.3-1.4-12.4-3-18.7c-0.4-1.4-0.9-2.8-1.4-4.2c0.7-1.2,1.5-2.3,2.3-3.3c1.3-1.6,2.9-2.8,4.5-3.8
					c3.2-1.9,7-2.1,10.4-1.1c1.7,0.5,3.3,1.4,4.7,2.4c0.7,0.5,1.4,1,2,1.7c0.3,0.3,0.7,0.6,1,0.9c0.3,0.3,0.6,0.6,0.9,1
					c2.3,2.6,4,5.5,5.3,8.3c1.3,2.8,2.2,5.6,2.8,8.2c1.3,5.1,1.6,9.4,1.8,12.2c0.1,2.9,0.1,4.4,0.1,4.4l0.4,0l0.4,0
					c0,0,0.2-1.5,0.5-4.5C378.9,114.7,379.1,110.4,378.4,104.8z M158.9,76.1c-6.1,0-11.2-5-11.2-11.2c0-6.2,5-11.2,11.2-11.2
					c6.2,0,11.2,5,11.2,11.2C170.1,71.1,165.1,76.1,158.9,76.1z M179.1,122.1c-0.1,2.4-0.5,4.8-1.3,6.1c-0.1,0.1-0.1,0.2-0.2,0.3
					c-0.3-0.5-0.6-1.2-0.8-1.9c-0.3-1.1-0.6-2.3-0.8-3.6c-0.3-2.6-0.4-5.4-0.3-8.2c0.1-3.4,0.4-6.9,0.9-10.4
					c0.2,0.9,0.4,1.8,0.6,2.7C178.4,112,179.3,117.2,179.1,122.1z M200.4,64c-8.7,0-15.8-7.1-15.8-15.8c0-8.7,7.1-15.8,15.8-15.8
					c8.7,0,15.8,7.1,15.8,15.8C216.2,56.9,209.1,64,200.4,64z M229.9,123c0,2.7-0.2,5.4-0.7,7.8c-0.3,1.2-0.6,2.3-1,3.2
					c-0.4,0.9-1,1.6-1.3,1.8c-0.2,0.1-0.3,0.2-0.4,0.2c0,0,0,0,0,0c0,0,0,0,0,0h-0.5c0,0,0.1,0,0.2,0c-0.1,0-0.1,0-0.2,0
					c-0.4-0.1-0.6-0.2-1-0.7c-0.4-0.5-0.8-1.3-1.1-2.3c-0.2-0.5-0.3-1-0.4-1.5c-0.1-0.5-0.2-1.1-0.3-1.7c-0.3-2.3-0.3-4.8-0.3-7.2
					c0.1-2.4,0.3-4.9,0.5-7.3c0.5-4.8,1.3-9.5,2.2-13.9c0.2-0.9,0.4-1.8,0.6-2.8c0.8,2.5,1.4,5.1,2,7.6
					C229.2,111.9,229.9,117.6,229.9,123z M257.4,48.7c-11.4,0-20.7-9.3-20.7-20.7S246,7.4,257.4,7.4c11.4,0,20.7,9.3,20.7,20.7
					S268.8,48.7,257.4,48.7z M290.4,129.2c-0.2,2.3-0.8,4.6-1.6,5.9c-0.4,0.6-0.7,0.8-1,0.9c-0.1,0-0.2,0-0.3,0l0,0h0.1l-0.3,0
					c-0.1,0-0.4,0-0.4,0c0,0,0,0,0,0c-0.1,0-0.1,0-0.2-0.1c-0.1-0.1-0.3-0.2-0.6-0.5c-0.2-0.3-0.5-0.6-0.7-1
					c-0.4-0.8-0.8-1.9-1.1-3.1c-0.6-2.4-0.8-5-0.8-7.8c-0.1-5.5,0.6-11.2,1.8-16.8c0.6-2.8,1.2-5.5,2.1-8.2c0.1,0.7,0.3,1.4,0.4,2.1
					c0.9,4.4,1.7,9.1,2.3,13.9c0.3,2.4,0.5,4.8,0.6,7.3C290.7,124.3,290.7,126.8,290.4,129.2z M312.7,65.2
					c-8.7,0-15.8-7.1-15.8-15.8c0-8.7,7.1-15.8,15.8-15.8c8.7,0,15.8,7.1,15.8,15.8C328.5,58.1,321.4,65.2,312.7,65.2z M337.3,122.6
					c-0.2,1.3-0.4,2.6-0.7,3.7c-0.2,0.8-0.5,1.6-0.8,2.1c0-0.1-0.1-0.1-0.1-0.2c-0.8-1.3-1.3-3.6-1.4-6c-0.2-4.8,0.7-10.1,1.8-15.1
					c0.2-1,0.4-1.9,0.7-2.8c0.5,3.4,0.8,6.8,0.9,10.1C337.7,117.2,337.6,120,337.3,122.6z M354.7,76.1c-6.1,0-11.2-5-11.2-11.2
					c0-6.2,5-11.2,11.2-11.2c6.2,0,11.2,5,11.2,11.2C365.9,71.1,360.9,76.1,354.7,76.1z"/>
			</g>
		</g>
		<g>
			<g>
				<path class="st2" d="M220.5,74.8c-0.6-0.6-1.2-1.2-1.8-1.8l-0.5-0.4l-0.5-0.4l-0.9-0.7c-0.6-0.5-1.5-1-2.2-1.5
					c-0.8-0.4-1.5-0.9-2.3-1.3c-0.7-0.3-1.4-0.7-2.1-0.9h0c-0.1,0.1-0.3,0.1-0.4,0.2c0.8,0.3,1.6,0.6,2.4,1c0.8,0.3,1.5,0.8,2.3,1.2
					c0.7,0.5,1.6,1,2.2,1.5l0.9,0.7l0.5,0.4l0.5,0.4C219.2,73.6,219.8,74.2,220.5,74.8c0.5,0.6,1,1.1,1.5,1.7
					C221.5,75.9,221,75.3,220.5,74.8z"/>
			</g>
		</g>
		<g>
			<g>
				<path class="st2" d="M301.8,68.2c-0.4,0.2-0.8,0.3-1.1,0.5c-0.8,0.5-1.5,0.8-2.3,1.4c-0.8,0.5-1.6,1.1-2.1,1.5l-0.9,0.7
					l-0.2,0.2l-0.1,0.1l-0.2,0.2l-0.5,0.4c-0.6,0.6-1.2,1.2-1.8,1.9c-0.5,0.5-0.9,1.1-1.3,1.6c0.4-0.5,0.9-1.1,1.4-1.6
					c0.6-0.6,1.2-1.2,1.8-1.8l0.5-0.4l0.2-0.2l0.1-0.1l0.2-0.2l0.9-0.7c0.6-0.4,1.4-1,2.1-1.5c0.8-0.5,1.5-0.9,2.3-1.3
					c0.4-0.2,0.9-0.4,1.3-0.6C302,68.4,301.9,68.3,301.8,68.2z"/>
			</g>
		</g>
		<g>
			<g>
				<path class="st2" d="M220.5,74.8c-0.6-0.6-1.2-1.2-1.8-1.8l-0.5-0.4l-0.5-0.4l-0.9-0.7c-0.6-0.5-1.5-1-2.2-1.5
					c-0.8-0.4-1.5-0.9-2.3-1.3c-0.7-0.3-1.4-0.7-2.1-0.9h0c-0.1,0.1-0.3,0.1-0.4,0.2c0.8,0.3,1.6,0.6,2.4,1c0.8,0.3,1.5,0.8,2.3,1.2
					c0.7,0.5,1.6,1,2.2,1.5l0.9,0.7l0.5,0.4l0.5,0.4C219.2,73.6,219.8,74.2,220.5,74.8c0.5,0.6,1,1.1,1.5,1.7
					C221.5,75.9,221,75.3,220.5,74.8z"/>
			</g>
		</g>
	</g>
</g>
</svg>
